<?xml version="1.0" standalone="no"?>
<!DOCTYPE svg PUBLIC "-//W3C//DTD SVG 1.1//EN" "http://www.w3.org/Graphics/SVG/1.1/DTD/svg11.dtd" >
<svg>
<metadata>
Created by FontForge 20090622 at Mon Jan 15 09:08:38 2018
 By deploy user
Copyright (C) 1990 ParaGraph JV.
</metadata>
<defs>
<font id="UkrainianBrushScript" horiz-adv-x="1548" >
  <font-face 
    font-family="UkrainianBrushScript"
    font-weight="400"
    font-style="italic"
    font-stretch="normal"
    units-per-em="4096"
    panose-1="2 2 114 0 0 0 0 0 0 0"
    ascent="3276"
    descent="-820"
    x-height="1475"
    cap-height="2957"
    bbox="-401 -1372 5218 3748"
    underline-thickness="56"
    underline-position="-307"
    slope="26"
    unicode-range="U+0020-U+2022"
  />
<missing-glyph horiz-adv-x="3072" 
d="M512 0v2560h2048v-2560h-2048zM2494 66v2428h-1916v-2428h1916z" />
    <glyph glyph-name=".notdef" horiz-adv-x="3072" 
d="M512 0v2560h2048v-2560h-2048zM2494 66v2428h-1916v-2428h1916z" />
    <glyph glyph-name=".null" horiz-adv-x="0" 
 />
    <glyph glyph-name="nonmarkingreturn" horiz-adv-x="0" 
 />
    <glyph glyph-name="space" unicode=" " horiz-adv-x="1438" 
 />
    <glyph glyph-name="exclam" unicode="!" horiz-adv-x="1434" 
d="M1397 2482q106 127 217 127q65 0 147 -53.5t82 -97.5q0 -30 -42.5 -91t-170.5 -223.5l-242.5 -317t-273.5 -392.5q-119 -178 -196 -322.5t-132.5 -271t-77.5 -162t-57 -35.5q-75 0 -140 78t-65 176q0 114 102.5 323t255 445.5t317.5 461t276 355.5zM459 -98
q-63 0 -146.5 58.5t-83.5 121.5q0 43 33.5 127.5t79.5 148.5t84 64q63 0 140 -65t77 -124q0 -31 -35 -115t-78 -150t-71 -66z" />
    <glyph glyph-name="quotedbl" unicode="&#x22;" horiz-adv-x="1434" 
d="M401 2032l54 553q54 540 422 540q85 0 138.5 -40t53.5 -119q0 -133 -143 -381l-324 -553h-201zM1221 2032l53 553q17 192 104.5 366t317.5 174q89 0 142.5 -45t53.5 -114q0 -141 -143 -381l-328 -553h-200z" />
    <glyph glyph-name="numbersign" unicode="#" horiz-adv-x="2867" 
d="M2011 135h-250l123 684h-557l-123 -684h-246l119 684h-463l62 344h463l131 733h-463l61 345h463l123 684h250l-123 -684h557l119 684h250l-123 -684h467l-62 -345h-467l-131 -733h467l-61 -344h-467zM1946 1163l131 733h-557l-131 -733h557z" />
    <glyph glyph-name="dollar" unicode="$" horiz-adv-x="3461" 
d="M2855 2953l-143 -299q166 0 285.5 -77t119.5 -164q0 -95 -106 -214t-209 -135q-99 -16 -185 -16q29 35 29 61q0 74 -156 74l-200 -422q131 -48 249.5 -166t118.5 -325q0 -163 -125.5 -329t-351.5 -298t-510 -197l-233 -491q-83 0 -136 33.5t-53 72.5q0 47 42.5 156.5
t97.5 212.5q-237 0 -295 21l-217 -451q-83 0 -136 29.5t-53 85.5q0 65 152 372q-241 31 -311 111t-70 209q0 81 96.5 212.5t161.5 131.5q30 0 90 -39t117.5 -64.5t165.5 -35.5l241 512q-152 11 -280.5 87.5t-128.5 227.5q0 135 70.5 284t280 291t587.5 216l49 112t71 142.5
t65 69t89 24.5q81 0 147 -25l-135 -282l141.5 5.5l166.5 6.5q62 130 73 156q34 74 62.5 100.5t109.5 26.5q94 0 156 -13zM2044 1819l184 389q-200 0 -303 -8l-168 -353q59 -5 157.5 -15zM1495 1872l143 299q-217 -26 -301 -87t-84 -114q0 -40 71.5 -69t170.5 -29zM1589 1503
l-241 -520q147 -12 294 -12l242 508q-154 6 -295 24zM2142 1442l-217 -455q25 8 91 32t124 54t104 77t46 99q0 69 -38.5 131t-109.5 62z" />
    <glyph glyph-name="percent" unicode="%" horiz-adv-x="3596" 
d="M1622 2789q84 -41 107 -123v-114q-34 -231 -222 -484q-16 -24 -16 -36q0 -31 28 -54.5t66 -23.5q55 0 107 30.5t77 30.5q46 0 46 -33q0 -39 -69.5 -87t-190 -80.5t-257.5 -32.5q-105 -109 -254 -177.5t-307 -68.5q-206 0 -299.5 197.5t-93.5 425.5q0 186 185 390.5
t445 341t460 136.5q85 0 151 -49t66 -90q0 -30 -17 -58q-4 -9 -12 -41zM1200 1913q-33 81 -33 143q0 104 66 254q56 124 90 176q57 89 57 148q0 28 -41 28q-60 0 -181 -61t-248 -163.5t-213.5 -226.5t-86.5 -241q0 -192 189 -192q144 0 401 135zM3060 496q110 -44 110 -238
q0 -180 -225 -483q-16 -26 -16 -37q0 -31 29 -54.5t69 -23.5q57 0 105 30.5t75 30.5q45 0 45 -32q0 -34 -66 -83t-184.5 -83.5t-265.5 -34.5q-250 -250 -561 -250q-204 0 -298.5 202t-94.5 425q0 159 119 316.5t299 282t366.5 197t308.5 72.5q84 0 148.5 -48.5t64.5 -90.5
q0 -33 -16 -57q-3 -12 -6.5 -22.5t-5.5 -18.5zM2638 -381q-33 77 -33 148q0 128 131 376q82 153 82 197q0 29 -41 29q-94 0 -273 -109t-315.5 -269.5t-136.5 -314.5q0 -192 184 -192q154 0 402 135zM3187 2744l-2409 -3317q-30 -37 -41 -37q-29 0 -41 32l-61 185q0 28 37 90
l2400 3322q4 4 14.5 16.5t18 18.5t16.5 6q23 0 33 -29l74 -192q0 -23 -41 -95z" />
    <glyph glyph-name="ampersand" unicode="&#x26;" horiz-adv-x="2953" 
d="M1667 1573q53 -321 205 -619q207 139 313.5 235.5t284.5 285.5q57 -69 57 -156q0 -123 -87 -287t-228 -311q-50 -50 -115 -131q68 -123 148 -123q25 0 57 16q36 13 65 13q8 0 17 -17v-45q-18 -83 -141.5 -258.5t-202.5 -175.5q-60 0 -153.5 96.5t-157.5 194.5
q-468 -385 -799 -385q-200 0 -347.5 121.5t-225.5 291.5t-78 304q0 293 257 520.5t656 437.5q-8 90 -8 135q0 311 165.5 557t415 379t480.5 133q106 0 199.5 -51.5t152 -131.5t69.5 -161v-78q-20 -153 -160.5 -288.5t-279.5 -214.5t-362 -189q-78 -40 -114 -57zM1626 1880
q132 73 328 225q101 78 213 187t135 178q12 24 12 57q0 27 -12 45q-27 49 -94 49q-94 0 -223.5 -82t-233.5 -250t-125 -409zM1257 1307q-287 -178 -450.5 -363.5t-163.5 -312.5q0 -139 160 -139q88 0 165.5 10.5t204.5 55.5t302 138q-73 124 -132 289.5t-86 321.5z" />
    <glyph glyph-name="quotesingle" unicode="'" horiz-adv-x="655" 
d="M401 2032l58 553q34 305 162.5 422.5t287.5 117.5q94 0 149.5 -44.5t55.5 -114.5q0 -134 -151 -381l-345 -553h-217z" />
    <glyph glyph-name="parenleft" unicode="(" horiz-adv-x="1896" 
d="M786 -565l-188 -111q-49 167 -94 519t-45 771q0 399 127 830t322 793.5t397.5 582t341.5 219.5q89 0 203.5 -85.5t193.5 -213.5q-240 -194 -507.5 -574t-430.5 -765q-118 -276 -225 -695.5t-107 -951.5q0 -154 12 -319z" />
    <glyph glyph-name="parenright" unicode=")" horiz-adv-x="1896" 
d="M1319 2929l184 90q113 -338 139 -713q9 -90 9 -278q0 -185 -9 -279q-35 -481 -183.5 -926t-345 -779.5t-380.5 -527t-278 -192.5q-91 0 -209 94t-189 205q165 135 340.5 348t332.5 471.5t269 520.5q102 239 176.5 504t115 555.5t40.5 586.5q0 159 -12 320z" />
    <glyph glyph-name="asterisk" unicode="*" horiz-adv-x="2490" 
d="M1573 2658l323 492l15.5 27.5t19.5 20.5t39 13h29q13 0 53 -20l102 -82l12.5 -12.5l12.5 -12.5v-32q-5 -21 -25 -50l-282 -454l528 -37q90 0 90 -70q0 -33 -8 -41l-131 -139q-41 -41 -61 -41q-7 0 -17 2t-16 2h-37l-430 37l295 -561q2 -4 12.5 -30.5t16.5 -43.5v-37
q-11 -34 -29 -45l-127 -78q-21 -16 -49 -16q-53 0 -78 49l-307 553l-299 -508q-4 -6 -18.5 -33.5t-29 -42t-30.5 -14.5q-33 0 -49 12l-152 111q-15 7 -20 45v33l6 12l6 12q3 9 4.5 14t3.5 7l340 524l-565 -37q-7 0 -28 -2t-29 -2q-50 0 -50 12q0 3 2 10t2 11v8l103 242
q11 33 53 37q13 1 22.5 2t15 2t8 1.5t16.5 2.5l421 37l-237 454l-12.5 20t-12.5 46q0 44 25 61l156 99q16 8 32 8q57 -8 78 -45z" />
    <glyph glyph-name="plus" unicode="+" horiz-adv-x="3154" 
d="M1663 0h-229v1147h-1147v229h1147v1147h229v-1147h1147v-229h-1147v-1147z" />
    <glyph glyph-name="comma" unicode="," horiz-adv-x="967" 
d="M258 115q0 76 52.5 173t129.5 164.5t142 67.5q61 0 79.5 -40.5t18.5 -139.5q0 -145 -254 -512q-123 -176 -172 -176q-29 0 -29 24q0 19 25 54q90 108 90 188q0 51 -41 101t-41 96z" />
    <glyph glyph-name="minus" unicode="-" horiz-adv-x="3326" 
d="M287 1147v229h2695v-229h-2695z" />
    <glyph glyph-name="period" unicode="." horiz-adv-x="1012" 
d="M287 74q0 87 58.5 193t140 183.5t137.5 77.5q102 0 102 -151q0 -84 -54.5 -186t-134 -173t-147.5 -71q-102 0 -102 127z" />
    <glyph glyph-name="slash" unicode="/" horiz-adv-x="3285" 
d="M2900 2650l-2408 -3318q-30 -37 -46 -37q-32 0 -40 29l-62 184q0 37 41 95l2396 3317q28 36 49 41h17q20 -20 20 -24l70 -197q0 -28 -37 -90z" />
    <glyph glyph-name="zero" unicode="0" horiz-adv-x="2281" 
d="M1974 2527q102 -65 204.5 -232t102.5 -345q0 -296 -150 -651.5t-395 -672t-526 -512.5t-530 -196q-139 0 -284 92t-242 275.5t-97 435.5q0 363 188.5 700.5t483.5 597.5t602 406.5t529 146.5q45 0 114 -45zM1540 1987l-53 36q-234 -91 -432.5 -261t-340 -378t-217 -424
t-75.5 -399q0 -133 49 -234.5t152 -101.5q159 0 394.5 189.5t465 482.5t379 601.5t149.5 529.5q0 122 -110 122q-70 0 -183 -55.5t-178 -107.5z" />
    <glyph glyph-name="one" unicode="1" horiz-adv-x="1602" 
d="M545 2085v143q73 53 424 245.5t415 192.5q66 0 113 -82.5t47 -154.5q0 -73 -60 -180t-268 -442.5t-368 -626.5q-212 -389 -302.5 -616t-90.5 -433q0 -41 8 -131q-406 40 -406 426q0 191 135.5 475t325 564.5t367.5 500.5q155 182 155 238q0 32 -53 32t-262 -82
q-83 -35 -180 -69z" />
    <glyph glyph-name="two" unicode="2" horiz-adv-x="2548" 
d="M1171 1712q-219 0 -421 -61q-93 -25 -197 -25q-35 0 -60.5 34t-25.5 89q0 135 97 339.5t235 291.5q187 121 488 199.5t544 78.5q163 0 259.5 -30t162 -163.5t65.5 -416.5q0 -144 -74 -271t-218 -246.5t-345.5 -240t-513.5 -286.5q-337 -176 -507.5 -276.5t-232.5 -156
t-62 -96.5q0 -65 98 -65q372 31 637 77.5t463.5 95t226.5 48.5q21 0 29 -33v-29q-3 -21 -58 -131q-55 -112 -107.5 -185.5t-159.5 -140.5t-296 -108t-477 -41q-240 0 -393.5 36t-240.5 143.5t-87 312.5q0 72 62 170.5t199 224.5t362 272t528 295q267 132 454.5 234.5
t333.5 223.5t146 230q0 111 -168 111q-133 0 -360.5 -46t-426 -121.5t-270.5 -160.5q148 -36 215 -75.5t96 -100.5z" />
    <glyph glyph-name="three" unicode="3" horiz-adv-x="2605" 
d="M1098 2097q-231 -26 -434 -37q-75 22 -119.5 69t-44.5 95q0 81 66.5 168.5t218.5 165t402 126t607 48.5q291 0 433 -79.5t174 -184t32 -248.5q0 -193 -96 -316t-326.5 -204t-650.5 -139l-143.5 -19t-100.5 -20.5t-35 -34.5q0 -41 78 -41q190 0 372.5 -62.5t296.5 -178
t114 -267.5q0 -193 -125 -373.5t-340 -318t-486.5 -216.5t-544.5 -79q-201 0 -355.5 43.5t-237 108t-82.5 122.5q0 112 94.5 245.5t245.5 193.5q25 -250 475 -250q215 0 408.5 51t345.5 137t235.5 182t83.5 183q0 51 -46.5 114t-175 111.5t-356.5 48.5q-173 0 -353 -22.5
t-220 -22.5q-49 0 -63.5 17.5t-14.5 80.5q0 184 73 270t160.5 106t319.5 50q429 57 698 143t387.5 180t118.5 177q0 168 -467 168h-86q-251 0 -407.5 -29.5t-218.5 -70.5t-62 -80q0 -24 66 -54q60 -35 86 -57z" />
    <glyph glyph-name="four" unicode="4" horiz-adv-x="2445" 
d="M1569 1229l393 37q4 0 12 2t13 2h24q37 -9 37 -25q0 -49 -105.5 -201.5t-148.5 -195.5q-86 -26 -430 -70q-53 -154 -53 -291q0 -120 45 -217q-248 -270 -361 -270q-49 0 -86 94.5t-37 249.5q0 182 74 397q-123 0 -287 -8q-16 0 -46 -2t-44 -2q-51 -2 -151.5 -4t-155.5 -4
q-214 0 -262 340v102q22 142 157 316.5t348 359.5t460 352.5t501 302.5q515 275 705 275q39 0 50 -17.5t11 -68.5q-8 -81 -45 -115q86 -71 86 -201q0 -66 -35 -120.5t-165 -235.5q-315 -428 -504 -782zM1094 1192q185 305 366.5 539t358.5 436q127 137 307 360
q-171 -41 -411 -161.5t-580 -387.5q-162 -127 -437.5 -400.5t-275.5 -352.5q0 -58 110 -58q36 0 148 9z" />
    <glyph glyph-name="five" unicode="5" horiz-adv-x="2273" 
d="M1937 2212h-888q-125 -86 -235.5 -229.5t-117.5 -262.5q334 78 611 78q339 0 454 -183t115 -419q0 -241 -155.5 -470t-412.5 -407t-560 -279t-580 -101q-129 0 -234.5 74t-105.5 290q0 104 111 204t260.5 165t238.5 65q41 0 41 -41q0 -10 -94 -49q-184 -72 -184 -123
q0 -54 114 -73h111q207 22 423.5 112t399.5 218.5t292.5 258.5t109.5 222q0 72 -88 124t-277 52q-276 0 -520 -86q-141 -54 -229 -54q-56 0 -80.5 28.5t-50.5 131.5l-66 266q181 465 790 951q389 -9 451 -9q399 0 692 50q-69 -247 -336 -504z" />
    <glyph glyph-name="six" unicode="6" horiz-adv-x="2195" 
d="M2081 2617q-240 -125 -489 -296t-466.5 -385.5t-339.5 -444.5q120 86 295.5 166t302.5 80q93 0 181.5 -75t144 -189.5t55.5 -219.5q0 -138 -102.5 -351t-269.5 -422.5t-355 -344.5t-350 -135q-147 0 -295 118t-242 296t-94 340q0 284 173 623t524 683q125 122 318 264.5
t391.5 246.5t318.5 104q190 0 299 -58zM516 897q-41 -110 -41 -246q0 -129 33 -214t90 -85q127 0 274.5 127t262.5 271q290 361 290 630q0 72 -32.5 101.5t-102.5 29.5q-104 0 -266 -107.5t-306.5 -253t-201.5 -253.5z" />
    <glyph glyph-name="seven" unicode="7" horiz-adv-x="2023" 
d="M2195 2318l-307 -304.5t-298 -300.5t-222 -275q-197 -278 -362.5 -590.5t-165.5 -462.5q0 -175 82 -201q-52 -52 -96.5 -85t-104.5 -68l-86 -51q-192 -111 -270 -111q-49 0 -92.5 64t-43.5 149q0 296 354.5 818t776.5 972l175.5 184.5t123.5 143.5v41q-12 36 -205 36
q-679 0 -987 -213q-77 -57 -143 -57q-37 0 -37 70q0 22 13 52t55.5 103.5l86.5 151.5q42 71 107.5 127t215.5 108.5t418 84.5t677 32q117 0 182.5 -20t109 -111t43.5 -287z" />
    <glyph glyph-name="eight" unicode="8" horiz-adv-x="2171" 
d="M811 1405q-122 151 -223 340.5t-101 368.5q0 123 58 261t220.5 274t478 226.5t800.5 90.5q153 0 254.5 -19t101.5 -88t-44.5 -165.5t-120.5 -173t-162 -87.5q0 -53 -36 -118.5t-119.5 -164.5t-227 -246.5l-420.5 -420.5q184 -308 184 -525q0 -281 -123 -500.5
t-325 -338.5t-428 -119q-152 0 -272 56.5t-184.5 144.5t-64.5 176q0 166 175.5 406t578.5 622zM1118 1659q149 128 151 138.5t156 144.5l258 222t177 155t45 61q0 30 -98 54t-275 24q-209 0 -349 -51t-205 -128.5t-65 -156.5q0 -98 34.5 -199.5t170.5 -263.5zM934 1143
q-174 -155 -365.5 -382t-191.5 -331q0 -123 176 -123q125 0 239 82.5t183 214t69 264.5q0 143 -110 275z" />
    <glyph glyph-name="nine" unicode="9" horiz-adv-x="2077" 
d="M1475 1507q-346 -273 -524.5 -390.5t-311.5 -117.5q-113 0 -236.5 112t-205.5 265t-82 262q0 192 181 408.5t453 404t539 304t416 116.5q102 0 204.5 -102.5t168.5 -241.5q0 -144 -201 -315q-35 -31 -111 -81t-98 -50q-20 0 -20 16q-11 0 65 82q127 126 127 197
q0 20 -78 20q-182 0 -594 -233q-102 -56 -211 -134t-210.5 -176.5t-165.5 -210.5t-64 -221q0 -77 39 -102t133 -25q156 0 454.5 195.5t467.5 337.5l217 184q37 33 102 33q34 0 84.5 -20.5t50.5 -69.5q0 -38 -32 -82l-1217 -1684q-44 -62 -225 -184q-115 -78 -168 -78t-53 45
q0 49 82 238q55 119 86 119h20q60 0 184 172z" />
    <glyph glyph-name="colon" unicode=":" horiz-adv-x="1196" 
d="M528 1163q0 83 58 191t139 186t139 78q103 0 103 -152q0 -93 -57.5 -194t-137.5 -168.5t-141 -67.5q-37 0 -70 30.5t-33 96.5zM229 74q0 85 59.5 192.5t141.5 184.5t139 77q37 0 70 -34.5t33 -116.5q0 -85 -55 -186.5t-135.5 -172.5t-145.5 -71q-44 0 -75.5 36.5
t-31.5 90.5z" />
    <glyph glyph-name="semicolon" unicode=";" horiz-adv-x="1192" 
d="M524 1163q0 83 58 191t139 186t139 78q103 0 103 -152q0 -93 -57.5 -194t-137.5 -168.5t-141 -67.5q-37 0 -70 30.5t-33 96.5zM262 115q0 75 54 172t131.5 165t138.5 68t79.5 -40.5t18.5 -139.5q0 -145 -254 -512q-123 -176 -172 -176q-29 0 -29 24q0 19 25 54
q90 108 90 188q0 51 -41 101t-41 96z" />
    <glyph glyph-name="less" unicode="&#x3c;" horiz-adv-x="2970" 
d="M287 1262l2216 1400l123 -192l-1885 -1208l1880 -1209l-118 -196z" />
    <glyph glyph-name="equal" unicode="=" horiz-adv-x="3269" 
d="M287 831v230h2638v-230h-2638zM287 1462v230h2638v-230h-2638z" />
    <glyph glyph-name="greater" unicode="&#x3e;" horiz-adv-x="2970" 
d="M2683 1262l-2216 -1405l-119 196l1884 1209l-1888 1208l123 192z" />
    <glyph glyph-name="question" unicode="?" horiz-adv-x="1741" 
d="M2028 2445q0 -208 -83 -381.5t-200.5 -306t-339 -347t-332.5 -341.5q-96 -114 -116.5 -175t-43.5 -156t-61 -95q-84 0 -152.5 119t-68.5 217q0 92 84.5 198.5t247.5 243t553 439.5q185 145 237.5 193.5t52.5 100.5q0 89 -107.5 171.5t-301.5 82.5q-520 0 -520 -122
q0 -30 67.5 -66.5t67.5 -52.5q0 -25 -49 -25q-14 3 -48 6.5t-145 18.5q-116 14 -168.5 33.5t-52.5 89.5q0 108 60 228t247 214t537 94q408 0 521.5 -116.5t113.5 -264.5zM635 -98q-62 0 -143.5 57.5t-81.5 122.5q0 74 69.5 207t126.5 133q65 0 139 -64.5t74 -124.5
q0 -33 -34 -116t-77 -149t-73 -66z" />
    <glyph glyph-name="at" unicode="@" horiz-adv-x="3547" 
d="M2916 2400l-340 -1179q-24 -93 -24 -152q0 -111 56 -151.5t108 -40.5q118 0 251.5 96.5t227.5 299t94 492.5q0 357 -171 617.5t-460 395t-626 134.5q-311 0 -566 -111.5t-435.5 -310t-276 -460t-95.5 -551.5q0 -363 163 -656.5t455 -459.5t665 -166q214 0 393.5 27
t408.5 120l54 -188q-357 -160 -856 -160q-350 0 -635.5 119t-486.5 328.5t-305.5 477.5t-104.5 558q0 311 112 605.5t326 528t514.5 367t665.5 133.5q403 0 737.5 -158t529.5 -463t195 -723q0 -273 -94 -522.5t-280 -406t-441 -156.5q-278 0 -400 127t-149 279h-17
q-296 -357 -606 -357q-143 0 -259 78.5t-182.5 222.5t-66.5 338q0 267 151 514t387.5 399t473.5 152q254 0 401 -164h13l33 127h462zM1696 1053q99 0 245 119t253.5 331t107.5 475q0 142 -40 216.5t-153 74.5q-149 0 -293.5 -144t-236.5 -356.5t-92 -400.5
q0 -156 60.5 -235.5t148.5 -79.5z" />
    <glyph glyph-name="A" unicode="A" horiz-adv-x="2896" 
d="M1024 1462l217 21q158 182 383 401.5t488 446.5t511.5 409t428.5 271q106 -65 106 -205q0 -103 -25 -148l-544 -1069l254 29q64 0 81 -8t17 -41q0 -38 -34 -120t-64 -179q-40 -114 -91 -162t-131.5 -59t-265.5 -13q-101 -194 -145 -286t-56 -111q-57 -108 -57 -168
q0 -70 70 -70q84 0 217 115q139 139 168 139q41 0 41 -24t-111.5 -154t-167.5 -186q-152 -148 -250.5 -219.5t-220.5 -71.5q-192 0 -237 143q-13 36 -13 78q0 59 13 107q29 149 135 340l201 368l-848 -8l-910 -962q-48 -52 -205 -152.5t-229 -122.5h-49q-12 12 -12 29
q0 67 87 209t163 229q115 138 200 209h176l508 545l-331 -37q-8 -1 -35.5 -5t-50.5 -5.5t-58 -1.5q-94 0 -94 69q0 41 130.5 217.5t172.5 204.5q137 99 459 111zM2163 1561l540 1032q-763 -551 -1200 -1094z" />
    <glyph glyph-name="B" unicode="B" horiz-adv-x="3011" 
d="M1270 2306v-119l-660 -188q-65 -21 -106 -21q-70 0 -70 70q0 95 89.5 228.5t227.5 255.5t269 184q149 70 339.5 118t397 77.5t397 42t365.5 12.5q421 0 616 -174.5t195 -391.5q0 -262 -249 -434.5t-540.5 -254t-590.5 -134.5q-95 -17 -242.5 -46l-228.5 -44v-21
q183 -42 553 -151q241 -74 377.5 -129t240 -152t103.5 -239q0 -127 -144 -268t-378.5 -263.5t-495 -197t-478.5 -74.5q-256 0 -430 80t-254.5 197t-80.5 227q0 149 172 395t372 469q-181 27 -272.5 55.5t-91.5 104.5q0 79 78.5 105t150.5 26q91 3 430 45
q259 253 409.5 371.5t220 145t161.5 32.5q36 2 67 6.5t43 5.5l-74.5 -74l-69.5 -66.5l-56 -52.5q-149 -126 -361 -368q490 60 791.5 157.5t425 205t123.5 210.5q0 291 -414 291q-148 0 -417.5 -32.5t-529.5 -91.5t-380 -130zM1331 1307q-114 -130 -208.5 -307t-94.5 -304
q0 -94 110 -169.5t279 -75.5q184 0 403 67t371 165t152 185q0 155 -292 255t-720 184z" />
    <glyph glyph-name="C" unicode="C" horiz-adv-x="2531" 
d="M1790 1679q27 -16 70 -16q91 0 197 93.5t196.5 234.5t147.5 288.5t57 251.5q0 9 2 39t2 47q0 115 -74 115q-187 0 -490.5 -253t-609.5 -649.5t-506 -808.5t-200 -710q0 -581 475 -581q336 0 711 274.5t690 626.5q97 110 135 110q41 0 41 -45q0 -51 -192 -279.5
t-484.5 -490.5t-615 -446.5t-592.5 -184.5q-168 0 -332.5 81.5t-274.5 258.5t-110 439q0 189 57 408t150.5 434t202 401.5t221.5 337.5q148 197 362.5 428.5t459 439.5t480 337.5t422.5 129.5q87 0 183.5 -49t159 -131.5t62.5 -175.5q0 -233 -101 -518t-456 -707
q-77 -92 -245 -244.5t-337.5 -269.5t-256.5 -117q-49 0 -93 61.5t-63 135.5q93 200 244 395t305 309z" />
    <glyph glyph-name="D" unicode="D" horiz-adv-x="3285" 
d="M1954 2421l37 -267l-414.5 -554.5t-288 -421t-163 -299.5t-52.5 -211q0 -101 54 -157t237 -56q215 0 538 93.5t639 274t524 446t208 591.5q0 243 -229.5 402t-884.5 159q-226 0 -475 -36t-413.5 -90t-164.5 -104q0 -18 59 -43t117 -43q-379 -129 -610 -180q-28 0 -70 -8
q-33 0 -49 8q-61 29 -61 143q0 194 57 365q58 176 361 307.5t686.5 201t656.5 69.5q467 0 852 -207t385 -813q0 -433 -244 -802.5t-631 -635t-817.5 -409.5t-785.5 -144q-93 0 -164 29.5t-115.5 114t-44.5 237.5q0 178 137.5 441t333.5 538.5l453.5 608t341.5 452.5z" />
    <glyph glyph-name="E" unicode="E" horiz-adv-x="2810" 
d="M1761 1364v33q-149 16 -348 28q-244 13 -402.5 43t-277.5 132.5t-119 304.5q0 187 141.5 372.5t396.5 336t592.5 239t713.5 88.5q267 0 395 -34.5t219 -117.5v-319q-17 -32 -45 -54t-88 -50t-203 -89q-159 -68 -262.5 -132.5t-175.5 -104.5q44 164 217 282
q-139 58 -307 58q-321 0 -591 -87.5t-425.5 -219.5t-155.5 -254q0 -230 836 -230q40 0 287 13h208q72 -6 108 -40.5t36 -78.5q0 -40 -21 -66l-147 -188q-26 -31 -160 -37q-385 -17 -692.5 -115.5t-519.5 -238.5t-321 -281.5t-109 -237.5q0 -52 73.5 -94.5t181 -66
t203.5 -23.5q386 0 803.5 160t843.5 442q-23 -286 -125.5 -452t-312.5 -293q-595 -357 -1213 -357q-219 0 -376 21t-277.5 86t-186 193.5t-65.5 338.5q0 101 76 232.5t237.5 272.5t416.5 268.5t593 214.5q258 67 348 102z" />
    <glyph glyph-name="F" unicode="F" horiz-adv-x="2753" 
d="M1323 2163l205 -103q-232 -45 -320 -45q-40 0 -117 -2t-112 -2q-283 0 -283 103q0 32 9 49l110 311q29 81 97 133t227 113q223 86 436 150.5t531 112.5t708 48q44 0 120 -2t126 -2q438 0 913 29q-37 -278 -120 -415.5t-193.5 -176.5t-272.5 -39q-66 0 -204 8
q-43 0 -118 2t-128 2q-672 -894 -811 -1094q64 5 116 7.5t78 3.5t60 2q80 0 105.5 -11.5t25.5 -66.5q0 -126 -90.5 -240t-319.5 -129q-105 -4 -258 -28q-139 -154 -258 -303q-80 -98 -245 -275.5t-370.5 -373t-384.5 -324.5t-278 -129q-84 0 -102 57v45q17 83 109.5 209
t181.5 209q133 124 199 163t131.5 61t107.5 54q54 38 120 108t156.5 176.5l231.5 272.5q-362 -34 -606 -40h-201q-57 3 -71.5 16.5t-14.5 56.5q0 179 126 273.5t389.5 137t758.5 68.5q157 195 393.5 525l400.5 577q-331 -8 -715.5 -79.5t-578.5 -202.5z" />
    <glyph glyph-name="G" unicode="G" horiz-adv-x="2888" 
d="M2011 229q419 252 635 410q146 106 197 106q8 0 16 -16v-24q-12 -50 -84 -111.5t-273.5 -205.5l-385.5 -286.5t-387 -326.5q-373 -520 -610.5 -700.5t-356.5 -180.5q-36 0 -69.5 29.5t-33.5 64.5q0 132 127.5 332.5t313.5 377t342 241.5l88 170l96 178q213 372 397 778
l-393 -311.5t-380 -289t-285.5 -165t-235.5 -57.5q-90 0 -185.5 61.5t-160 191t-64.5 316.5q0 273 130.5 556.5t360 543.5t521.5 469q365 262 828 456.5t753 194.5q111 0 165 -47t73 -219v-94q-21 -82 -163 -201t-328 -219.5t-324 -128.5q32 57 102 119q26 21 56 65t30 82
q0 8 -69 8q-155 0 -437.5 -161t-484.5 -310q-414 -316 -647.5 -643t-233.5 -557q0 -197 201 -197q151 0 466 230t639 530t501 494q65 70 102.5 102.5t89.5 32.5q80 0 150.5 -39.5t70.5 -128.5q0 -54 -69 -172z" />
    <glyph glyph-name="H" unicode="H" horiz-adv-x="3531" 
d="M1823 1364l688 737q13 14 38.5 48.5l51.5 66.5q139 164 139 262q0 115 -151 115q-199 0 -495 -59t-558 -152.5t-365 -186.5q-2 -10 -10 -35.5t-10 -37.5q0 -13 8 -45l-696 -344q-86 73 -86 168q0 128 81 333.5t218 292.5q112 71 305 139t415.5 123t393.5 86l164 31
t131 21t164 16.5t213 5.5h164q198 0 289 -21.5t132 -101.5t41 -258q0 -165 -151 -332l-733 -823q98 14 639 78q92 118 529.5 608t469.5 490q33 0 33 -115q0 -37 -10.5 -65.5t-28.5 -55t-39.5 -50.5l-40.5 -46q-286 -340 -582 -766q26 0 104 4t134 4q127 0 205 -4l-279 -512
q-327 0 -495 -16q-137 -180 -193.5 -261.5t-99.5 -188.5t-43 -230q0 -58 4 -90l-357 -197q-28 102 -28 168q0 343 385 786q-405 -50 -791 -73q-141 -130 -340 -357q-175 -198 -237 -288t-62 -158q0 -40 17 -78q-102 8 -182 75t-80 130q0 66 148.5 259.5t354.5 412.5
q-74 -9 -135 -9q-278 0 -278 201q0 121 188 365q0 -53 28.5 -79t110.5 -37t250 -11q155 0 320 57z" />
    <glyph glyph-name="I" unicode="I" horiz-adv-x="2036" 
d="M782 1688q9 0 40 2t50 2q105 0 205 -29q-133 -82 -254 -182.5t-159 -100.5q-75 0 -189 78l-78 51t-55 51.5t-23 81.5q0 145 126 320.5t317 388.5q105 117 282.5 259.5t374 244.5t350.5 102q127 0 252 -50.5t201 -134.5t76 -179q0 -113 -42.5 -271t-107 -316t-120.5 -273
q-107 -212 -205 -386t-152 -259l-196 -305.5l-222 -352.5q0 -81 -47 -183.5t-108.5 -174.5t-98.5 -72q-58 0 -125 63.5t-67 137.5q0 49 48 124.5t181 247.5q152 198 381.5 574.5t399.5 739t170 538.5q0 143 -136 143q-116 0 -274 -96.5t-319 -242t-291.5 -294.5t-184.5 -247
z" />
    <glyph glyph-name="J" unicode="J" horiz-adv-x="2179" 
d="M1249 193q-426 -555 -701 -860.5t-401.5 -398.5t-183.5 -93q-35 0 -68.5 13.5t-33.5 39.5q0 236 218 574t802 708l129.5 85.5l160.5 107.5q136 212 355.5 616t397 813.5t177.5 601.5q0 93 -15 124.5t-83 31.5q-151 0 -349.5 -144t-383.5 -374.5t-301.5 -483
t-116.5 -460.5q0 -131 33 -131q40 0 106 31.5t115 78.5q-54 -93 -172 -232.5t-247.5 -246.5t-215.5 -107q-45 0 -94 48.5t-49 144.5q0 193 58 431t204.5 517.5t392.5 554.5q150 167 356 328.5t413 264.5t353 103q70 0 149 -44t133 -119.5t54 -155.5q0 -177 -188.5 -602
t-419.5 -854.5t-326 -579.5q25 16 195 88t194 72q66 0 66 -25q0 -24 -146 -108t-210 -125q-65 -40 -357 -233z" />
    <glyph glyph-name="K" unicode="K" horiz-adv-x="3420" 
d="M2109 1851l1557 754q20 -75 20 -123q0 -158 -116 -264.5t-334 -235.5q-188 -109 -303 -151q-11 38 -40.5 80.5t-62.5 42.5q-73 0 -192 -53l-742 -357l-167 -225l1163 -770q291 -191 291 -590q0 -49 -16 -127t-38 -78l-1728 1159l-348 -430q-4 -16 -4 -37q1 -1 12 -28
q-83 -101 -238.5 -259.5t-216.5 -158.5q-28 0 -42.5 19t-14.5 38q0 38 22 91.5t94.5 159.5t210 277l369.5 443q-37 55 -37 217q0 74 127 201l385 188l447 598q74 98 74 131q0 17 -21.5 35.5t-48.5 18.5q-80 0 -406 -129.5t-673 -285.5t-441 -204q-141 -61 -196 -61
q-48 0 -63 30.5t-15 100.5q0 205 155 471l447 266q-8 -32 -8 -78q0 -28 49 -28q7 0 33 8q382 174 681 246.5t470 72.5q138 0 226.5 -130t88.5 -226q0 -82 -37 -131z" />
    <glyph glyph-name="L" unicode="L" horiz-adv-x="2785" 
d="M2679 1614l-504 -389q-26 -21 -45 -21q-53 0 -53 111q0 176 75.5 329.5t214.5 354.5q230 331 230 389q0 17 -12 25h-62q-105 -40 -383.5 -383.5t-559.5 -736t-429 -617.5q316 -24 893 -217q277 -93 394.5 -123t240.5 -33l-328 -352q-52 -57 -95 -82t-142 -25
q-54 0 -96.5 11t-158.5 50.5t-282 90.5t-426 119q-149 40 -242 59t-213 19q-218 0 -367 -41t-259 -96.5t-131 -55.5t-21 29q0 58 123.5 260t216.5 321q260 90 639 90l191 272.5l150 213l167 239.5q86 123 297.5 398.5l441.5 549.5t444 476.5t316 202.5q69 0 135 -91.5
t66 -195.5q0 -101 -60 -252t-116 -240l-142.5 -227.5t-91.5 -171t-33 -154.5q0 -58 17 -106z" />
    <glyph glyph-name="M" unicode="M" horiz-adv-x="4231" 
d="M2245 803l360 410t328 351.5t454 430.5q449 403 630 519t243 116q60 0 118 -75t58 -163q0 -32 -12 -70q-182 -229 -525 -622q-136 -155 -287.5 -378.5t-259.5 -459t-108 -407.5q0 -312 176 -312q77 0 257.5 116.5t271.5 199.5q122 102 155 102q16 0 30.5 -12t14.5 -25
q0 -33 -86.5 -128t-163.5 -167q-229 -213 -461 -346t-407 -133q-95 0 -201 98t-106 312q0 444 422 999q352 463 352 512q0 33 -41 33q-107 0 -598 -504q-490 -502 -864 -1040q-119 -174 -147 -210t-54 -36q-152 0 -152 176q0 66 41 211t148 390t291 575l276 480l144.5 244
t17.5 50q0 15 -21 28t-49 13q-97 0 -342 -196t-415 -361q-526 -511 -1131 -1319q-104 -141 -151.5 -179.5t-106.5 -41.5q-13 0 -44 2t-54 2q-78 2 -103 9.5t-39 64t-14 196.5q0 356 124.5 606t252.5 344q52 39 244 95.5t243 56.5q21 0 21 -8q0 -26 -67.5 -87t-124 -128.5
t-116 -213t-85.5 -374.5l362 404l484 525t366 373q226 217 647.5 555t524.5 338q38 0 82 -59t75 -142.5t31 -150.5q0 -43 -28 -98.5t-128.5 -201.5l-154.5 -228l-187.5 -286l-144 -236.5t-140 -261t-126.5 -277.5z" />
    <glyph glyph-name="N" unicode="N" horiz-adv-x="3314" 
d="M1114 2781q0 -48 26 -83.5t64 -35.5q40 0 82 21q38 17 203 104t290 130.5t257 43.5q144 0 217.5 -75.5t73.5 -194.5q0 -100 -50 -192q-138 -309 -269.5 -537t-227.5 -367l-172 -253.5t-76 -170.5q0 -36 16 -36q14 0 33.5 19.5l226.5 236.5l486 501q98 100 325 299
t446 357.5t306 158.5q53 0 100 -59t76 -141t29 -131q0 -85 -80 -221t-281 -414l-175.5 -249l-263 -393t-229 -399.5t-93.5 -281.5q0 -221 135 -221q110 0 336 176q76 62 147 143t89.5 98t57.5 17q54 0 54 -33q0 -74 -238 -307q-607 -594 -872 -594q-93 0 -167.5 87.5
t-74.5 231.5q0 356 418 1024l260 410l212.5 322t130 202t28.5 78q0 21 -25 21q-82 0 -328 -207.5t-501 -459.5t-326 -337q-173 -197 -297 -366l-245.5 -350t-176.5 -242.5t-108 -61.5q-37 0 -78 25q-63 26 -121.5 79.5t-58.5 96.5q0 69 94 205q305 458 529 829.5
t361.5 672.5t137.5 464q0 59 -17 86.5t-86 27.5q-145 0 -520 -245q-251 -159 -487 -353q-185 -151 -283 -151q-57 0 -57 201q0 216 231 447t506 347z" />
    <glyph glyph-name="O" unicode="O" horiz-adv-x="2548" 
d="M2232 2322q213 0 338 -113.5t125 -336.5q0 -251 -144 -572t-394.5 -617t-574 -483.5t-660.5 -187.5q-180 0 -312 90q-348 296 -348 738q0 409 227.5 769.5t561 626.5t657.5 426.5t492 184.5h94q94 -21 184.5 -150t130.5 -252q-215 -24 -377 -123zM1110 1421l-98 41
q-147 -150 -266 -427.5t-119 -485.5q0 -142 77.5 -226.5t159.5 -84.5q143 0 401.5 160.5t518.5 415.5t434 542t174 536q0 250 -205 250q-238 0 -551 -230t-526 -491z" />
    <glyph glyph-name="P" unicode="P" horiz-adv-x="3170" 
d="M1290 1393l656 970q-217 0 -482 -40.5t-520 -108t-465 -146.5q84 288 225 462.5t346 264.5t467 120t650 30q349 0 613 -77t429.5 -294.5t165.5 -607.5q0 -197 -131 -434.5t-374.5 -453t-567.5 -348t-692 -132.5q-177 0 -545 45l-135 -221q-29 -43 -29 -94q0 -49 29 -95
q-53 -79 -119 -192q-192 -315 -258 -315q-96 0 -119 77q-12 37 -12 70q0 40 12 78q20 82 196.5 375.5t246.5 386.5q-102 26 -188.5 101t-86.5 157q0 317 688 422zM2183 2363l-610 -938q43 9 127 9h29q31 0 55 2t43 2q69 0 69 -54q0 -29 -137.5 -35.5t-223 -33t-85.5 -123.5
q0 -47 84.5 -79t153.5 -32q254 0 500 66.5t448.5 188t319 281.5t116.5 337q0 237 -231 325t-543 88q-22 0 -61 -2t-54 -2z" />
    <glyph glyph-name="Q" unicode="Q" horiz-adv-x="2847" 
d="M918 672l558.5 406t601.5 467t451.5 437.5t231.5 397.5v114q-26 78 -144 78q-166 0 -438 -94.5t-538 -240t-408 -283.5q193 -62 237 -144q-226 -38 -495 -159q-217 -95 -262 -95q-61 0 -104.5 171.5t-43.5 283.5q0 198 647 549q255 137 592 255t584 138h225
q164 -11 276.5 -95.5t166 -203.5t53.5 -229q0 -193 -193 -430.5t-477 -468t-598 -450l-600 -417.5q228 -22 545 -81q388 -70 614 -70q211 0 439 65l-123 -368q-26 -81 -68 -126t-144 -70t-296 -25q-209 0 -439 32q-109 16 -340.5 58.5t-366.5 62t-259 19.5
q-234 0 -324 -30.5t-146 -78t-116 -47.5q-20 0 -20 45q0 13 4 52t4 59q0 210 133.5 363t443.5 153h136z" />
    <glyph glyph-name="R" unicode="R" horiz-adv-x="3428" 
d="M1229 1458l680 971q-360 -38 -585.5 -98.5t-225.5 -94.5q0 -12 103.5 -40.5t154.5 -53.5q-350 -74 -561 -74q-138 0 -202.5 24.5t-64.5 107.5q0 129 45.5 253t212.5 252.5t531.5 214.5t959.5 86q546 0 861 -96t433.5 -230t118.5 -263q0 -282 -141.5 -467.5t-380.5 -294.5
t-495.5 -167t-755.5 -149q-248 -45 -520 -102l995 -393q283 -110 432 -183.5t216 -137t82.5 -131.5t15.5 -208q-4 -147 -7 -182t-26 -35q-53 0 -78 8l-1917 869l-393 -656q-175 -188 -279 -188q-61 0 -61 61q0 58 45 127l455 758q-47 14 -118 44.5t-71 53.5
q0 103 36.5 176.5t153.5 134.5t351 103zM2204 2441l-639 -909q1777 357 1777 749q0 106 -133.5 149.5t-292.5 43.5q-161 0 -369 -8.5t-343 -24.5z" />
    <glyph glyph-name="S" unicode="S" horiz-adv-x="3064" 
d="M2830 2408q-148 62 -315 62q-159 0 -373 -53t-408.5 -136.5t-321 -184t-126.5 -187.5q0 -73 117 -111t447 -114t517 -144q265 -95 419.5 -225.5t154.5 -339.5q0 -71 -52 -199.5t-169 -261.5t-295 -215q-251 -115 -625.5 -205t-804.5 -90q-307 0 -491.5 43.5t-184.5 190.5
q0 135 77.5 282.5t344.5 200.5h62q0 -6 -8.5 -28t-8.5 -34q0 -49 67 -79.5t159 -30.5q137 0 400.5 38.5t540 105t464.5 154.5t188 185q0 151 -266.5 241.5t-659.5 160.5q-295 54 -455 98.5t-235 93t-93.5 106t-18.5 164.5q0 204 34.5 336.5t154 251.5t368.5 240
q377 181 785.5 252t700.5 71q463 0 463 -278q0 -111 -16.5 -172t-49.5 -94.5t-90 -60l-130 -58.5q-107 -48 -213.5 -107.5l-196 -110t-180.5 -89.5q94 207 323 331z" />
    <glyph glyph-name="T" unicode="T" horiz-adv-x="2900" 
d="M1061 2163l205 -103q-232 -45 -320 -45q-40 0 -118 -2t-111 -2q-283 0 -283 103q0 32 8 49l111 311q29 81 97 133t227 113q223 86 436 150.5t531 112.5t708 48q44 0 120 -2t126 -2q438 0 913 29q-37 -278 -120 -415.5t-193.5 -176.5t-272.5 -39q-65 0 -205 8
q-44 0 -118 2t-127 2l-476.5 -673.5t-478 -725t-241.5 -489.5q0 -38 4 -91t4 -89q0 -94 -98 -238t-220.5 -254t-185.5 -110q-51 0 -99 63.5t-48 112.5q0 85 76 264t210 418t292.5 482.5t346.5 498.5q403 543 594 839q-331 -8 -716.5 -79.5t-577.5 -202.5z" />
    <glyph glyph-name="U" unicode="U" horiz-adv-x="3535" 
d="M1159 1782q-378 -86 -508 -86q-134 0 -202.5 23t-71.5 96v45q20 280 219.5 437t529.5 292q156 60 257 94t272 64t377 30q199 0 304.5 -10t146 -35t40.5 -74q0 -261 -115 -443.5t-380 -469.5l-412.5 -447.5t-210.5 -280t-107 -280.5v-94q10 -78 66 -78q49 0 94.5 31.5
t180 148.5t307.5 254q813 657 1433 1295q150 152 199.5 194.5t79.5 42.5q45 0 92 -85.5t47 -147.5q0 -36 -21.5 -67t-114 -139.5t-171.5 -211.5q-118 -154 -267 -367t-284.5 -432t-232.5 -430t-97 -340q0 -147 107 -147q113 0 426 192q111 71 164 115.5t77 44.5q74 0 74 -53
q0 -23 -68.5 -84.5t-165.5 -135l-143 -108.5q-237 -173 -339.5 -234t-192.5 -69h-45q-134 16 -218.5 165.5t-84.5 342.5q0 85 44 193.5t128 249t272.5 432l259.5 403.5q-313 -282 -836 -803l-279 -282.5t-246 -227t-295.5 -222.5t-243.5 -91q-80 0 -157.5 72.5t-126 171.5
t-48.5 161q0 118 105 309t218 326q75 90 157 174l153.5 152l173.5 159l172 154q458 405 458 549q0 74 -213 74q-221 0 -459 -71.5t-397 -169t-159 -165.5q0 -12 15 -21.5t49.5 -21l66.5 -22.5q80 -30 147 -41z" />
    <glyph glyph-name="V" unicode="V" horiz-adv-x="3097" 
d="M1253 1724q-91 -33 -327 -98l-185 -49t-126 -31t-91 -10q-71 0 -102.5 16t-38 51t-6.5 121q2 90 14 151.5t68 147.5t180.5 189t351.5 233q168 97 424 209.5t513 193.5t419 81q92 0 125.5 -30.5t75.5 -109.5q53 -94 53 -204q0 -47 -28 -97.5t-92 -137l-154 -208.5
q-305 -421 -489 -727t-268.5 -499.5t-108 -296.5t-23.5 -160q0 -81 34.5 -128.5t71.5 -47.5q89 0 223 127t248 278l688 914l70.5 91t48 69t13.5 52.5t12 147.5q112 244 251 398.5t220 154.5q15 0 28 -19t13 -38q0 -100 -70 -281.5t-115 -251.5q-64 -106 -213 -311
l-860 -1168q-130 -177 -335.5 -360.5t-360.5 -183.5q-88 0 -167.5 79.5t-128 207.5t-48.5 266q0 237 146.5 564.5t500.5 848.5q258 379 258 426q0 49 -45 49q-13 0 -40 -4t-38 -4q-86 0 -276 -85.5t-382.5 -214.5t-299.5 -257q113 -23 200 -29q84 -5 168 -25z" />
    <glyph glyph-name="W" unicode="W" horiz-adv-x="4006" 
d="M1114 2757v-33q0 -45 62 -45q25 0 66 9.5t85 24.5t57 19q77 33 254.5 74t352.5 41q246 0 327.5 -162.5t81.5 -403.5q0 -313 -741 -1085q-197 -207 -276.5 -321.5t-79.5 -219.5q0 -69 16 -69q34 0 226 161l414.5 363t272.5 254q251 256 423.5 448.5l338.5 384t233.5 249
t127.5 57.5q94 0 147 -78.5t53 -175.5q0 -43 -42 -106t-171 -226l-317.5 -409t-333.5 -520.5t-168 -495.5q0 -136 45 -136q91 0 303 162t455 436q302 346 439.5 563t137.5 465q0 70 -12 144l133.5 140.5t108 108t57.5 25.5q51 0 64.5 -34t13.5 -130q0 -210 -157.5 -589
t-497.5 -840q-113 -153 -320.5 -367.5t-420.5 -372t-345 -157.5q-121 0 -249 128t-128 265q0 133 104.5 459t194.5 512l-391 -409l-314.5 -308l-225 -207.5l-158.5 -140.5q-223 -205 -336 -205q-66 0 -136 62.5t-118.5 157t-48.5 182.5q0 138 86 298t247.5 348t436.5 468
q263 263 400 434t137 266q0 33 -49.5 65.5t-151.5 32.5q-174 0 -396.5 -73t-396 -156t-280.5 -143q-204 -111 -271 -127h-77q-29 16 -29 114q0 210 67 343t144 194.5t182 122.5q208 120 344 164z" />
    <glyph glyph-name="X" unicode="X" horiz-adv-x="3011" 
d="M2281 1774l832 852q73 73 90 73q70 0 70 -98q0 -155 -176 -344l-140 -41l-684 -721l-65 -844v-254q0 -74 37.5 -114.5t81.5 -40.5q81 0 253 118q155 107 173 107q40 0 40 -37q0 -70 -159.5 -214.5t-353 -264t-273.5 -119.5q-78 0 -143.5 71t-65.5 249l74 1024
l-1233 -1156q-79 -77 -147 -77q-39 0 -50.5 23t-11.5 71q0 126 131 301t275 293l266 98l778 721l45 782v144q0 86 -82 86q-84 0 -256 -58.5t-367 -153t-352 -202.5q-61 -43 -61 -66q0 -8 82 -28q77 -12 127 -29q-43 -30 -248.5 -107t-296.5 -77q-60 0 -77 10t-17 47
q0 156 53 342.5t164 276.5q131 102 403 229.5t573.5 217t526.5 89.5q242 0 242 -188z" />
    <glyph glyph-name="Y" unicode="Y" horiz-adv-x="3043" 
d="M385 1565q-8 53 -8 147q0 218 66.5 338t117.5 158q74 59 276 174.5t471 241t520.5 207t428.5 81.5q95 0 133.5 -39t38.5 -133q0 -96 -39 -190.5t-125 -239.5q-179 -300 -325.5 -508.5l-302.5 -415t-221 -307t-101 -207.5q-17 -51 -17 -73q0 -32 16.5 -49t82.5 -17
q247 0 1200 991q148 162 528 537q54 -9 119.5 -81.5t65.5 -135.5q0 -37 -29 -62q-324 -448 -517.5 -747t-354 -625t-336.5 -790q171 154 392.5 293t373.5 166q16 0 51 4t47 4q33 0 33 -8q0 -21 -33 -51.5t-203.5 -171.5l-333.5 -285q-289 -254 -445.5 -433.5t-274 -334
t-152.5 -154.5q-52 0 -111 49t-102 144q24 151 85 321t199.5 437.5t378.5 662.5q373 618 373 688q-12 0 -171.5 -157l-314.5 -306.5t-358 -323.5t-381 -290q-78 -74 -176 -74q-99 0 -178.5 68t-79.5 133q0 123 150.5 400t351 571t354.5 495q113 148 233 348.5t120 282.5
q0 29 -37 29q-98 0 -401 -153t-602.5 -327z" />
    <glyph glyph-name="Z" unicode="Z" horiz-adv-x="2613" 
d="M1827 1245q33 8 98 8q143 0 254 -77t174 -209t64 -287q162 90 221 90q33 0 33 -41q0 -32 -254 -184q-67 -337 -253.5 -592t-426.5 -485q-145 -138 -349.5 -290t-405 -257t-331.5 -105q-88 0 -150 51t-93 122.5t-31 129.5q0 121 172.5 320t318.5 323q148 122 304.5 230.5
t304 199.5l341.5 203.5l279 161.5q8 50 8 66q0 115 -83 180t-207 65q-98 0 -242.5 -44.5t-320.5 -135.5t-363 -225q-164 -115 -246 -115q-4 0 -4 70q8 118 17 216t71 178.5t233 190t510 283.5q193 101 415.5 233t426 298t203.5 284q0 57 -42.5 106.5t-154.5 49.5
q-150 0 -329.5 -60t-526.5 -210q-199 -83 -476 -245.5t-585 -430.5q-20 102 -20 184q0 310 201.5 557.5t507 413t625.5 251t546 85.5q223 0 361.5 -78.5t195.5 -197t57 -249.5q0 -200 -154 -386t-378 -337.5t-516 -308.5zM2052 385l-345.5 -234t-426.5 -322t-380 -354
t-155 -286q0 -21 30 -35t61 -14q177 0 438.5 205.5t483.5 501.5t294 538z" />
    <glyph glyph-name="bracketleft" unicode="[" horiz-adv-x="2408" 
d="M1696 2879q61 78 115 112t181.5 49.5t383.5 15.5q122 0 282 -11t160 -43q0 -81 -29.5 -140t-156.5 -104.5t-387 -45.5q-20 0 -64 2t-67 2q-128 -199 -217 -357.5t-162.5 -311t-163 -363l-141.5 -328.5l-168 -385.5l-181 -424.5t-155 -411t-156 -483q355 16 651 16
q119 0 119 -20q0 -43 -77.5 -145.5t-127.5 -125.5q-49 -20 -287 -36.5t-364 -16.5q-114 67 -227 168.5t-113 167.5q0 71 18 171t75.5 282.5t184.5 512t324 791.5q266 621 426.5 939t323.5 523z" />
    <glyph glyph-name="backslash" unicode="\" horiz-adv-x="2003" 
d="M1823 -840l-1794 3687q-29 57 -29 69q0 1 8 25l103 180q9 17 24 21h17q17 -4 41 -50l1781 -3686q2 -4 11.5 -20.5t13.5 -25t4 -19.5q0 -25 -4 -33l-94 -168q-12 -25 -45 -25q-14 0 -37 45z" />
    <glyph glyph-name="bracketright" unicode="]" horiz-adv-x="2408" 
d="M1122 -504q-68 -80 -130.5 -114.5t-177.5 -46t-372 -11.5q-442 0 -442 49q0 173 118 232t320 63q108 0 262 -8q126 194 220 361.5t160.5 304.5t139 303l169.5 391l179.5 411l165 392.5t154 407.5t160.5 493q-177 -9 -385.5 -12t-265.5 -5q-123 0 -123 21q0 63 86 169
t201 122q52 6 285.5 21.5t287.5 15.5q118 -76 229 -176t111 -164q0 -91 -157.5 -538.5t-393 -1026.5t-455.5 -1042t-346 -613z" />
    <glyph glyph-name="asciicircum" unicode="^" horiz-adv-x="2449" 
d="M1253 2966l910 -1205h-336l-574 750l-573 -750h-336z" />
    <glyph glyph-name="underscore" unicode="_" horiz-adv-x="3596" 
d="M0 -1147v279h3596v-279h-3596z" />
    <glyph glyph-name="grave" unicode="`" horiz-adv-x="1069" 
d="M1069 1880l-184 -41q-105 77 -177 105.5t-225 74.5q-14 51 -24 156v90q11 74 90 74q116 0 288 -169.5t232 -289.5z" />
    <glyph glyph-name="a" unicode="a" horiz-adv-x="1892" 
d="M1503 1327l39.5 -75.5t35 -78t11.5 -63.5q0 -34 -151 -279q-97 -150 -132.5 -217t-35.5 -139q0 -83 46 -121.5t101 -38.5q45 0 91.5 19.5t99.5 52.5l116 72q36 23 75 52t48.5 35.5t24.5 6.5q20 0 20 -25q0 -35 -254 -282q-152 -147 -271.5 -235.5t-244.5 -88.5
q-84 0 -152.5 57.5t-68.5 159.5q0 171 94 365q32 52 74 155q-644 -659 -831 -659q-106 0 -172 170t-66 326q0 224 186 425.5t379 331.5q183 126 440.5 245.5t411.5 119.5q81 0 141 -47.5t60 -100.5q0 -43 -70 -102q-29 -21 -45 -41zM233 463q10 -92 54 -115h57
q174 45 447 266q118 99 267.5 255.5t149.5 232.5q0 53 -86 53q-184 0 -394.5 -109.5t-352.5 -272.5t-142 -310z" />
    <glyph glyph-name="b" unicode="b" horiz-adv-x="1544" 
d="M1626 623v-172q-165 -111 -315 -111q-108 0 -217 61l-234 -258.5t-220.5 -181.5t-254.5 -88q-133 0 -230.5 123t-97.5 410q0 789 734 1597q202 222 535.5 516.5t455.5 294.5q42 0 74 -48t32 -104q0 -92 -102 -282t-274 -430t-387.5 -498t-440.5 -489q-156 -161 -266 -230
q-17 -122 -17 -348q0 -63 34 -123.5t114 -60.5q83 0 173 84t130 194q-53 64 -53 160q0 120 104 265t244 249t225 104q70 0 70 -188q0 -49 -16.5 -92.5t-49 -101.5t-49.5 -93q-72 -143 -127 -213q76 -37 160 -37q106 0 266 91zM479 1004q339 315 738 835q352 482 352 574
q0 15 -13 30t-28 15q-47 0 -112.5 -57.5t-162.5 -159.5q-222 -229 -448 -539.5t-326 -697.5z" />
    <glyph glyph-name="c" unicode="c" horiz-adv-x="1389" 
d="M0 508q0 137 103 316.5t270 344.5t366 270t379 105q164 0 164 -123q0 -76 -78.5 -214.5t-176.5 -250.5t-142 -112q-27 0 -58 69q-14 60 -53 74h-53q-73 -17 -187 -110t-199 -211t-85 -211q0 -98 86 -172t258 -74q129 0 230 43.5t220 116.5q127 80 205.5 142t102.5 62
q37 0 37 -41q0 -75 -357 -380q-157 -132 -291.5 -211.5t-273.5 -79.5q-166 0 -271 117t-150.5 268.5t-45.5 261.5z" />
    <glyph glyph-name="d" unicode="d" horiz-adv-x="1876" 
d="M1077 614q-568 -614 -790 -614q-98 0 -192.5 152.5t-94.5 298.5q0 132 27.5 254t114 249t247.5 238q133 95 412 209.5t403 114.5q50 0 94 -45.5t62 -110.5q138 295 293.5 565.5t284 438t188.5 167.5q41 0 96 -26.5t55 -71.5q0 -54 -98.5 -231.5t-226.5 -375t-191 -278.5
q-158 -202 -296 -521.5t-138 -575.5q0 -189 131 -189q152 0 357 205q126 123 167 123q33 0 33 -66q0 -44 -158 -201.5t-338 -287t-266 -129.5q-249 0 -249 315q0 207 73 393zM1225 1147q-11 16 -78 16q-106 0 -294 -89.5t-321 -184.5q-129 -93 -170 -194.5t-51 -219.5
q0 -67 17.5 -99t68.5 -32q147 0 586 426q246 235 246 348q0 21 -4 29z" />
    <glyph glyph-name="e" unicode="e" horiz-adv-x="1307" 
d="M365 565q0 -323 241 -323q149 0 414 172q113 73 178.5 124.5t83.5 51.5q25 0 25 -62q0 -27 -140 -176q-163 -169 -371.5 -324t-402.5 -155q-165 0 -279 124.5t-114 346.5q0 177 95 388t251.5 395t344.5 298.5t366 114.5q133 0 187 -62.5t54 -138.5q0 -130 -143.5 -299.5
t-362.5 -304t-427 -170.5zM365 717q107 29 250 119t243 196.5t100 184.5q0 106 -86 106q-139 0 -295 -202.5t-212 -403.5z" />
    <glyph glyph-name="f" unicode="f" horiz-adv-x="1188" 
d="M184 823l-45 -69q-8 16 -8 24q0 27 53 45q249 180 452.5 439.5t425 615.5t313 482t181.5 126q91 0 91 -164q0 -212 -122 -389t-358 -442l-213 -234l-401 -610q166 -133 209 -352q168 34 226 74.5t110.5 105t118.5 86.5h32q25 -8 25 -24q0 -48 -75 -134t-190.5 -168
t-230.5 -124q-4 -202 -107.5 -426t-263.5 -419.5t-328.5 -314t-291.5 -118.5q-70 0 -129 108.5t-59 259.5q0 270 135 578t311 561q-90 109 -90 242q0 96 66 168.5t163 72.5zM434 508l-119 -168q68 -48 205 -53q-1 7 -5.5 20t-10.5 33q-17 85 -70 168zM524 78q-192 4 -319 86
q-95 -111 -158.5 -302t-75.5 -354v-139q13 -188 62 -188q51 0 174 135t220 339.5t97 422.5z" />
    <glyph glyph-name="g" unicode="g" horiz-adv-x="1876" 
d="M954 -217l-94 -172l-274.5 -488t-185.5 -255.5t-191 -108.5q-88 0 -118 111.5t-30 228.5q0 263 79 418t188.5 224t265.5 124q93 35 184 74q151 282 328 577l-362 -303.5t-200.5 -139t-178.5 -61.5q-67 0 -153.5 95t-149 225.5t-62.5 228.5q0 178 257.5 409t614.5 396.5
t623 165.5q97 0 165.5 -93t68.5 -317q0 -73 -41 -147l-615 -967l701 324q24 12 57 12q45 0 45 -33q0 -44 -41 -65zM332 360q16 -16 49 -16q72 0 342 171.5t498.5 366.5t228.5 285q0 11 -12 24t-37 13q-93 0 -348 -112.5t-385 -198.5q-178 -120 -267.5 -220t-89.5 -251
q0 -46 21 -62zM680 -287q-236 -74 -359.5 -250t-123.5 -405q57 7 102 38t80 80t67 106.5l123 225.5z" />
    <glyph glyph-name="h" unicode="h" horiz-adv-x="1667" 
d="M258 721q-8 -74 -8 -90q0 -97 27 -134.5t51 -37.5q34 0 66.5 31t109 125.5t163.5 186.5t214 197q108 89 299 216.5t266 127.5q37 0 84 -71.5t47 -120.5q0 -29 -97.5 -131.5t-168.5 -196.5q-189 -248 -189 -364q0 -168 119 -168q130 0 336 188q72 66 98 66
q14 0 27.5 -10.5t13.5 -22.5q0 -65 -323 -332q-198 -163 -277.5 -216.5t-181.5 -53.5q-86 0 -139.5 64.5t-53.5 144.5q0 172 181 463q26 47 90 131q73 97 73 139q0 16 -49 16q-111 0 -606 -557q-178 -199 -235 -253t-113 -54q-73 0 -82 160v106q5 249 12.5 331t63.5 223
t203 368t409 573q238 310 548.5 659t430.5 357q93 -28 115 -90v-41q-24 -89 -283 -455q-107 -155 -352.5 -465.5t-494 -594.5t-394.5 -414z" />
    <glyph glyph-name="i" unicode="i" horiz-adv-x="995" 
d="M1044 1544q-24 -8 -81 -8q-47 0 -93.5 42t-46.5 130q0 120 94 224t226 104q139 0 139 -172q0 -106 -71 -198.5t-167 -121.5zM0 410q0 132 39 253t159 277.5t355 366.5q108 94 238 94q94 0 94 -144q0 -147 -146.5 -305t-402.5 -276q-21 -58 -21 -168q0 -266 246 -266
q156 0 426 192q51 29 66 29q41 0 41 -37q0 -52 -234 -262q-138 -127 -259 -198.5t-261 -71.5q-163 0 -251.5 148.5t-88.5 367.5z" />
    <glyph glyph-name="j" unicode="j" horiz-adv-x="1245" 
d="M1208 1548q-36 -12 -82 -12q-59 0 -105 39t-46 121q0 133 90.5 244.5t196.5 111.5q54 0 104.5 -36t50.5 -128q0 -111 -58 -208.5t-151 -131.5zM729 -20l397 327q89 74 99 74q45 0 45 -21q0 -17 -24.5 -55.5t-37.5 -50.5l-635 -664l-176 -430q-77 -148 -223.5 -340
t-214.5 -192q-27 0 -50.5 40t-23.5 83q0 487 553 983l295 864q45 134 45 233q0 33 -49 33q-66 0 -258 -110l-463 -267q-16 62 -16 181q0 115 37 209q97 71 305 182.5t400.5 191.5t269.5 80q122 0 122 -143q0 -42 -41 -164z" />
    <glyph glyph-name="k" unicode="k" horiz-adv-x="1831" 
d="M918 414q46 -96 128 -158.5t171 -62.5q45 0 81 17t67.5 42l72.5 59q299 230 327 230q29 0 29 -58q0 -27 -21 -57t-83.5 -92t-79.5 -80q-123 -128 -292 -254.5t-302 -126.5q-152 0 -245 107t-193 299q-60 102 -99 102q-46 0 -69 -33q-79 -83 -160 -185.5t-112 -132.5
t-68 -30q-39 0 -54.5 57.5t-15.5 208.5q0 302 65.5 516.5t183.5 386t378 486.5q110 130 332 369t444 432.5t326 193.5q48 0 75 -20t27 -50q0 -56 -135 -233q-231 -301 -423 -516.5l-428.5 -460t-353.5 -376t-241 -310.5q-21 -51 -21 -115q0 -77 37 -77q63 0 217 188
q117 142 305.5 319t383 309.5t331.5 153.5h53q61 -14 110.5 -131.5t49.5 -220.5q0 -35 -50 -114t-225.5 -227t-522.5 -355zM664 647q77 -41 163 -143q124 79 324.5 260t200.5 252q0 19 -15.5 36t-46.5 17q-100 0 -305 -153t-321 -269z" />
    <glyph glyph-name="l" unicode="l" horiz-adv-x="1122" 
d="M463 831q-25 -102 -25 -294q0 -181 68.5 -254.5t144.5 -73.5q97 0 410 229q78 66 106 66q41 0 41 -41q0 -39 -131 -152q-198 -163 -325 -254t-207.5 -129.5t-138.5 -38.5q-100 0 -195.5 144.5t-95.5 511.5q0 327 166.5 619t431.5 601q190 223 365 385t299 243t179 81
q29 0 29 -66q0 -13 -2 -44t-2 -46q0 -82 -28 -175t-102.5 -232.5t-217.5 -362.5q-285 -419 -770 -717zM504 1032q257 153 478.5 415.5t274.5 477.5q13 42 13 94q0 33 -13 33q-77 0 -200 -143q-189 -224 -315.5 -408.5t-237.5 -468.5z" />
    <glyph glyph-name="m" unicode="m" horiz-adv-x="2662" 
d="M319 451q160 167 287 279.5l316 268.5q469 394 639 394q62 0 80 -39t18 -117q0 -34 -33 -119q-29 -64 -61 -114q-238 -355 -238 -365q0 -33 25 -33q3 0 217.5 173.5t228.5 187.5q84 80 294.5 214t283.5 134q43 0 87 -100.5t44 -157.5q0 -38 -23 -60t-109 -94.5
t-139 -140.5q-49 -62 -102 -162t-53 -166q0 -123 123 -123q137 0 360 205q49 37 70 37q20 0 28 -16v-37q-21 -80 -189 -227.5t-357 -265.5t-261 -118t-132 44.5t-60 123.5q0 168 98 365q50 100 99 176q53 85 53 123q0 20 -21 20q-43 0 -198 -117t-244 -202l-197 -196
t-194.5 -182t-112.5 -44q-51 0 -85 37t-34 102q0 102 119 291l94 143.5t72.5 112.5t17.5 55q0 66 -90 66q-88 0 -198.5 -86t-284.5 -270q-84 -88 -182.5 -228.5t-132 -181.5t-78.5 -41q-164 0 -164 385q0 122 12 198.5t42 133.5t124.5 179.5l104.5 135.5q197 258 348 258
q143 0 143 -53q0 -31 -19 -64t-48.5 -68.5l-92.5 -109.5q-33 -39 -129.5 -139t-145 -164t-48.5 -106q0 -70 28 -135z" />
    <glyph glyph-name="n" unicode="n" horiz-adv-x="1815" 
d="M319 446q85 94 309 298t347 300q251 199 378.5 274t207.5 75q102 0 102 -156q0 -87 -44 -169t-106.5 -155.5l-128.5 -150.5q-155 -199 -155 -328q0 -123 127 -123t311 168q92 74 115 74q33 0 33 -53q0 -33 -74 -107q-96 -99 -223.5 -210t-271.5 -202.5t-242 -91.5
q-74 0 -135.5 51.5t-61.5 174.5q0 149 102 307l14 19t117 149q90 115 90 151q0 23 -19 44.5t-67 21.5q-91 0 -203.5 -87t-283.5 -269q-84 -88 -182.5 -228.5t-132 -181.5t-78.5 -41q-142 0 -164 385v111q11 121 62.5 211.5t179.5 263.5q148 199 215 259t174 60
q147 0 147 -82q0 -47 -69 -110q-58 -58 -238 -270.5t-180 -241.5q0 -82 28 -140z" />
    <glyph glyph-name="o" unicode="o" horiz-adv-x="1479" 
d="M1217 1278q131 -40 131 -225q0 -65 -21 -144q-43 -182 -151 -360q-13 -17 -13 -33q0 -30 29 -50t65 -20q48 0 107 37t70 37q45 0 45 -28q0 -34 -68.5 -92.5t-183.5 -104t-244 -45.5q-245 -299 -537 -299q-144 0 -245.5 92.5t-151 230.5t-49.5 267q0 217 181.5 440
t427 370.5t403.5 147.5q80 0 152.5 -42t72.5 -77q0 -29 -8 -61q-5 -8 -12 -41zM844 373q-45 89 -45 184q0 104 45 213q48 130 87.5 213.5t39.5 97.5q0 16 -20.5 28.5t-41.5 12.5q-55 0 -177.5 -86.5t-199.5 -163.5q-127 -131 -188 -239t-61 -256q0 -176 204 -176
q160 0 357 172z" />
    <glyph glyph-name="p" unicode="p" horiz-adv-x="1909" 
d="M700 1126l-634 -557q-62 -57 -86 -57q-28 0 -33 16v33q7 21 110.5 127.5l487.5 482.5q227 221 406.5 466t222 291t161.5 46q39 0 85 -20.5t46 -44.5q0 -8 -8 -13q-390 -512 -569 -815l-123 -204q83 85 238.5 206t310 211t237.5 90t142 -54t59 -171q0 -147 -112 -314.5
t-267.5 -312.5t-304.5 -249q111 -50 262 -50q171 0 298.5 83.5t189.5 162.5q38 41 53 41q37 0 37 -24q0 -62 -172 -230q-127 -120 -299.5 -207.5t-349 -130.5t-318.5 -43q-220 0 -442 160q-130 -281 -212 -473.5l-137 -318.5t-87 -162.5t-80 -36.5q-47 0 -73 54t-26 126
q0 56 123 533q144 263 385 475zM500 356q92 41 176 41q86 0 213 -61q157 114 286 275t152 249v62q-24 65 -102 65q-117 0 -327 -192t-398 -439z" />
    <glyph glyph-name="q" unicode="q" horiz-adv-x="1864" 
d="M1180 307q44 -45 159 -45q71 0 169.5 65.5t166.5 143.5q33 45 49 45q21 0 25 -20v-33q-10 -68 -75.5 -145.5t-152.5 -141.5t-165 -94q12 -37 12 -82q0 -200 -208.5 -490t-469 -510.5t-379.5 -220.5q-135 0 -135 189q0 96 23.5 182t85.5 198.5t188.5 293l345.5 473.5
q154 197 271 401q-552 -504 -734 -504q-77 0 -159.5 98.5t-139.5 232.5t-57 218q0 181 164.5 355.5t413.5 313t503.5 220.5t405.5 82q98 0 165.5 -93t67.5 -317q0 -101 -37 -147zM324 377q18 -12 49 -12q56 0 115 27.5t192 107.5q103 63 288.5 205.5t329.5 280.5t144 198
q0 41 -49 41q-110 0 -375.5 -125.5t-456.5 -259.5q-165 -116 -209.5 -202.5t-44.5 -195.5q0 -53 17 -65zM565 -844q93 34 224.5 159.5t226 270t94.5 238.5q0 219 -74 287q-52 -80 -161.5 -228.5t-170.5 -247.5t-100 -219.5t-39 -259.5z" />
    <glyph glyph-name="r" unicode="r" horiz-adv-x="1393" 
d="M57 696q0 43 49 131q95 164 95 238q0 13 -29 40t-29 58q0 77 79.5 192t187 201t180.5 86q41 0 41 -45q0 -16 -6.5 -31t-6.5 -30q0 -74 91 -74q46 0 168 21q296 45 286 45q51 0 78 -45q45 -67 45 -135q0 -92 -123 -213q-133 -124 -261 -318t-128 -305q0 -75 45 -115.5
t115 -40.5q115 0 348 197q43 33 70 33q41 0 41 -41q0 -58 -353 -357q-262 -196 -499 -196q-93 0 -151 71t-58 191q0 125 72.5 243t218.5 294l122.5 137.5t81 99.5t29.5 70q0 65 -151 65q-164 0 -232 -17t-89.5 -47.5t-59.5 -123.5q-60 -140 -136.5 -213.5t-117.5 -73.5
q-13 0 -13 8z" />
    <glyph glyph-name="s" unicode="s" horiz-adv-x="1503" 
d="M836 1237l-402 -356l-102 131l459 418q0 6 -2.5 15.5t-2.5 16.5v29q0 33 53.5 114t123 147.5t114.5 66.5q81 0 149 -232t68 -366q0 -110 -49.5 -250.5t-154.5 -293.5t-263 -292q48 -20 91 -20q146 0 462 237q68 53 95 53q28 0 28 -20q0 -54 -170.5 -213.5t-378.5 -290.5
t-331 -131q-91 0 -243 97.5t-266 240t-114 268.5q0 72 43 132.5t121 60.5q109 0 180.5 -37.5t118.5 -163.5q57 -147 115 -147q52 0 124 43t127.5 139.5t55.5 243.5q0 225 -49 360z" />
    <glyph glyph-name="t" unicode="t" horiz-adv-x="1126" 
d="M864 1339q-189 -268 -303.5 -471.5t-114.5 -367.5q0 -213 193 -213q112 0 426 233q81 58 106 58q33 0 33 -46q0 -64 -319 -311q-229 -176 -380 -251.5t-272 -75.5q-89 0 -161 85.5t-72 274.5q0 287 598 1094l-389 4q-33 0 -33 28q0 47 63 144t109 147q38 44 87.5 61.5
t130.5 21t278 3.5q118 171 207 268.5t166.5 136t175.5 38.5q40 0 87.5 -10.5t47.5 -26.5q0 -55 -131 -176q-124 -116 -250 -250q59 -1 96 -2.5t68.5 -3t39.5 -2t25 -0.5h66h16q49 -8 49 -41q0 -23 -61 -91l-168 -180q-42 -46 -67.5 -66t-71.5 -20q-135 0 -275 8z" />
    <glyph glyph-name="u" unicode="u" horiz-adv-x="1769" 
d="M897 532q-104 -132 -213 -248.5t-229 -206t-205 -89.5q-105 0 -177.5 170t-72.5 395q0 139 120 360t286 387t290 166q67 0 119.5 -28t52.5 -62q0 -55 -77.5 -160.5t-189.5 -209t-208 -154.5q-73 -41 -98 -57q-21 -59 -21 -136q5 -89 37 -146.5t86 -57.5q51 0 172 77
q119 74 250 205l729 721q45 45 70 45q98 0 102 -225v-37q0 -28 -16 -49l-365 -397q-135 -148 -135 -308q0 -168 107 -168q51 0 143.5 43t163.5 93q13 6 52 31l67 42q32 0 32 -32q0 -30 -153 -181t-332 -278t-280 -127q-70 0 -119 57t-49 172q0 153 61 393z" />
    <glyph glyph-name="v" unicode="v" horiz-adv-x="1597" 
d="M319 758q-45 -104 -45 -262q0 -68 35 -124.5t72 -56.5q82 0 299 168q162 132 225 205q0 155 80.5 307t304.5 398q51 57 123 57q44 0 89.5 -37.5t45.5 -85.5q0 -33 -49 -147q-102 -262 -278 -447q0 -139 135 -147h24q65 5 144 49q18 12 32 12q16 0 28.5 -15t12.5 -34
q0 -37 -90 -102q-126 -99 -221 -99q-159 0 -250 135q-95 -126 -193.5 -239.5t-212 -203t-204.5 -89.5q-79 0 -181 89t-173.5 237.5t-71.5 312.5q0 134 65 262t230 332q131 161 205 201.5t139 40.5q147 0 147 -99q0 -36 -57.5 -139.5t-85.5 -142.5q-88 -127 -152.5 -199
t-171.5 -137z" />
    <glyph glyph-name="w" unicode="w" horiz-adv-x="2355" 
d="M1663 610q-8 50 -8 78q0 98 49.5 185t138.5 196q119 154 188 226.5t140 72.5q139 0 139 -135q0 -39 -29 -139q-105 -309 -258 -484q43 -123 144 -123q67 0 84.5 10t35.5 31t48 21q20 0 20 -21q0 -65 -112 -169.5t-228 -104.5q-150 0 -237 139q-433 -487 -635 -487
q-79 0 -154.5 85.5t-75.5 172.5q0 182 54 385q-168 -195 -353.5 -372t-273.5 -177q-67 0 -146.5 54t-136.5 179t-57 320q0 168 32 269.5t77 159.5t170 194q370 405 532 405q64 0 120 -34.5t56 -80.5q0 -77 -127 -254q-89 -121 -248 -279.5t-252 -199.5q-61 -91 -61 -250
q0 -71 33.5 -119.5t73.5 -48.5q31 0 139 119l852 955q46 53 119 53q36 0 89.5 -22t61.5 -52v-25q-1 -4 -115 -176q-106 -160 -191 -322.5t-112 -336.5v-135q24 -99 78 -99q107 0 336 336z" />
    <glyph glyph-name="x" unicode="x" horiz-adv-x="1606" 
d="M1036 1085l422 312q83 53 115 53q33 0 33 -33q0 -70 -103 -155l-475 -431l-33 -421q0 -140 78 -140q73 0 221 127q67 58 111 58q41 0 41 -45q0 -15 -15.5 -34t-61.5 -60.5l-103 -94.5q-435 -397 -553 -397q-32 0 -63.5 34t-31.5 101q0 53 21.5 197t36.5 327
q-98 -133 -180.5 -205t-187 -129.5t-124.5 -70.5q-24 -16 -84 -47t-71 -31q-29 0 -29 53q0 30 20 86q26 83 92 168.5t126 102.5l159 24l279 275q9 60 16 196q0 271 -110 271q-49 0 -144 -70l-245 -180q-26 -21 -50 -21q-13 0 -37 21v41q5 16 20 36t54 58.5l103 101.5
q397 398 540 398q85 0 151 -77t66 -284q0 -74 -4 -115z" />
    <glyph glyph-name="y" unicode="y" horiz-adv-x="1765" 
d="M377 754q-55 -96 -72.5 -139t-17.5 -99q0 -47 21 -76.5t44 -29.5q21 0 146 81t170 115q170 125 329.5 265.5t299.5 280.5l268 269q30 37 61 37q37 0 61.5 -50.5t24.5 -104.5q0 -88 -78 -213l-594 -943q-66 -104 -69 -118v-29q12 -12 16 -12q33 0 82 45l561 483
q57 50 78 57h37q20 -7 20 -28q0 -23 -32 -58l-721 -753q-119 -125 -308 -350t-258 -300t-110 -75q-57 0 -57 274q0 29 13 56.5t56.5 99l81.5 139.5l385 701q21 42 21 65q0 25 -17 25q-12 0 -28 -17q-92 -80 -290 -216t-263 -136q-67 0 -152.5 190.5t-85.5 276.5
q0 292 233 598q43 58 156 173.5t231.5 206.5t182.5 91q60 0 112 -48t52 -91q0 -57 -102 -199t-240 -273t-248 -171z" />
    <glyph glyph-name="z" unicode="z" horiz-adv-x="1479" 
d="M1016 1020q-122 -64 -333 -110t-339 -46q-119 0 -151.5 57.5t-32.5 139.5q0 53 78 156t182 184.5t174 81.5q49 0 49 -62q0 -6 -2 -14t-2 -14q0 -78 115 -78q177 0 243.5 11.5t114 28.5t105.5 17q33 0 53 -61l53 -185q8 -49 8 -90q0 -12 -22.5 -47t-96 -108.5t-241 -208.5
t-410.5 -307q73 28 184 28q50 0 107 -49q4 -3 40.5 -46t68 -62t83.5 -19q102 0 312 209q61 61 86 61q37 0 37 -45q0 -31 -209 -270q-165 -184 -248 -256t-141 -72q-68 0 -160.5 28t-155.5 67q-155 98 -237 98q-70 0 -209 -90q-59 -42 -119 -70q23 160 136 321t396 363
q163 117 272 215t212 244z" />
    <glyph glyph-name="braceleft" unicode="{" horiz-adv-x="2347" 
d="M889 1196q110 -155 110 -365q0 -46 -6 -154t-6 -173q0 -52 -23 -126t-71.5 -207.5t-73 -221.5t-24.5 -158q0 -144 102 -295q17 -22 49.5 -84.5t32.5 -87.5q0 -8 -12 -8q-35 0 -136.5 50.5t-195.5 113.5q-92 68 -143.5 116t-99.5 146.5t-48 237.5q0 231 127 516
q20 46 93 179.5t104.5 205.5t31.5 139q0 98 -13 131.5t-45 92t-32 112.5q0 12 62 12q247 0 303 414q70 495 220.5 765t314.5 361t333 103h115q274 -34 274 -91q0 -14 -70.5 -47t-130.5 -64t-141 -99t-145 -166q-99 -152 -160 -353l-129.5 -418t-195.5 -358t-371 -219z" />
    <glyph glyph-name="bar" unicode="|" horiz-adv-x="1630" 
d="M942 -1147h-254v4313h254v-4313z" />
    <glyph glyph-name="braceright" unicode="}" horiz-adv-x="2286" 
d="M1339 831q-155 225 -155 463q0 127 37 263t110 315q79 190 116 304t48 265v127q-12 113 -111 332q-36 78 -36 127q0 12 12 12q51 0 213.5 -108t220.5 -178q148 -184 148 -496q0 -142 -30 -248.5t-102 -279.5q-89 -216 -180 -377q-119 -219 -119 -291q0 -109 86 -184
q62 -50 62 -91q0 -28 -92 -63.5t-117 -54.5q-88 -66 -127 -258q-82 -378 -171.5 -604t-187.5 -328t-204.5 -128t-276.5 -26q-139 0 -253.5 29.5t-114.5 56.5q0 18 81 42.5t169.5 74t190.5 179.5t181 368q87 260 136 374.5t161 221.5t305 161z" />
    <glyph glyph-name="asciitilde" unicode="~" horiz-adv-x="2859" 
d="M438 1114l-151 115q114 195 304.5 320.5t432.5 125.5q122 0 227.5 -33.5t257.5 -105t211 -94.5q164 -66 271 -66q106 0 208.5 82t163.5 197l152 -115q-96 -181 -259 -320t-372 -139q-221 0 -500 136q-207 95 -307.5 133.5t-199.5 38.5q-108 0 -229.5 -69t-209.5 -206z
" />
    <glyph glyph-name="quoteleft" unicode="&#x2018;" horiz-adv-x="967" 
d="M991 2408q0 -71 -53 -168.5t-129.5 -167t-140.5 -69.5q-62 0 -80.5 43.5t-18.5 136.5q0 58 83 229t184.5 315t158.5 144q29 0 29 -24q0 -11 -57.5 -86.5t-57.5 -151.5q0 -48 41 -104t41 -97z" />
    <glyph glyph-name="quoteright" unicode="&#x2019;" horiz-adv-x="967" 
d="M598 2466q0 81 56.5 176t134.5 162t133 67q102 0 102 -127q0 -191 -258 -565q-123 -176 -172 -176q-29 0 -29 25q0 32 33 65q82 95 82 176q0 53 -38 103t-44 94z" />
    <glyph glyph-name="quotedblleft" unicode="&#x201c;" horiz-adv-x="1499" 
d="M1520 2404q0 -115 -115 -270q-94 -135 -209 -135q-98 0 -98 180q0 49 85.5 223t188 321.5t156.5 147.5q28 0 28 -24q0 -23 -28 -58q-50 -67 -68 -99t-18 -85q0 -35 7 -50.5t29.5 -45.5t32 -50.5t9.5 -54.5zM991 2404q0 -116 -114 -270q-94 -135 -209 -135q-99 0 -99 180
q0 65 88 237.5t190.5 313.5t151.5 141q29 0 29 -24q0 -18 -34 -57.5t-57.5 -81t-23.5 -103.5q0 -57 17 -86l28.5 -34t23 -37t9.5 -44z" />
    <glyph glyph-name="quotedblright" unicode="&#x201d;" horiz-adv-x="1499" 
d="M606 2466q0 75 53.5 172t129.5 165t141 68q63 0 80.5 -43t17.5 -137q0 -155 -258 -512q-79 -105 -110 -140.5t-62 -35.5q-29 0 -29 25q0 12 25 45q90 126 90 196q0 55 -39 109t-39 88zM1135 2466q0 83 61 188q69 107 122.5 162t139.5 55q63 0 80.5 -43t17.5 -137
q0 -155 -258 -512q-128 -176 -172 -176q-28 0 -28 25q0 13 24 45l37 57t37 70t16 69q0 52 -9.5 67t-29 20t-29 26t-9.5 84z" />
    <glyph glyph-name="bullet" unicode="&#x2022;" 
d="M287 1290q0 189 133 324t325 135q190 0 324.5 -133t134.5 -326t-134.5 -326t-324.5 -133q-189 0 -323.5 133t-134.5 326z" />
    <glyph glyph-name="emdash" unicode="&#x2013;" horiz-adv-x="3326" 
d="M287 1147v229h2695v-229h-2695z" />
    <glyph glyph-name="endash" unicode="&#x2014;" horiz-adv-x="4301" 
d="M3801 844h-3449q-65 0 -65 37q0 17 12 37l107 172q24 32 94 32h3449q65 0 65 -41q0 -14 -12 -32l-111 -177q-17 -28 -90 -28z" />
    <glyph glyph-name="exclamdown" unicode="&#xa1;" horiz-adv-x="3043" 
d="M385 1565q-8 53 -8 147q0 218 66.5 338t117.5 158q74 59 276 174.5t471 241t520.5 207t428.5 81.5q95 0 133.5 -39t38.5 -133q0 -96 -39 -190.5t-125 -239.5q-179 -300 -325.5 -508.5l-302.5 -415t-221 -307t-101 -207.5q-17 -51 -17 -73q0 -32 16.5 -49t82.5 -17
q247 0 1200 991q148 162 528 537q54 -9 119.5 -81.5t65.5 -135.5q0 -37 -29 -62q-324 -448 -517.5 -747t-354 -625t-336.5 -790q171 154 392.5 293t373.5 166q16 0 51 4t47 4q33 0 33 -8q0 -21 -33 -51.5t-203.5 -171.5l-333.5 -285q-289 -254 -445.5 -433.5t-274 -334
t-152.5 -154.5q-52 0 -111 49t-102 144q24 151 85 321t199.5 437.5t378.5 662.5q373 618 373 688q-26 0 -655 -619q-162 -155 -420 -349.5t-367 -194.5q-31 0 -124 92t-93 121q0 125 148.5 395.5t341.5 555.5t366 515q113 148 233 348.5t120 282.5q0 29 -37 29
q-98 0 -401 -153t-602.5 -327zM2761 3019q326 377 389 377q28 0 28 -62q0 -2 -2 -8t-2 -8q-3 -14 -8.5 -34.5t-7.5 -31.5v-114q39 -123 229 -123q250 0 598 225q49 33 74 33t25 -21q0 -87 -205 -239.5t-472.5 -269.5t-440.5 -117q-104 0 -171 71.5t-67 177.5q0 67 33 144z
" />
    <glyph glyph-name="cent" unicode="&#xa2;" horiz-adv-x="1765" 
d="M377 754q-55 -96 -72.5 -139t-17.5 -99q0 -47 21 -76.5t44 -29.5q21 0 146 81t170 115q170 125 329.5 265.5t299.5 280.5l268 269q30 37 61 37q37 0 61.5 -50.5t24.5 -104.5q0 -88 -78 -213l-594 -943q-66 -104 -69 -118v-29q12 -12 16 -12q33 0 82 45l561 483
q57 50 78 57h37q20 -7 20 -28q0 -23 -32 -58l-721 -753q-119 -125 -308 -350t-258 -300t-110 -75q-57 0 -57 274q0 29 13 56.5t56.5 99l81.5 139.5l385 701q21 42 21 65q0 25 -17 25q-12 0 -28 -17q-92 -80 -290 -216t-263 -136q-67 0 -152.5 190.5t-85.5 276.5
q0 292 233 598q43 58 156 173.5t231.5 206.5t182.5 91q60 0 112 -48t52 -91q0 -57 -102 -199t-240 -273t-248 -171zM1937 2028q13 -13 13 -50q0 -13 -10.5 -25t-51 -43.5l-53.5 -41.5q-109 -92 -259.5 -195.5t-236.5 -103.5q-210 0 -229 323v50q14 69 117.5 134.5
t173.5 65.5q41 0 41 -28q0 -21 -17 -74q-8 -42 -8 -74q0 -41 35 -67.5t80 -26.5q129 0 167 26.5t88 88t114 61.5q23 0 36 -20z" />
    <glyph glyph-name="sterling" unicode="&#xa3;" horiz-adv-x="1499" 
d="M258 115q0 74 52.5 171t130 165.5t141.5 68.5q102 0 102 -131q0 -186 -262 -561q-79 -105 -110 -140.5t-62 -35.5q-29 0 -29 24q0 16 25 45q90 131 90 197q0 56 -39 109t-39 88zM786 115q0 81 62 188q65 105 120.5 161t141.5 56q102 0 102 -139q0 -123 -82 -268
t-180 -285q-79 -105 -110 -140.5t-62 -35.5q-28 0 -28 24q0 15 24 45q3 5 31 49t43.5 80.5t15.5 71.5q0 53 -39 105t-39 88z" />
    <glyph glyph-name="currency" unicode="&#xa4;" horiz-adv-x="3662" 
d="M3129 2957l246 -245l-418 -414q242 -309 242 -721t-242 -721l418 -414l-246 -245l-413 417q-310 -241 -721 -241t-721 241l-414 -417l-246 245l418 414q-241 308 -241 721t241 721l-418 414l246 245l414 -417q310 241 721 241t721 -241zM1081 1577q0 -248 125 -459.5
t337 -335t456 -123.5t455.5 123.5t336.5 335t125 459.5q0 247 -121.5 458t-332.5 335t-463 124t-463 -124t-333 -335t-122 -458z" />
    <glyph glyph-name="yen" unicode="&#xa5;" horiz-adv-x="2896" 
d="M1061 2163l205 -103q-232 -45 -320 -45q-37 0 -112 -2t-113 -2q-291 0 -291 103q0 17 12 49l111 270q53 131 300 230t580 162.5t641 93.5t478 30q116 0 209 -4t205 -4q223 0 367.5 18t255.5 87t147 210l16.5 73t27 72t46.5 31q86 0 86 -139q0 -151 -33.5 -348t-166 -375
t-394.5 -178q-66 0 -211.5 17t-431.5 28q-165 -155 -374.5 -443.5t-588.5 -928.5q-287 -476 -487 -864q-70 -138 -114 -200.5t-77 -84.5t-99.5 -27.5t-78.5 -7.5q-258 0 -258 565q0 99 33 219.5t72 214.5t79 173q29 52 60.5 85t71 56t120.5 58l154 67q9 3 34.5 13t50.5 17
t38 7q0 -8 -123 -213q-131 -220 -131 -381q0 -156 94 -311l262.5 471.5l345.5 611t273 444.5t323 467q-331 -8 -716.5 -79.5t-577.5 -202.5z" />
    <glyph glyph-name="brokenbar" unicode="&#xa6;" horiz-adv-x="1630" 
d="M942 -1147h-254v4313h254v-4313z" />
    <glyph glyph-name="section" unicode="&#xa7;" horiz-adv-x="2740" 
d="M983 1921q-111 136 -111 238q0 98 64.5 235t287.5 256t648 119q524 0 524 -189q0 -78 -62 -176.5t-114 -146.5q-82 -82 -336 -94q45 22 98.5 79.5t53.5 92.5q0 123 -254 123q-273 0 -399 -46.5t-126 -113.5q0 -79 304 -270q385 -242 528 -411t143 -327q0 -278 -438 -495
q44 -41 79.5 -109t35.5 -125q0 -88 -68.5 -228t-290.5 -263t-641 -123q-524 0 -524 180q0 67 55 166.5t101 148.5q53 56 122 76t230 39q-148 -109 -148 -172q0 -127 254 -127q291 0 408 50t117 110q0 46 -71 105.5t-219.5 155.5t-242.5 165q-146 105 -230 177t-148 174.5
t-64 229.5q0 277 434 496zM1671 918l85 61t79 72t29 75q0 86 -82.5 164.5t-237.5 188.5q-335 241 -434 319q-197 -133 -197 -205q0 -83 88 -166.5t236 -189.5z" />
    <glyph glyph-name="dieresis" unicode="&#xa8;" horiz-adv-x="2810" 
d="M1761 1364v33q-149 16 -348 28q-222 9 -381 40.5t-284 153.5t-125 368q0 215 243.5 439t665.5 369.5t926 145.5q267 0 395 -34.5t219 -117.5v-319q-17 -32 -45 -54t-88 -50t-203 -89q-159 -68 -262.5 -132.5t-175.5 -104.5q44 164 217 282q-139 58 -307 58
q-321 0 -591 -87.5t-425.5 -219.5t-155.5 -254q0 -230 836 -230q40 0 287 13h208q144 -22 144 -103q0 -136 -88.5 -198t-243.5 -88.5l-344 -57.5q-416 -79 -710 -232t-439 -319t-145 -285q0 -88 191 -130t472 -42q203 0 387 46t352.5 124.5t308.5 165l394 254.5
q-25 -315 -202.5 -533t-436.5 -343t-525 -175.5t-487 -50.5q-219 0 -376.5 20t-277.5 85t-185.5 193t-65.5 341q0 101 76 232.5t237.5 272.5t416.5 268.5t593 214.5q258 67 348 102zM1622 3162q-33 -8 -98 -8q-52 0 -104 48t-52 153q0 162 115.5 277.5t245.5 115.5
q58 0 110.5 -48t52.5 -157q0 -127 -77.5 -236.5t-192.5 -144.5zM2589 3162q-29 -8 -95 -8q-57 0 -108 48t-51 153q0 161 114.5 277t249.5 116q56 0 108 -48t52 -157q0 -125 -78.5 -236t-191.5 -145z" />
    <glyph glyph-name="copyright" unicode="&#xa9;" horiz-adv-x="4227" 
d="M614 1520q0 299 114 587.5t326 518t511.5 364.5t654.5 135q440 0 808.5 -217t583 -587t214.5 -801q0 -439 -218.5 -808t-589.5 -583.5t-798 -214.5q-431 0 -801.5 214.5t-587.5 583t-217 808.5zM848 1520q0 -374 182.5 -697.5t498 -515.5t691.5 -192q367 0 681.5 187.5
t498.5 511.5t184 706q0 385 -184 708.5t-497.5 510t-682.5 186.5q-365 0 -681.5 -187t-503.5 -511t-187 -707zM2945 2478l29 -610l-115 -4q-33 175 -157.5 314.5t-334.5 139.5q-190 0 -313.5 -116t-179 -296.5t-55.5 -377.5q0 -315 109.5 -481.5t244.5 -215.5t260 -49
q325 0 508 320l119 -62q-96 -238 -317 -375t-498 -137q-297 0 -526 138.5t-351.5 367.5t-122.5 490q0 292 140.5 512.5t378.5 337t517 116.5q193 0 390 -86q56 -24 90 -24q39 0 62.5 30.5t27.5 67.5h94z" />
    <glyph glyph-name="ordfeminine" unicode="&#xaa;" horiz-adv-x="2839" 
d="M1040 987q-172 -416 -172 -676q0 -581 475 -581q177 0 374 85.5t380.5 220.5t348.5 290t298 305q99 110 135 110q41 0 41 -45q0 -51 -192 -279.5t-483 -490t-615 -446.5t-594 -185q-166 0 -331 81.5t-275.5 257t-110.5 440.5q0 254 87.5 536t233.5 555t323.5 515
t359.5 434q334 350 697 613t655 263q179 0 302.5 -173t123.5 -372q0 -103 -54 -271.5t-137.5 -292.5t-173.5 -124q-67 0 -150 60t-83 129q0 24 82 192q107 214 143 406q8 40 8 82q0 114 -94 114q-198 0 -700 -471q-129 -121 -273.5 -296t-275.5 -366t-213 -350
q359 117 630 140q30 0 88 2t84 2q95 0 140 -4q108 -10 224 -44t116 -91q0 -70 -75 -191t-134 -121q-15 0 -106.5 22.5t-223.5 39t-334 16.5q-340 0 -549 -41z" />
    <glyph glyph-name="guillemotleft" unicode="&#xab;" horiz-adv-x="2023" 
d="M676 905l-86 -610q-19 -131 -111 -131q-38 0 -57 86l-143 737l749 569q35 25 90 25q33 0 49.5 -20.5t16.5 -40.5q0 -53 -25 -82zM1405 905l-90 -610q-14 -81 -39.5 -106t-71.5 -25q-24 0 -34.5 15t-14 38.5t-4.5 32.5l-147 737l753 569q31 25 86 25q33 0 49.5 -20.5
t16.5 -40.5q0 -63 -21 -82z" />
    <glyph glyph-name="logicalnot" unicode="&#xac;" horiz-adv-x="3326" 
d="M2982 1376v-733h-229v500l-2466 4v229h2695z" />
    <glyph glyph-name="hyphen" unicode="&#xad;" horiz-adv-x="2417" 
d="M1630 614h-1048q-66 0 -66 37q0 19 12 37l107 172q24 33 94 33h1049q65 0 65 -45q0 -13 -8 -29l-111 -176q-19 -29 -94 -29z" />
    <glyph glyph-name="registered" unicode="&#xae;" horiz-adv-x="3228" 
d="M819 2355q0 330 162.5 607t439.5 437t602 160q329 0 606 -163.5t438 -441t161 -599.5q0 -242 -92 -460.5t-258 -386.5t-387 -262.5t-468 -94.5q-325 0 -602 160t-439.5 437t-162.5 607zM991 2355q0 -284 139.5 -520.5t377.5 -374t515 -137.5q283 0 520 140.5t375 378.5
t138 513t-138 513t-375 378.5t-520 140.5q-277 0 -515 -137t-377.5 -374.5t-139.5 -520.5zM1434 3068h630q216 0 368.5 -64t152.5 -284q0 -147 -84.5 -245t-214.5 -112l245 -454q71 -125 168 -148v-69h-418l-327 651h-41v-442q0 -140 115 -140h24v-69h-618v69h24
q115 0 115 140v962q0 135 -115 135h-24v70zM1913 2953v-508q199 0 261 91t62 180q0 80 -42.5 160.5t-170.5 80.5q-73 0 -110 -4z" />
    <glyph glyph-name="macron" unicode="&#xaf;" horiz-adv-x="1487" 
d="M778 1688q9 0 40 2t54 2q106 0 201 -29q-133 -82 -254 -182.5t-160 -100.5q-74 0 -188 78l-75 50.5t-57 61.5t-20 97q0 187 210 436t475 465q201 166 429 279.5t394 113.5q96 0 207.5 -52t185.5 -138t74 -186q0 -116 -42 -266.5t-91 -272.5t-80 -186q-118 -256 -225 -454
t-194 -335.5l-206 -317l-207 -323.5q0 -81 -47 -183.5t-108.5 -174.5t-98.5 -72q-55 0 -123.5 64t-68.5 137q0 80 229 372q152 198 380.5 574t399 739t170.5 539q0 143 -135 143q-116 0 -274 -96.5t-319 -242t-291.5 -294.5t-184.5 -247zM1315 3133q-29 -8 -94 -8
q-58 0 -109 48t-51 153q0 161 114.5 277t249.5 116q56 0 108 -48t52 -157q0 -125 -78.5 -236t-191.5 -145zM2281 3133q-28 -8 -94 -8q-57 0 -108 48t-51 153q0 161 114.5 277t249.5 116q56 0 108 -48.5t52 -156.5q0 -126 -78 -236t-193 -145z" />
    <glyph glyph-name="degree" unicode="&#xb0;" horiz-adv-x="1376" 
d="M811 2621q0 -119 82.5 -202.5t204.5 -83.5q131 0 208.5 91t77.5 195q0 116 -86.5 201.5t-199.5 85.5q-105 0 -196 -78t-91 -209zM639 2621q0 190 133 324.5t326 134.5t325.5 -135t132.5 -324q0 -191 -134.5 -324.5t-323.5 -133.5t-324 133t-135 325z" />
    <glyph glyph-name="plusminus" unicode="&#xb1;" horiz-adv-x="3154" 
d="M1663 401h-229v1147h-1147v230h1147v1147h229v-1147h1147v-230h-1147v-1147zM287 -57v229h2523v-229h-2523z" />
    <glyph glyph-name="twosuperior" unicode="&#xb2;" horiz-adv-x="2036" 
d="M782 1688q9 0 40 2t50 2q105 0 205 -29q-133 -82 -254 -182.5t-159 -100.5q-75 0 -189 78l-78 51t-55 51.5t-23 81.5q0 145 126 320.5t317 388.5q105 117 282.5 259.5t374 244.5t350.5 102q127 0 252 -50.5t201 -134.5t76 -179q0 -113 -42.5 -271t-107 -316t-120.5 -273
q-107 -212 -205 -386t-152 -259l-196 -305.5l-222 -352.5q0 -81 -47 -183.5t-108.5 -174.5t-98.5 -72q-58 0 -125 63.5t-67 137.5q0 49 48 124.5t181 247.5q152 198 381.5 574.5t399.5 739t170 538.5q0 143 -136 143q-116 0 -274 -96.5t-319 -242t-291.5 -294.5t-184.5 -247
zM2007 3162q-33 -8 -102 -8q-60 0 -106 51.5t-46 149.5q0 110 53.5 200t136 141.5t166.5 51.5q72 0 120 -50.5t48 -154.5q0 -127 -77.5 -236.5t-192.5 -144.5z" />
    <glyph glyph-name="threesuperior" unicode="&#xb3;" horiz-adv-x="995" 
d="M1044 1544q-24 -8 -81 -8q-47 0 -93.5 42t-46.5 130q0 120 94 224t226 104q139 0 139 -172q0 -106 -71 -198.5t-167 -121.5zM0 410q0 132 39 253t159 277.5t355 366.5q108 94 238 94q94 0 94 -144q0 -147 -146.5 -305t-402.5 -276q-21 -58 -21 -168q0 -266 246 -266
q156 0 426 192q51 29 66 29q41 0 41 -37q0 -52 -234 -262q-138 -127 -259 -198.5t-261 -71.5q-163 0 -251.5 148.5t-88.5 367.5z" />
    <glyph glyph-name="acute" unicode="&#xb4;" horiz-adv-x="1069" 
d="M1044 1839l-184 41q62 121 234 290t286 169q79 0 90 -74v-90q-9 -100 -24 -156q-150 -45 -224.5 -75t-177.5 -105z" />
    <glyph glyph-name="mu" unicode="&#xb5;" horiz-adv-x="1470" 
d="M1700 1909q57 0 57 -111q0 -81 -38.5 -219.5t-142 -252.5t-286.5 -114q-50 0 -152.5 28.5t-133.5 33.5q-25 4 -74 4q-76 0 -105 -37.5t-55 -138.5q-60 -228 -142.5 -484.5t-189 -467.5t-200.5 -211q-27 0 -50 16q-188 145 -188 197q0 29 156.5 286.5t264 487.5t107.5 422
q0 18 -12 27t-20 22q-13 23 -13 57q0 42 13 78q21 71 55 97t108 26q41 0 230 -29q56 -8 122 -11t160 -9q21 4 74 4q265 0 361 200q21 48 39.5 73.5t54.5 25.5z" />
    <glyph glyph-name="paragraph" unicode="&#xb6;" horiz-adv-x="3072" 
d="M3162 2630h-602l-185 -291.5t-172.5 -296.5l-181.5 -341l-301 -583l-439 -856t-305 -542.5t-276 -325t-307 -111.5q-191 0 -292 107.5t-101 261.5q0 136 82.5 211.5t196.5 75.5q92 0 135 -42.5t78 -121.5l31 -73.5t34 -37.5q36 0 135.5 147t228 377l282.5 525l247 483
q-320 72 -483.5 301t-163.5 567q0 167 121 361.5t408.5 336.5t752.5 142h1282q115 0 115 -16q0 -34 -45 -111q-50 -77 -107 -112t-168 -35z" />
    <glyph glyph-name="periodcentered" unicode="&#xb7;" horiz-adv-x="496" 
d="M172 1020q0 85 58.5 193.5t138.5 185t139 76.5q102 0 102 -152q0 -84 -55 -187t-134.5 -173t-146.5 -70q-39 0 -70.5 30t-31.5 97z" />
    <glyph glyph-name="cedilla" unicode="&#xb8;" horiz-adv-x="1307" 
d="M365 565q0 -323 241 -323q149 0 414 172q113 73 178.5 124.5t83.5 51.5q25 0 25 -62q0 -27 -140 -176q-163 -169 -371.5 -324t-402.5 -155q-165 0 -279 124.5t-114 346.5q0 177 95 388t251.5 395t344.5 298.5t366 114.5q133 0 187 -62.5t54 -138.5q0 -130 -143.5 -299.5
t-362.5 -304t-427 -170.5zM365 717q107 29 250 119t243 196.5t100 184.5q0 106 -86 106q-139 0 -295 -202.5t-212 -403.5zM811 1720q-25 -4 -82 -4q-55 0 -97 43.5t-42 124.5q0 90 48.5 166.5t123 121t143.5 44.5q51 0 97.5 -41t46.5 -131q0 -107 -70 -203t-168 -121z
M1454 1720q-24 -4 -82 -4q-57 0 -96 43t-39 125q0 137 100 234.5t215 97.5q52 0 96 -40t44 -132q0 -107 -70 -203t-168 -121z" />
    <glyph glyph-name="onesuperior" unicode="&#xb9;" horiz-adv-x="4211" 
d="M3269 2896l8 -373q-94 -6 -192.5 -63t-257 -268t-369.5 -627q-208 -408 -320 -701.5t-178.5 -525.5t-91.5 -285t-90 -53q-69 0 -157.5 90t-104.5 156v102q9 76 30.5 227.5l38.5 280.5q13 89 47.5 399t57 558t22.5 321q0 119 -78 119q-100 0 -237.5 -216t-272 -557
t-220 -699t-85.5 -617q0 -90 12 -164q-235 0 -307.5 113t-72.5 231q0 336 216.5 883t753.5 1255q72 98 203.5 254t169.5 156q20 0 74 -17q78 -19 109 -46t46 -117.5t21 -303.5v-258q-4 -226 -33 -516q-1 -15 -21.5 -231.5t-47.5 -550.5q70 250 196.5 601t292.5 704.5
t352 591t359 237.5q127 0 127 -90zM2712 1016q0 236 115 505t280.5 453.5t300.5 184.5q60 0 108 -48t117 -137q71 -87 95 -149t24 -187q0 -192 -66.5 -387.5t-170 -353t-218 -251t-205.5 -93.5q-71 0 -162 68.5t-154.5 176t-63.5 218.5zM2892 979q16 -51 45 -66h86
q104 32 231.5 151t216 274t88.5 292q0 110 -49 127h-78q-99 -28 -220.5 -149.5t-212.5 -276.5t-107 -274v-78zM2675 356h659h49q49 -5 49 -24l-24 -58l-62 -122q-16 -32 -23.5 -39t-29.5 -7h-749h-50q-49 7 -49 25q0 -1 25 57l61 123q22 42 33 45h21h90z" />
    <glyph glyph-name="ordmasculine" unicode="&#xba;" horiz-adv-x="1569" 
d="M188 586q40 227 178.5 382t321.5 285q126 91 314 170.5t329 79.5q121 0 179.5 -55t58.5 -117q0 -54 -75 -148t-175 -171.5t-168 -89.5h-33q-39 13 -49 73q-19 86 -98 86q-61 0 -170 -75.5t-210.5 -186.5t-144.5 -213q224 28 330 63.5t179 76t110 40.5q29 0 53.5 -80
t24.5 -112q0 -95 -215 -126t-506 -46q27 -102 135 -159.5t229 -57.5q133 0 308 64.5t331 160.5q77 49 111 49q29 0 29 -24q0 -81 -357 -332q-126 -84 -288.5 -165t-292.5 -81q-222 0 -321 161.5t-118 362.5q-64 0 -126 70t-62 111q0 16 29 16q4 0 20 -8q25 -4 78 -4h61z" />
    <glyph glyph-name="guillemotright" unicode="&#xbb;" horiz-adv-x="2138" 
d="M1462 840l86 614q12 79 38 103t73 24q15 0 33 -24.5t24 -57.5l144 -737l-754 -569q-36 -29 -86 -29q-26 0 -46 21t-20 40q0 65 21 86zM733 840l86 614q20 127 111 127q9 0 29 -19t28 -63l148 -737l-754 -569q-36 -29 -86 -29q-66 0 -66 61q0 66 21 86z" />
    <glyph glyph-name="onequarter" unicode="&#xbc;" horiz-adv-x="3326" 
d="M1331 2130q0 134 91 218.5t212 84.5q126 0 214.5 -89.5t88.5 -213.5t-89 -215.5t-214 -91.5q-113 0 -208 82t-95 225zM287 1147v229h2695v-229h-2695zM1331 385q0 142 94 222.5t209 80.5q126 0 214.5 -89.5t88.5 -213.5t-88.5 -213.5t-214.5 -89.5q-113 0 -208 80.5
t-95 222.5z" />
    <glyph glyph-name="onehalf" unicode="&#xbd;" horiz-adv-x="2658" 
d="M287 2073l164 163l852 -852l851 852l160 -163l-848 -852l848 -852l-160 -160l-851 852l-852 -852l-164 160l852 852z" />
    <glyph glyph-name="threequarters" unicode="&#xbe;" horiz-adv-x="3445" 
d="M287 74q0 87 58.5 193t140 183.5t137.5 77.5q102 0 102 -151q0 -84 -54.5 -186t-134 -173t-147.5 -71q-102 0 -102 127zM1413 74q0 71 57.5 182t139 191.5t143.5 80.5q102 0 102 -151q0 -84 -55 -187t-133.5 -173t-146.5 -70q-39 0 -73 34t-34 93zM2544 74
q0 74 57.5 183.5t138 190t144.5 80.5q102 0 102 -151q0 -84 -54.5 -186t-134 -173t-147.5 -71q-39 0 -72.5 33.5t-33.5 93.5z" />
    <glyph glyph-name="questiondown" unicode="&#xbf;" horiz-adv-x="1094" 
d="M336 676q-21 -58 -21 -168q0 -266 246 -266q156 0 426 192q51 29 66 29q41 0 41 -37q0 -52 -234 -262q-138 -127 -259 -198.5t-261 -71.5q-163 0 -251.5 148.5t-88.5 367.5q0 132 39 253t159 277.5t355 366.5q108 94 238 94q94 0 94 -144q0 -147 -146.5 -305t-402.5 -276
zM610 1544q-28 -8 -82 -8q-47 0 -93 42t-46 130q0 120 94 224t226 104q139 0 139 -172q0 -106 -71 -198.5t-167 -121.5zM1180 1544q-29 -8 -82 -8q-47 0 -93.5 42t-46.5 130q0 120 94 224t226 104q139 0 139 -172q0 -108 -70 -199.5t-167 -120.5z" />
    <glyph glyph-name="Agrave" unicode="&#xc0;" horiz-adv-x="2896" 
d="M1024 1462l217 21q158 182 383 401.5t488 446.5t511.5 409t428.5 271q106 -65 106 -205q0 -103 -25 -148l-544 -1069l254 29q64 0 81 -8t17 -41q0 -38 -34 -120t-64 -179q-40 -114 -91 -162t-131.5 -59t-265.5 -13q-101 -194 -145 -286t-56 -111q-57 -108 -57 -168
q0 -70 70 -70q84 0 217 115q139 139 168 139q41 0 41 -24t-111.5 -154t-167.5 -186q-152 -148 -250.5 -219.5t-220.5 -71.5q-192 0 -237 143q-13 36 -13 78q0 59 13 107q29 149 135 340l201 368l-848 -8l-910 -962q-48 -52 -205 -152.5t-229 -122.5h-49q-12 12 -12 29
q0 67 87 209t163 229q115 138 200 209h176l508 545l-331 -37q-8 -1 -35.5 -5t-50.5 -5.5t-58 -1.5q-94 0 -94 69q0 41 130.5 217.5t172.5 204.5q137 99 459 111zM2163 1561l540 1032q-763 -551 -1200 -1094z" />
    <glyph glyph-name="Agrave" unicode="&#x410;" horiz-adv-x="2896" 
d="M1024 1462l217 21q158 182 383 401.5t488 446.5t511.5 409t428.5 271q106 -65 106 -205q0 -103 -25 -148l-544 -1069l254 29q64 0 81 -8t17 -41q0 -38 -34 -120t-64 -179q-40 -114 -91 -162t-131.5 -59t-265.5 -13q-101 -194 -145 -286t-56 -111q-57 -108 -57 -168
q0 -70 70 -70q84 0 217 115q139 139 168 139q41 0 41 -24t-111.5 -154t-167.5 -186q-152 -148 -250.5 -219.5t-220.5 -71.5q-192 0 -237 143q-13 36 -13 78q0 59 13 107q29 149 135 340l201 368l-848 -8l-910 -962q-48 -52 -205 -152.5t-229 -122.5h-49q-12 12 -12 29
q0 67 87 209t163 229q115 138 200 209h176l508 545l-331 -37q-8 -1 -35.5 -5t-50.5 -5.5t-58 -1.5q-94 0 -94 69q0 41 130.5 217.5t172.5 204.5q137 99 459 111zM2163 1561l540 1032q-763 -551 -1200 -1094z" />
    <glyph glyph-name="Aacute" unicode="&#xc1;" horiz-adv-x="2683" 
d="M1081 1528q562 725 967 725q53 0 115 -17q-416 -283 -680 -626q214 37 499 37q88 0 200.5 -30t180.5 -61q197 -90 197 -303q0 -208 -43 -316t-129 -196q-117 -118 -380 -298.5t-519.5 -311.5t-378.5 -131q-113 0 -248 82.5t-226 216.5t-91 283q0 160 81.5 315t258.5 369
q-242 -56 -451 -160q79 166 201 278q146 62 446 144zM1270 1303q-217 -380 -217 -648q0 -102 64 -180t157 -78q78 0 186 43t226 107l198 108q122 59 253.5 173t131.5 196q0 102 -194.5 192.5t-608.5 90.5q-127 0 -196 -4zM1270 2073l-492 -160q-132 -33 -131 -33
q-74 0 -74 135q0 192 83 323t246 223t433 179q155 51 337 91.5t391.5 71t392 44.5t346.5 14q174 0 278 -16q116 -223 152 -352q-20 0 -63 2t-68 2q-223 0 -498.5 -26t-540 -70.5t-432.5 -96.5q-185 -56 -276.5 -117t-91.5 -153q0 -41 8 -61z" />
    <glyph glyph-name="Aacute" unicode="&#x411;" horiz-adv-x="2683" 
d="M1081 1528q562 725 967 725q53 0 115 -17q-416 -283 -680 -626q214 37 499 37q88 0 200.5 -30t180.5 -61q197 -90 197 -303q0 -208 -43 -316t-129 -196q-117 -118 -380 -298.5t-519.5 -311.5t-378.5 -131q-113 0 -248 82.5t-226 216.5t-91 283q0 160 81.5 315t258.5 369
q-242 -56 -451 -160q79 166 201 278q146 62 446 144zM1270 1303q-217 -380 -217 -648q0 -102 64 -180t157 -78q78 0 186 43t226 107l198 108q122 59 253.5 173t131.5 196q0 102 -194.5 192.5t-608.5 90.5q-127 0 -196 -4zM1270 2073l-492 -160q-132 -33 -131 -33
q-74 0 -74 135q0 192 83 323t246 223t433 179q155 51 337 91.5t391.5 71t392 44.5t346.5 14q174 0 278 -16q116 -223 152 -352q-20 0 -63 2t-68 2q-223 0 -498.5 -26t-540 -70.5t-432.5 -96.5q-185 -56 -276.5 -117t-91.5 -153q0 -41 8 -61z" />
    <glyph glyph-name="Acircumflex" unicode="&#xc2;" horiz-adv-x="3011" 
d="M1270 2306v-119l-660 -188q-65 -21 -106 -21q-70 0 -70 70q0 95 89.5 228.5t227.5 255.5t269 184q149 70 339.5 118t397 77.5t397 42t365.5 12.5q421 0 616 -174.5t195 -391.5q0 -262 -249 -434.5t-540.5 -254t-590.5 -134.5q-95 -17 -242.5 -46l-228.5 -44v-21
q183 -42 553 -151q241 -74 377.5 -129t240 -152t103.5 -239q0 -127 -144 -268t-378.5 -263.5t-495 -197t-478.5 -74.5q-256 0 -430 80t-254.5 197t-80.5 227q0 149 172 395t372 469q-181 27 -272.5 55.5t-91.5 104.5q0 79 78.5 105t150.5 26q91 3 430 45
q259 253 409.5 371.5t220 145t161.5 32.5q36 2 67 6.5t43 5.5l-74.5 -74l-69.5 -66.5l-56 -52.5q-149 -126 -361 -368q490 60 791.5 157.5t425 205t123.5 210.5q0 291 -414 291q-148 0 -417.5 -32.5t-529.5 -91.5t-380 -130zM1331 1307q-114 -130 -208.5 -307t-94.5 -304
q0 -94 110 -169.5t279 -75.5q184 0 403 67t371 165t152 185q0 155 -292 255t-720 184z" />
    <glyph glyph-name="Acircumflex" unicode="&#x412;" horiz-adv-x="3011" 
d="M1270 2306v-119l-660 -188q-65 -21 -106 -21q-70 0 -70 70q0 95 89.5 228.5t227.5 255.5t269 184q149 70 339.5 118t397 77.5t397 42t365.5 12.5q421 0 616 -174.5t195 -391.5q0 -262 -249 -434.5t-540.5 -254t-590.5 -134.5q-95 -17 -242.5 -46l-228.5 -44v-21
q183 -42 553 -151q241 -74 377.5 -129t240 -152t103.5 -239q0 -127 -144 -268t-378.5 -263.5t-495 -197t-478.5 -74.5q-256 0 -430 80t-254.5 197t-80.5 227q0 149 172 395t372 469q-181 27 -272.5 55.5t-91.5 104.5q0 79 78.5 105t150.5 26q91 3 430 45
q259 253 409.5 371.5t220 145t161.5 32.5q36 2 67 6.5t43 5.5l-74.5 -74l-69.5 -66.5l-56 -52.5q-149 -126 -361 -368q490 60 791.5 157.5t425 205t123.5 210.5q0 291 -414 291q-148 0 -417.5 -32.5t-529.5 -91.5t-380 -130zM1331 1307q-114 -130 -208.5 -307t-94.5 -304
q0 -94 110 -169.5t279 -75.5q184 0 403 67t371 165t152 185q0 155 -292 255t-720 184z" />
    <glyph glyph-name="Atilde" unicode="&#xc3;" horiz-adv-x="2695" 
d="M1061 2163l205 -103q-232 -45 -320 -45q-37 0 -112 -2t-113 -2q-291 0 -291 103q0 17 12 49l111 270q53 131 300 230t580 162.5t641 93.5t478 30q41 0 123 -2t123 -2q429 0 913 29q-31 -247 -115 -367.5t-195 -153t-272 -32.5q-126 0 -454 16q-165 -155 -374.5 -443.5
t-588.5 -928.5q-287 -476 -487 -864q-70 -138 -114 -200.5t-77 -84.5t-99.5 -27.5t-78.5 -7.5q-258 0 -258 565q0 99 33 219.5t72 214.5t79 173q29 52 60.5 85t71 56t120.5 58l154 67q9 3 34.5 13t50.5 17t38 7q0 -8 -123 -213q-131 -220 -131 -381q0 -156 94 -311
l262.5 471.5l345.5 611t273 444.5t323 467q-331 -8 -716.5 -79.5t-577.5 -202.5z" />
    <glyph glyph-name="Atilde" unicode="&#x413;" horiz-adv-x="2695" 
d="M1061 2163l205 -103q-232 -45 -320 -45q-37 0 -112 -2t-113 -2q-291 0 -291 103q0 17 12 49l111 270q53 131 300 230t580 162.5t641 93.5t478 30q41 0 123 -2t123 -2q429 0 913 29q-31 -247 -115 -367.5t-195 -153t-272 -32.5q-126 0 -454 16q-165 -155 -374.5 -443.5
t-588.5 -928.5q-287 -476 -487 -864q-70 -138 -114 -200.5t-77 -84.5t-99.5 -27.5t-78.5 -7.5q-258 0 -258 565q0 99 33 219.5t72 214.5t79 173q29 52 60.5 85t71 56t120.5 58l154 67q9 3 34.5 13t50.5 17t38 7q0 -8 -123 -213q-131 -220 -131 -381q0 -156 94 -311
l262.5 471.5l345.5 611t273 444.5t323 467q-331 -8 -716.5 -79.5t-577.5 -202.5z" />
    <glyph glyph-name="Adieresis" unicode="&#xc4;" horiz-adv-x="3285" 
d="M1954 2421l37 -267l-414.5 -554.5t-288 -421t-163 -299.5t-52.5 -211q0 -101 54 -157t237 -56q210 0 532.5 93.5t640.5 275t527 446t209 590.5q0 200 -121.5 322.5t-374 178.5t-655.5 56q-275 0 -513 -41t-343 -78q-160 -54 -160 -107q0 -7 65 -45q69 -30 111 -41
q-379 -129 -610 -180q-28 0 -70 -8q-33 0 -49 8q-61 29 -61 143q0 319 110 480q72 105 274.5 192t459 147t503 92t414.5 32q377 0 655.5 -108.5t430 -337.5t151.5 -574q0 -433 -244 -802.5t-631 -635t-817.5 -409.5t-785.5 -144q-93 0 -164 29.5t-115.5 114t-44.5 237.5
q0 178 137.5 441t333.5 538.5l453.5 608t341.5 452.5z" />
    <glyph glyph-name="Adieresis" unicode="&#x414;" horiz-adv-x="3285" 
d="M1954 2421l37 -267l-414.5 -554.5t-288 -421t-163 -299.5t-52.5 -211q0 -101 54 -157t237 -56q210 0 532.5 93.5t640.5 275t527 446t209 590.5q0 200 -121.5 322.5t-374 178.5t-655.5 56q-275 0 -513 -41t-343 -78q-160 -54 -160 -107q0 -7 65 -45q69 -30 111 -41
q-379 -129 -610 -180q-28 0 -70 -8q-33 0 -49 8q-61 29 -61 143q0 319 110 480q72 105 274.5 192t459 147t503 92t414.5 32q377 0 655.5 -108.5t430 -337.5t151.5 -574q0 -433 -244 -802.5t-631 -635t-817.5 -409.5t-785.5 -144q-93 0 -164 29.5t-115.5 114t-44.5 237.5
q0 178 137.5 441t333.5 538.5l453.5 608t341.5 452.5z" />
    <glyph glyph-name="Aring" unicode="&#xc5;" horiz-adv-x="2810" 
d="M1761 1364v33q-149 16 -348 28q-244 13 -402.5 43t-277.5 132.5t-119 304.5q0 187 141.5 372.5t396.5 336t592.5 239t713.5 88.5q267 0 395 -34.5t219 -117.5v-319q-17 -32 -45 -54t-88 -50t-203 -89q-159 -68 -262.5 -132.5t-175.5 -104.5q44 164 217 282
q-139 58 -307 58q-321 0 -591 -87.5t-425.5 -219.5t-155.5 -254q0 -230 836 -230q40 0 287 13h208q72 -6 108 -40.5t36 -78.5q0 -40 -21 -66l-147 -188q-26 -31 -160 -37q-385 -17 -692.5 -115.5t-519.5 -238.5t-321 -281.5t-109 -237.5q0 -52 73.5 -94.5t181 -66
t203.5 -23.5q386 0 803.5 160t843.5 442q-23 -286 -125.5 -452t-312.5 -293q-595 -357 -1213 -357q-219 0 -376 21t-277.5 86t-186 193.5t-65.5 338.5q0 101 76 232.5t237.5 272.5t416.5 268.5t593 214.5q258 67 348 102z" />
    <glyph glyph-name="Aring" unicode="&#x415;" horiz-adv-x="2810" 
d="M1761 1364v33q-149 16 -348 28q-244 13 -402.5 43t-277.5 132.5t-119 304.5q0 187 141.5 372.5t396.5 336t592.5 239t713.5 88.5q267 0 395 -34.5t219 -117.5v-319q-17 -32 -45 -54t-88 -50t-203 -89q-159 -68 -262.5 -132.5t-175.5 -104.5q44 164 217 282
q-139 58 -307 58q-321 0 -591 -87.5t-425.5 -219.5t-155.5 -254q0 -230 836 -230q40 0 287 13h208q72 -6 108 -40.5t36 -78.5q0 -40 -21 -66l-147 -188q-26 -31 -160 -37q-385 -17 -692.5 -115.5t-519.5 -238.5t-321 -281.5t-109 -237.5q0 -52 73.5 -94.5t181 -66
t203.5 -23.5q386 0 803.5 160t843.5 442q-23 -286 -125.5 -452t-312.5 -293q-595 -357 -1213 -357q-219 0 -376 21t-277.5 86t-186 193.5t-65.5 338.5q0 101 76 232.5t237.5 272.5t416.5 268.5t593 214.5q258 67 348 102z" />
    <glyph glyph-name="AE" unicode="&#xc6;" horiz-adv-x="4596" 
d="M1810 1368l689 733q64 69 146.5 191t82.5 186q0 86 -62 112.5t-184 26.5q-178 0 -438 -52t-505 -143t-380 -202q-20 -42 -20 -70q0 -23 12 -49l-700 -344q-46 38 -60 85t-14 149q0 254 111.5 406t297 230t443.5 127l536 101l227.5 51t197 31.5t259.5 11.5h156
q196 0 289 -22t137.5 -102.5t44.5 -256.5q0 -103 -36 -173.5t-115 -158.5l-734 -823q93 13 639 78q157 190 566.5 644t437.5 454q29 0 29 -115q0 -68 -26.5 -107.5t-92.5 -109.5q-93 -104 -200.5 -243l-202.5 -269.5l-179 -253.5q119 4 475 4q286 341 642.5 699t500.5 358
q21 0 49.5 -21.5t28.5 -68.5q0 -67 -105 -172.5t-241.5 -189t-210.5 -89.5l-166.5 -227.5t-99.5 -148.5t-103 -177q175 -41 303 -110l-213 -447q-131 90 -311 90q-172 -359 -172 -561q0 -110 35.5 -190t169.5 -80q116 0 222.5 78.5t240.5 216.5q205 205 221 213h37
q28 -9 28 -33q0 -31 -52 -98l-337 -414q-122 -149 -290.5 -273t-315.5 -124q-155 0 -286.5 107t-131.5 314q0 201 83.5 426.5t199.5 409.5q-357 0 -533 -16q-181 -235 -258.5 -373t-77.5 -295q0 -66 9 -102l-361 -197q-28 69 -28 160q0 191 115 406t274 388
q-412 -50 -795 -73q-133 -118 -382 -406t-249 -434q0 -17 8 -41q-100 6 -181 75.5t-81 129.5q0 151 508 672q-37 -5 -127 -5q-286 10 -286 91q0 71 71 238t117 233q0 -54 26.5 -79.5t105.5 -34.5t257 -9q171 0 315 57z" />
    <glyph glyph-name="AE" unicode="&#x416;" horiz-adv-x="4596" 
d="M1810 1368l689 733q64 69 146.5 191t82.5 186q0 86 -62 112.5t-184 26.5q-178 0 -438 -52t-505 -143t-380 -202q-20 -42 -20 -70q0 -23 12 -49l-700 -344q-46 38 -60 85t-14 149q0 254 111.5 406t297 230t443.5 127l536 101l227.5 51t197 31.5t259.5 11.5h156
q196 0 289 -22t137.5 -102.5t44.5 -256.5q0 -103 -36 -173.5t-115 -158.5l-734 -823q93 13 639 78q157 190 566.5 644t437.5 454q29 0 29 -115q0 -68 -26.5 -107.5t-92.5 -109.5q-93 -104 -200.5 -243l-202.5 -269.5l-179 -253.5q119 4 475 4q286 341 642.5 699t500.5 358
q21 0 49.5 -21.5t28.5 -68.5q0 -67 -105 -172.5t-241.5 -189t-210.5 -89.5l-166.5 -227.5t-99.5 -148.5t-103 -177q175 -41 303 -110l-213 -447q-131 90 -311 90q-172 -359 -172 -561q0 -110 35.5 -190t169.5 -80q116 0 222.5 78.5t240.5 216.5q205 205 221 213h37
q28 -9 28 -33q0 -31 -52 -98l-337 -414q-122 -149 -290.5 -273t-315.5 -124q-155 0 -286.5 107t-131.5 314q0 201 83.5 426.5t199.5 409.5q-357 0 -533 -16q-181 -235 -258.5 -373t-77.5 -295q0 -66 9 -102l-361 -197q-28 69 -28 160q0 191 115 406t274 388
q-412 -50 -795 -73q-133 -118 -382 -406t-249 -434q0 -17 8 -41q-100 6 -181 75.5t-81 129.5q0 151 508 672q-37 -5 -127 -5q-286 10 -286 91q0 71 71 238t117 233q0 -54 26.5 -79.5t105.5 -34.5t257 -9q171 0 315 57z" />
    <glyph glyph-name="Ccedilla" unicode="&#xc7;" horiz-adv-x="3121" 
d="M1364 1987l-651 -238q-64 -25 -111 -25q-74 0 -74 66q0 149 110 326.5t344 339t609.5 264t878.5 102.5q913 0 913 -516q0 -260 -294.5 -460t-695.5 -323t-779 -188v-16q398 -30 619.5 -72.5t328.5 -108t138.5 -161t31.5 -268.5q0 -189 -153.5 -367t-405.5 -317.5
t-534 -217t-533 -77.5q-463 0 -596 209.5t-133 425.5q0 55 29.5 108.5t74.5 103t101 99l102 90.5q107 94 135 94q32 0 37 -33v-12q-3 -12 -49.5 -66t-78.5 -118.5t-32 -147.5q0 -141 151 -187t402 -46q218 0 493 95.5t466.5 235.5t191.5 263q0 132 -163.5 195.5t-397.5 99.5
q-224 34 -451 57t-289.5 37t-62.5 53q0 55 66 123.5t236.5 73.5t468.5 66t584.5 157t481.5 217.5t195 243.5q0 237 -598 237q-195 0 -460.5 -55.5t-455.5 -151.5t-190 -210z" />
    <glyph glyph-name="Ccedilla" unicode="&#x417;" horiz-adv-x="3121" 
d="M1364 1987l-651 -238q-64 -25 -111 -25q-74 0 -74 66q0 149 110 326.5t344 339t609.5 264t878.5 102.5q913 0 913 -516q0 -260 -294.5 -460t-695.5 -323t-779 -188v-16q398 -30 619.5 -72.5t328.5 -108t138.5 -161t31.5 -268.5q0 -189 -153.5 -367t-405.5 -317.5
t-534 -217t-533 -77.5q-463 0 -596 209.5t-133 425.5q0 55 29.5 108.5t74.5 103t101 99l102 90.5q107 94 135 94q32 0 37 -33v-12q-3 -12 -49.5 -66t-78.5 -118.5t-32 -147.5q0 -141 151 -187t402 -46q218 0 493 95.5t466.5 235.5t191.5 263q0 132 -163.5 195.5t-397.5 99.5
q-224 34 -451 57t-289.5 37t-62.5 53q0 55 66 123.5t236.5 73.5t468.5 66t584.5 157t481.5 217.5t195 243.5q0 237 -598 237q-195 0 -460.5 -55.5t-455.5 -151.5t-190 -210z" />
    <glyph glyph-name="Egrave" unicode="&#xc8;" horiz-adv-x="3535" 
d="M1159 1782q-378 -86 -508 -86q-134 0 -202.5 23t-71.5 96v45q20 280 219.5 437t529.5 292q156 60 257 94t272 64t377 30q199 0 304.5 -10t146 -35t40.5 -74q0 -261 -115 -443.5t-380 -469.5l-412.5 -447.5t-210.5 -280t-107 -280.5v-94q10 -78 66 -78q49 0 94.5 31.5
t180 148.5t307.5 254q813 657 1433 1295q150 152 199.5 194.5t79.5 42.5q45 0 92 -85.5t47 -147.5q0 -36 -21.5 -67t-114 -139.5t-171.5 -211.5q-118 -154 -267 -367t-284.5 -432t-232.5 -430t-97 -340q0 -147 107 -147q113 0 426 192q111 71 164 115.5t77 44.5q74 0 74 -53
q0 -23 -68.5 -84.5t-165.5 -135l-143 -108.5q-237 -173 -339.5 -234t-192.5 -69h-45q-134 16 -218.5 165.5t-84.5 342.5q0 85 44 193.5t128 249t272.5 432l259.5 403.5q-313 -282 -836 -803l-279 -282.5t-246 -227t-295.5 -222.5t-243.5 -91q-80 0 -157.5 72.5t-126 171.5
t-48.5 161q0 118 105 309t218 326q75 90 157 174l153.5 152l173.5 159l172 154q458 405 458 549q0 74 -213 74q-221 0 -459 -71.5t-397 -169t-159 -165.5q0 -12 15 -21.5t49.5 -21l66.5 -22.5q80 -30 147 -41z" />
    <glyph glyph-name="Egrave" unicode="&#x418;" horiz-adv-x="3535" 
d="M1159 1782q-378 -86 -508 -86q-134 0 -202.5 23t-71.5 96v45q20 280 219.5 437t529.5 292q156 60 257 94t272 64t377 30q199 0 304.5 -10t146 -35t40.5 -74q0 -261 -115 -443.5t-380 -469.5l-412.5 -447.5t-210.5 -280t-107 -280.5v-94q10 -78 66 -78q49 0 94.5 31.5
t180 148.5t307.5 254q813 657 1433 1295q150 152 199.5 194.5t79.5 42.5q45 0 92 -85.5t47 -147.5q0 -36 -21.5 -67t-114 -139.5t-171.5 -211.5q-118 -154 -267 -367t-284.5 -432t-232.5 -430t-97 -340q0 -147 107 -147q113 0 426 192q111 71 164 115.5t77 44.5q74 0 74 -53
q0 -23 -68.5 -84.5t-165.5 -135l-143 -108.5q-237 -173 -339.5 -234t-192.5 -69h-45q-134 16 -218.5 165.5t-84.5 342.5q0 85 44 193.5t128 249t272.5 432l259.5 403.5q-313 -282 -836 -803l-279 -282.5t-246 -227t-295.5 -222.5t-243.5 -91q-80 0 -157.5 72.5t-126 171.5
t-48.5 161q0 118 105 309t218 326q75 90 157 174l153.5 152l173.5 159l172 154q458 405 458 549q0 74 -213 74q-221 0 -459 -71.5t-397 -169t-159 -165.5q0 -12 15 -21.5t49.5 -21l66.5 -22.5q80 -30 147 -41z" />
    <glyph glyph-name="Eacute" unicode="&#xc9;" horiz-adv-x="3891" 
d="M1155 1782q-388 -86 -508 -86q-175 0 -222.5 46t-47.5 118q0 127 48 221t125 164t204 163q125 92 356 178.5t481 138.5t437 52q208 0 310 -8.5t141.5 -33t39.5 -77.5q0 -183 -59 -328t-151.5 -261.5t-285.5 -323.5l-256 -268t-223.5 -252t-180 -258.5t-69.5 -229.5
q0 -92 15 -134t67 -42q39 0 566 438q703 590 1052.5 914.5t489 471t170.5 146.5q48 0 93.5 -84.5t45.5 -148.5q0 -33 -23.5 -69t-111 -141l-168.5 -208q-188 -237 -396 -552.5t-346.5 -594t-138.5 -422.5q0 -147 111 -147q59 0 134.5 32.5t145.5 75l138 84.5
q98 60 157.5 110t83.5 50q74 0 74 -53q0 -25 -30 -54.5t-149.5 -119l-226.5 -170.5q-375 -287 -548 -287q-81 0 -151.5 69.5t-111.5 186.5t-41 252q0 75 33 163t104.5 209.5t274.5 439.5l297 466l-467 -436.5l-455 -448.5q-174 -174 -361 -336.5t-370.5 -279.5t-304.5 -117
q-52 0 -117 69.5t-111 165t-46 162.5q0 115 105.5 310t213.5 325q193 232 508 500q309 278 459.5 442.5t150.5 245.5q0 74 -213 74q-169 0 -349.5 -43t-330 -108.5t-242.5 -135.5t-93 -119q0 -25 106 -57q83 -31 168 -49zM2830 3019l418 364q-33 -107 -33 -172
q0 -196 242 -196q259 0 602 225q49 33 70 33q24 0 24 -21q0 -66 -119 -171t-302.5 -208t-371.5 -171t-321 -68q-108 0 -174.5 69t-66.5 172q0 66 32 144z" />
    <glyph glyph-name="Eacute" unicode="&#x419;" horiz-adv-x="3891" 
d="M1155 1782q-388 -86 -508 -86q-175 0 -222.5 46t-47.5 118q0 127 48 221t125 164t204 163q125 92 356 178.5t481 138.5t437 52q208 0 310 -8.5t141.5 -33t39.5 -77.5q0 -183 -59 -328t-151.5 -261.5t-285.5 -323.5l-256 -268t-223.5 -252t-180 -258.5t-69.5 -229.5
q0 -92 15 -134t67 -42q39 0 566 438q703 590 1052.5 914.5t489 471t170.5 146.5q48 0 93.5 -84.5t45.5 -148.5q0 -33 -23.5 -69t-111 -141l-168.5 -208q-188 -237 -396 -552.5t-346.5 -594t-138.5 -422.5q0 -147 111 -147q59 0 134.5 32.5t145.5 75l138 84.5
q98 60 157.5 110t83.5 50q74 0 74 -53q0 -25 -30 -54.5t-149.5 -119l-226.5 -170.5q-375 -287 -548 -287q-81 0 -151.5 69.5t-111.5 186.5t-41 252q0 75 33 163t104.5 209.5t274.5 439.5l297 466l-467 -436.5l-455 -448.5q-174 -174 -361 -336.5t-370.5 -279.5t-304.5 -117
q-52 0 -117 69.5t-111 165t-46 162.5q0 115 105.5 310t213.5 325q193 232 508 500q309 278 459.5 442.5t150.5 245.5q0 74 -213 74q-169 0 -349.5 -43t-330 -108.5t-242.5 -135.5t-93 -119q0 -25 106 -57q83 -31 168 -49zM2830 3019l418 364q-33 -107 -33 -172
q0 -196 242 -196q259 0 602 225q49 33 70 33q24 0 24 -21q0 -66 -119 -171t-302.5 -208t-371.5 -171t-321 -68q-108 0 -174.5 69t-66.5 172q0 66 32 144z" />
    <glyph glyph-name="Ecircumflex" unicode="&#xca;" horiz-adv-x="3420" 
d="M2109 1851l1557 754q20 -75 20 -123q0 -158 -116 -264.5t-334 -235.5q-188 -109 -303 -151q-11 38 -40.5 80.5t-62.5 42.5q-73 0 -192 -53l-742 -357l-167 -225l1163 -770q291 -191 291 -590q0 -49 -16 -127t-38 -78l-1728 1159l-348 -430q-4 -16 -4 -37q1 -1 12 -28
q-83 -101 -238.5 -259.5t-216.5 -158.5q-28 0 -42.5 19t-14.5 38q0 38 22 91.5t94.5 159.5t210 277l369.5 443q-37 55 -37 217q0 74 127 201l385 188l447 598q74 98 74 131q0 17 -21.5 35.5t-48.5 18.5q-80 0 -406 -129.5t-673 -285.5t-441 -204q-141 -61 -196 -61
q-48 0 -63 30.5t-15 100.5q0 205 155 471l447 266q-8 -32 -8 -78q0 -28 49 -28q7 0 33 8q382 174 681 246.5t470 72.5q138 0 226.5 -130t88.5 -226q0 -82 -37 -131z" />
    <glyph glyph-name="Ecircumflex" unicode="&#x41a;" horiz-adv-x="3420" 
d="M2109 1851l1557 754q20 -75 20 -123q0 -158 -116 -264.5t-334 -235.5q-188 -109 -303 -151q-11 38 -40.5 80.5t-62.5 42.5q-73 0 -192 -53l-742 -357l-167 -225l1163 -770q291 -191 291 -590q0 -49 -16 -127t-38 -78l-1728 1159l-348 -430q-4 -16 -4 -37q1 -1 12 -28
q-83 -101 -238.5 -259.5t-216.5 -158.5q-28 0 -42.5 19t-14.5 38q0 38 22 91.5t94.5 159.5t210 277l369.5 443q-37 55 -37 217q0 74 127 201l385 188l447 598q74 98 74 131q0 17 -21.5 35.5t-48.5 18.5q-80 0 -406 -129.5t-673 -285.5t-441 -204q-141 -61 -196 -61
q-48 0 -63 30.5t-15 100.5q0 205 155 471l447 266q-8 -32 -8 -78q0 -28 49 -28q7 0 33 8q382 174 681 246.5t470 72.5q138 0 226.5 -130t88.5 -226q0 -82 -37 -131z" />
    <glyph glyph-name="Edieresis" unicode="&#xcb;" horiz-adv-x="2892" 
d="M582 549l349 391l490 530t373 381q85 82 256.5 229.5l361.5 299t346.5 258t207.5 106.5q38 0 82 -59t75 -142.5t31 -150.5q0 -56 -34 -112.5t-208 -313.5q-474 -700 -642.5 -1061t-168.5 -516q0 -175 119 -217q31 -12 57 -12q40 0 70 12q80 21 152.5 68t224.5 161
q62 49 119 99q28 24 49 24h12h4q25 0 33 -28v-29q-13 -51 -201 -217q-254 -226 -432.5 -349t-284 -163.5t-184.5 -40.5q-92 0 -179 75.5t-87 235.5q0 148 71.5 340t199.5 433t287 509.5l380 642.5q49 77 49 107q0 15 -21 28t-49 13q-88 0 -349 -207.5t-408 -349.5
q-506 -492 -1131 -1319q-104 -141 -151.5 -179.5t-106.5 -41.5q-13 0 -44 2t-54 2q-78 2 -103 9.5t-39 64t-14 196.5q0 512 307 881q76 90 256 155.5t285 65.5q37 0 37 -8q0 -12 -64.5 -81t-140.5 -194q-161 -256 -188 -528z" />
    <glyph glyph-name="Edieresis" unicode="&#x41b;" horiz-adv-x="2892" 
d="M582 549l349 391l490 530t373 381q85 82 256.5 229.5l361.5 299t346.5 258t207.5 106.5q38 0 82 -59t75 -142.5t31 -150.5q0 -56 -34 -112.5t-208 -313.5q-474 -700 -642.5 -1061t-168.5 -516q0 -175 119 -217q31 -12 57 -12q40 0 70 12q80 21 152.5 68t224.5 161
q62 49 119 99q28 24 49 24h12h4q25 0 33 -28v-29q-13 -51 -201 -217q-254 -226 -432.5 -349t-284 -163.5t-184.5 -40.5q-92 0 -179 75.5t-87 235.5q0 148 71.5 340t199.5 433t287 509.5l380 642.5q49 77 49 107q0 15 -21 28t-49 13q-88 0 -349 -207.5t-408 -349.5
q-506 -492 -1131 -1319q-104 -141 -151.5 -179.5t-106.5 -41.5q-13 0 -44 2t-54 2q-78 2 -103 9.5t-39 64t-14 196.5q0 512 307 881q76 90 256 155.5t285 65.5q37 0 37 -8q0 -12 -64.5 -81t-140.5 -194q-161 -256 -188 -528z" />
    <glyph glyph-name="Igrave" unicode="&#xcc;" horiz-adv-x="4231" 
d="M2245 803l360 410t328 351.5t454 430.5q449 403 630 519t243 116q60 0 118 -75t58 -163q0 -32 -12 -70q-182 -229 -525 -622q-136 -155 -287.5 -378.5t-259.5 -459t-108 -407.5q0 -312 176 -312q77 0 257.5 116.5t271.5 199.5q122 102 155 102q16 0 30.5 -12t14.5 -25
q0 -33 -86.5 -128t-163.5 -167q-229 -213 -461 -346t-407 -133q-95 0 -201 98t-106 312q0 444 422 999q352 463 352 512q0 33 -41 33q-107 0 -598 -504q-490 -502 -864 -1040q-119 -174 -147 -210t-54 -36q-152 0 -152 176q0 66 41 211t148 390t291 575l276 480l144.5 244
t17.5 50q0 15 -21 28t-49 13q-97 0 -342 -196t-415 -361q-526 -511 -1131 -1319q-104 -141 -151.5 -179.5t-106.5 -41.5q-13 0 -44 2t-54 2q-78 2 -103 9.5t-39 64t-14 196.5q0 356 124.5 606t252.5 344q52 39 244 95.5t243 56.5q21 0 21 -8q0 -26 -67.5 -87t-124 -128.5
t-116 -213t-85.5 -374.5l362 404l484 525t366 373q226 217 647.5 555t524.5 338q38 0 82 -59t75 -142.5t31 -150.5q0 -43 -28 -98.5t-128.5 -201.5l-154.5 -228l-187.5 -286l-144 -236.5t-140 -261t-126.5 -277.5z" />
    <glyph glyph-name="Igrave" unicode="&#x41c;" horiz-adv-x="4231" 
d="M2245 803l360 410t328 351.5t454 430.5q449 403 630 519t243 116q60 0 118 -75t58 -163q0 -32 -12 -70q-182 -229 -525 -622q-136 -155 -287.5 -378.5t-259.5 -459t-108 -407.5q0 -312 176 -312q77 0 257.5 116.5t271.5 199.5q122 102 155 102q16 0 30.5 -12t14.5 -25
q0 -33 -86.5 -128t-163.5 -167q-229 -213 -461 -346t-407 -133q-95 0 -201 98t-106 312q0 444 422 999q352 463 352 512q0 33 -41 33q-107 0 -598 -504q-490 -502 -864 -1040q-119 -174 -147 -210t-54 -36q-152 0 -152 176q0 66 41 211t148 390t291 575l276 480l144.5 244
t17.5 50q0 15 -21 28t-49 13q-97 0 -342 -196t-415 -361q-526 -511 -1131 -1319q-104 -141 -151.5 -179.5t-106.5 -41.5q-13 0 -44 2t-54 2q-78 2 -103 9.5t-39 64t-14 196.5q0 356 124.5 606t252.5 344q52 39 244 95.5t243 56.5q21 0 21 -8q0 -26 -67.5 -87t-124 -128.5
t-116 -213t-85.5 -374.5l362 404l484 525t366 373q226 217 647.5 555t524.5 338q38 0 82 -59t75 -142.5t31 -150.5q0 -43 -28 -98.5t-128.5 -201.5l-154.5 -228l-187.5 -286l-144 -236.5t-140 -261t-126.5 -277.5z" />
    <glyph glyph-name="Iacute" unicode="&#xcd;" horiz-adv-x="3531" 
d="M1823 1364l688 737q13 14 38.5 48.5l51.5 66.5q139 164 139 262q0 115 -151 115q-199 0 -495 -59t-558 -152.5t-365 -186.5q-2 -10 -10 -35.5t-10 -37.5q0 -13 8 -45l-696 -344q-86 73 -86 168q0 128 81 333.5t218 292.5q112 71 305 139t415.5 123t393.5 86l164 31
t131 21t164 16.5t213 5.5h164q198 0 289 -21.5t132 -101.5t41 -258q0 -165 -151 -332l-733 -823q98 14 639 78q92 118 529.5 608t469.5 490q33 0 33 -115q0 -37 -10.5 -65.5t-28.5 -55t-39.5 -50.5l-40.5 -46q-286 -340 -582 -766q26 0 104 4t134 4q127 0 205 -4l-279 -512
q-327 0 -495 -16q-137 -180 -193.5 -261.5t-99.5 -188.5t-43 -230q0 -58 4 -90l-357 -197q-28 102 -28 168q0 343 385 786q-405 -50 -791 -73q-141 -130 -340 -357q-175 -198 -237 -288t-62 -158q0 -40 17 -78q-102 8 -182 75t-80 130q0 66 148.5 259.5t354.5 412.5
q-74 -9 -135 -9q-278 0 -278 201q0 121 188 365q0 -53 28.5 -79t110.5 -37t250 -11q155 0 320 57z" />
    <glyph glyph-name="Iacute" unicode="&#x41d;" horiz-adv-x="3531" 
d="M1823 1364l688 737q13 14 38.5 48.5l51.5 66.5q139 164 139 262q0 115 -151 115q-199 0 -495 -59t-558 -152.5t-365 -186.5q-2 -10 -10 -35.5t-10 -37.5q0 -13 8 -45l-696 -344q-86 73 -86 168q0 128 81 333.5t218 292.5q112 71 305 139t415.5 123t393.5 86l164 31
t131 21t164 16.5t213 5.5h164q198 0 289 -21.5t132 -101.5t41 -258q0 -165 -151 -332l-733 -823q98 14 639 78q92 118 529.5 608t469.5 490q33 0 33 -115q0 -37 -10.5 -65.5t-28.5 -55t-39.5 -50.5l-40.5 -46q-286 -340 -582 -766q26 0 104 4t134 4q127 0 205 -4l-279 -512
q-327 0 -495 -16q-137 -180 -193.5 -261.5t-99.5 -188.5t-43 -230q0 -58 4 -90l-357 -197q-28 102 -28 168q0 343 385 786q-405 -50 -791 -73q-141 -130 -340 -357q-175 -198 -237 -288t-62 -158q0 -40 17 -78q-102 8 -182 75t-80 130q0 66 148.5 259.5t354.5 412.5
q-74 -9 -135 -9q-278 0 -278 201q0 121 188 365q0 -53 28.5 -79t110.5 -37t250 -11q155 0 320 57z" />
    <glyph glyph-name="Icircumflex" unicode="&#xce;" horiz-adv-x="2548" 
d="M2232 2322q213 0 338 -113.5t125 -336.5q0 -251 -144 -572t-394.5 -617t-574 -483.5t-660.5 -187.5q-180 0 -312 90q-348 296 -348 738q0 409 227.5 769.5t561 626.5t657.5 426.5t492 184.5h94q94 -21 184.5 -150t130.5 -252q-215 -24 -377 -123zM1110 1421l-98 41
q-147 -150 -266 -427.5t-119 -485.5q0 -142 77.5 -226.5t159.5 -84.5q143 0 401.5 160.5t518.5 415.5t434 542t174 536q0 250 -205 250q-238 0 -551 -230t-526 -491z" />
    <glyph glyph-name="Icircumflex" unicode="&#x41e;" horiz-adv-x="2548" 
d="M2232 2322q213 0 338 -113.5t125 -336.5q0 -251 -144 -572t-394.5 -617t-574 -483.5t-660.5 -187.5q-180 0 -312 90q-348 296 -348 738q0 409 227.5 769.5t561 626.5t657.5 426.5t492 184.5h94q94 -21 184.5 -150t130.5 -252q-215 -24 -377 -123zM1110 1421l-98 41
q-147 -150 -266 -427.5t-119 -485.5q0 -142 77.5 -226.5t159.5 -84.5q143 0 401.5 160.5t518.5 415.5t434 542t174 536q0 250 -205 250q-238 0 -551 -230t-526 -491z" />
    <glyph glyph-name="Idieresis" unicode="&#xcf;" horiz-adv-x="3314" 
d="M1114 2781q0 -48 26 -83.5t64 -35.5q40 0 82 21q38 17 203 104t290 130.5t257 43.5q144 0 217.5 -75.5t73.5 -194.5q0 -100 -50 -192q-138 -309 -269.5 -537t-227.5 -367l-172 -253.5t-76 -170.5q0 -36 16 -36q14 0 33.5 19.5l226.5 236.5l486 501q98 100 325 299
t446 357.5t306 158.5q53 0 100 -59t76 -141t29 -131q0 -85 -80 -221t-281 -414l-175.5 -249l-263 -393t-229 -399.5t-93.5 -281.5q0 -221 135 -221q110 0 336 176q76 62 147 143t89.5 98t57.5 17q54 0 54 -33q0 -74 -238 -307q-607 -594 -872 -594q-93 0 -167.5 87.5
t-74.5 231.5q0 356 418 1024l260 410l212.5 322t130 202t28.5 78q0 21 -25 21q-82 0 -328 -207.5t-501 -459.5t-326 -337q-173 -197 -297 -366l-245.5 -350t-176.5 -242.5t-108 -61.5q-37 0 -78 25q-63 26 -121.5 79.5t-58.5 96.5q0 69 94 205q305 458 529 829.5
t361.5 672.5t137.5 464q0 59 -17 86.5t-86 27.5q-145 0 -520 -245q-251 -159 -487 -353q-185 -151 -283 -151q-57 0 -57 201q0 216 231 447t506 347z" />
    <glyph glyph-name="Idieresis" unicode="&#x41f;" horiz-adv-x="3314" 
d="M1114 2781q0 -48 26 -83.5t64 -35.5q40 0 82 21q38 17 203 104t290 130.5t257 43.5q144 0 217.5 -75.5t73.5 -194.5q0 -100 -50 -192q-138 -309 -269.5 -537t-227.5 -367l-172 -253.5t-76 -170.5q0 -36 16 -36q14 0 33.5 19.5l226.5 236.5l486 501q98 100 325 299
t446 357.5t306 158.5q53 0 100 -59t76 -141t29 -131q0 -85 -80 -221t-281 -414l-175.5 -249l-263 -393t-229 -399.5t-93.5 -281.5q0 -221 135 -221q110 0 336 176q76 62 147 143t89.5 98t57.5 17q54 0 54 -33q0 -74 -238 -307q-607 -594 -872 -594q-93 0 -167.5 87.5
t-74.5 231.5q0 356 418 1024l260 410l212.5 322t130 202t28.5 78q0 21 -25 21q-82 0 -328 -207.5t-501 -459.5t-326 -337q-173 -197 -297 -366l-245.5 -350t-176.5 -242.5t-108 -61.5q-37 0 -78 25q-63 26 -121.5 79.5t-58.5 96.5q0 69 94 205q305 458 529 829.5
t361.5 672.5t137.5 464q0 59 -17 86.5t-86 27.5q-145 0 -520 -245q-251 -159 -487 -353q-185 -151 -283 -151q-57 0 -57 201q0 216 231 447t506 347z" />
    <glyph glyph-name="Eth" unicode="&#xd0;" horiz-adv-x="3170" 
d="M1290 1393l656 970q-217 0 -482 -40.5t-520 -108t-465 -146.5q84 288 225 462.5t346 264.5t467 120t650 30q349 0 613 -77t429.5 -294.5t165.5 -607.5q0 -197 -131 -434.5t-374.5 -453t-567.5 -348t-692 -132.5q-177 0 -545 45l-135 -221q-29 -43 -29 -94q0 -49 29 -95
q-53 -79 -119 -192q-192 -315 -258 -315q-96 0 -119 77q-12 37 -12 70q0 40 12 78q20 82 196.5 375.5t246.5 386.5q-102 26 -188.5 101t-86.5 157q0 317 688 422zM2183 2363l-610 -938q43 9 127 9h29q31 0 55 2t43 2q69 0 69 -54q0 -29 -137.5 -35.5t-223 -33t-85.5 -123.5
q0 -47 84.5 -79t153.5 -32q254 0 500 66.5t448.5 188t319 281.5t116.5 337q0 237 -231 325t-543 88q-22 0 -61 -2t-54 -2z" />
    <glyph glyph-name="Eth" unicode="&#x420;" horiz-adv-x="3170" 
d="M1290 1393l656 970q-217 0 -482 -40.5t-520 -108t-465 -146.5q84 288 225 462.5t346 264.5t467 120t650 30q349 0 613 -77t429.5 -294.5t165.5 -607.5q0 -197 -131 -434.5t-374.5 -453t-567.5 -348t-692 -132.5q-177 0 -545 45l-135 -221q-29 -43 -29 -94q0 -49 29 -95
q-53 -79 -119 -192q-192 -315 -258 -315q-96 0 -119 77q-12 37 -12 70q0 40 12 78q20 82 196.5 375.5t246.5 386.5q-102 26 -188.5 101t-86.5 157q0 317 688 422zM2183 2363l-610 -938q43 9 127 9h29q31 0 55 2t43 2q69 0 69 -54q0 -29 -137.5 -35.5t-223 -33t-85.5 -123.5
q0 -47 84.5 -79t153.5 -32q254 0 500 66.5t448.5 188t319 281.5t116.5 337q0 237 -231 325t-543 88q-22 0 -61 -2t-54 -2z" />
    <glyph glyph-name="Ntilde" unicode="&#xd1;" horiz-adv-x="2531" 
d="M1790 1679q27 -16 70 -16q91 0 197 93.5t196.5 234.5t147.5 288.5t57 251.5q0 9 2 39t2 47q0 115 -74 115q-187 0 -490.5 -253t-609.5 -649.5t-506 -808.5t-200 -710q0 -581 475 -581q336 0 711 274.5t690 626.5q97 110 135 110q41 0 41 -45q0 -51 -192 -279.5
t-484.5 -490.5t-615 -446.5t-592.5 -184.5q-168 0 -332.5 81.5t-274.5 258.5t-110 439q0 189 57 408t150.5 434t202 401.5t221.5 337.5q148 197 362.5 428.5t459 439.5t480 337.5t422.5 129.5q87 0 183.5 -49t159 -131.5t62.5 -175.5q0 -233 -101 -518t-456 -707
q-77 -92 -245 -244.5t-337.5 -269.5t-256.5 -117q-49 0 -93 61.5t-63 135.5q93 200 244 395t305 309z" />
    <glyph glyph-name="Ntilde" unicode="&#x421;" horiz-adv-x="2531" 
d="M1790 1679q27 -16 70 -16q91 0 197 93.5t196.5 234.5t147.5 288.5t57 251.5q0 9 2 39t2 47q0 115 -74 115q-187 0 -490.5 -253t-609.5 -649.5t-506 -808.5t-200 -710q0 -581 475 -581q336 0 711 274.5t690 626.5q97 110 135 110q41 0 41 -45q0 -51 -192 -279.5
t-484.5 -490.5t-615 -446.5t-592.5 -184.5q-168 0 -332.5 81.5t-274.5 258.5t-110 439q0 189 57 408t150.5 434t202 401.5t221.5 337.5q148 197 362.5 428.5t459 439.5t480 337.5t422.5 129.5q87 0 183.5 -49t159 -131.5t62.5 -175.5q0 -233 -101 -518t-456 -707
q-77 -92 -245 -244.5t-337.5 -269.5t-256.5 -117q-49 0 -93 61.5t-63 135.5q93 200 244 395t305 309z" />
    <glyph glyph-name="Ograve" unicode="&#xd2;" horiz-adv-x="4440" 
d="M1843 1720q475 476 746 718.5t412 329.5t227 87q42 0 105 -62t63 -110q0 -252 -471 -1217l647.5 593l477 434.5t294 244.5t162.5 80q29 0 75.5 -55.5t83.5 -125t37 -97.5q0 -52 -39.5 -109t-193.5 -248q-327 -398 -526 -677.5t-301.5 -503.5t-102.5 -408q0 -144 49 -232
t107 -88q102 0 296.5 133.5t329.5 264.5q56 53 82 53q53 0 53 -37q0 -59 -133.5 -190.5t-330.5 -277t-381 -244.5t-273 -99q-72 0 -148 59t-125.5 158.5t-49.5 216.5q0 205 104 441t282 501.5l272.5 402.5t94.5 175q-31 0 -119.5 -57.5t-253 -207t-368.5 -370.5
q-203 -221 -505 -603.5t-408 -506t-172 -123.5q-55 0 -96 118t-52 210v110q10 61 45 119t158 222l256 348q610 842 610 1097q0 99 -24 99q-50 0 -145 -54t-244.5 -195.5t-362 -406t-473.5 -659.5q-246 -373 -388.5 -563.5t-204.5 -250t-87 -59.5q-40 0 -96 67t-101 149
t-45 108q0 44 82 174t316 453q737 1015 737 1388q0 55 -11.5 81t-62.5 26q-91 0 -228.5 -76.5t-432.5 -263t-482 -287.5q-20 -11 -90.5 -38.5t-89.5 -27.5q-53 0 -53 168q0 141 14.5 226t38 129t52 66l55.5 42l286 258q0 -78 13 -94q12 -12 36 -12q28 0 54 12
q77 24 293.5 137.5t348 172.5t230.5 59q122 0 203 -69t117 -161.5t36 -163.5q0 -91 -123 -424t-188 -477z" />
    <glyph glyph-name="Ograve" unicode="&#x422;" horiz-adv-x="4440" 
d="M1843 1720q475 476 746 718.5t412 329.5t227 87q42 0 105 -62t63 -110q0 -252 -471 -1217l647.5 593l477 434.5t294 244.5t162.5 80q29 0 75.5 -55.5t83.5 -125t37 -97.5q0 -52 -39.5 -109t-193.5 -248q-327 -398 -526 -677.5t-301.5 -503.5t-102.5 -408q0 -144 49 -232
t107 -88q102 0 296.5 133.5t329.5 264.5q56 53 82 53q53 0 53 -37q0 -59 -133.5 -190.5t-330.5 -277t-381 -244.5t-273 -99q-72 0 -148 59t-125.5 158.5t-49.5 216.5q0 205 104 441t282 501.5l272.5 402.5t94.5 175q-31 0 -119.5 -57.5t-253 -207t-368.5 -370.5
q-203 -221 -505 -603.5t-408 -506t-172 -123.5q-55 0 -96 118t-52 210v110q10 61 45 119t158 222l256 348q610 842 610 1097q0 99 -24 99q-50 0 -145 -54t-244.5 -195.5t-362 -406t-473.5 -659.5q-246 -373 -388.5 -563.5t-204.5 -250t-87 -59.5q-40 0 -96 67t-101 149
t-45 108q0 44 82 174t316 453q737 1015 737 1388q0 55 -11.5 81t-62.5 26q-91 0 -228.5 -76.5t-432.5 -263t-482 -287.5q-20 -11 -90.5 -38.5t-89.5 -27.5q-53 0 -53 168q0 141 14.5 226t38 129t52 66l55.5 42l286 258q0 -78 13 -94q12 -12 36 -12q28 0 54 12
q77 24 293.5 137.5t348 172.5t230.5 59q122 0 203 -69t117 -161.5t36 -163.5q0 -91 -123 -424t-188 -477z" />
    <glyph glyph-name="Oacute" unicode="&#xd3;" horiz-adv-x="3043" 
d="M385 1565q-8 53 -8 147q0 218 66.5 338t117.5 158q74 59 276 174.5t471 241t520.5 207t428.5 81.5q95 0 133.5 -39t38.5 -133q0 -96 -39 -190.5t-125 -239.5q-179 -300 -325.5 -508.5l-302.5 -415t-221 -307t-101 -207.5q-17 -51 -17 -73q0 -32 16.5 -49t82.5 -17
q247 0 1200 991q148 162 528 537q54 -9 119.5 -81.5t65.5 -135.5q0 -37 -29 -62q-324 -448 -517.5 -747t-354 -625t-336.5 -790q171 154 392.5 293t373.5 166q16 0 51 4t47 4q33 0 33 -8q0 -21 -33 -51.5t-203.5 -171.5l-333.5 -285q-289 -254 -445.5 -433.5t-274 -334
t-152.5 -154.5q-52 0 -111 49t-102 144q24 151 85 321t199.5 437.5t378.5 662.5q373 618 373 688q-12 0 -171.5 -157l-314.5 -306.5t-358 -323.5t-381 -290q-78 -74 -176 -74q-99 0 -178.5 68t-79.5 133q0 123 150.5 400t351 571t354.5 495q113 148 233 348.5t120 282.5
q0 29 -37 29q-98 0 -401 -153t-602.5 -327z" />
    <glyph glyph-name="Oacute" unicode="&#x423;" horiz-adv-x="3043" 
d="M385 1565q-8 53 -8 147q0 218 66.5 338t117.5 158q74 59 276 174.5t471 241t520.5 207t428.5 81.5q95 0 133.5 -39t38.5 -133q0 -96 -39 -190.5t-125 -239.5q-179 -300 -325.5 -508.5l-302.5 -415t-221 -307t-101 -207.5q-17 -51 -17 -73q0 -32 16.5 -49t82.5 -17
q247 0 1200 991q148 162 528 537q54 -9 119.5 -81.5t65.5 -135.5q0 -37 -29 -62q-324 -448 -517.5 -747t-354 -625t-336.5 -790q171 154 392.5 293t373.5 166q16 0 51 4t47 4q33 0 33 -8q0 -21 -33 -51.5t-203.5 -171.5l-333.5 -285q-289 -254 -445.5 -433.5t-274 -334
t-152.5 -154.5q-52 0 -111 49t-102 144q24 151 85 321t199.5 437.5t378.5 662.5q373 618 373 688q-12 0 -171.5 -157l-314.5 -306.5t-358 -323.5t-381 -290q-78 -74 -176 -74q-99 0 -178.5 68t-79.5 133q0 123 150.5 400t351 571t354.5 495q113 148 233 348.5t120 282.5
q0 29 -37 29q-98 0 -401 -153t-602.5 -327z" />
    <glyph glyph-name="Ocircumflex" unicode="&#xd4;" horiz-adv-x="4084" 
d="M2736 1749l-512 -872q358 337 698 623.5t606 458t400 171.5q74 0 158.5 -95t143.5 -227t59 -223q0 -139 -83 -317t-214.5 -360.5t-279 -343.5t-280.5 -277q-142 -127 -322 -250t-280 -123q-51 0 -73 18t-82 80q-56 60 -77.5 97.5t-21.5 115.5q0 162 137 337t315 296
t265 121q37 0 37 -29q0 -20 -11 -32.5t-66 -61.5t-103 -98q-81 -88 -182 -286.5t-101 -291.5q0 -61 12 -61q49 0 248.5 217.5t268.5 306.5l346.5 448.5t171 286.5t80.5 314q0 72 -19 91t-92 19q-115 0 -426 -242t-695 -600.5l-721 -701t-460 -491.5l-553 -984
q-37 -65 -82 -65q-59 0 -99 167t-40 316q0 115 72 261.5t266 369.5t538 533l312 606q-196 -206 -419.5 -388t-434 -315t-390.5 -208.5t-288 -75.5q-54 0 -143.5 85t-159.5 193.5t-70 171.5q0 134 69.5 332t203.5 419t326.5 439.5t428.5 394.5q169 125 382 242t445 215
t425 152.5t317 54.5q101 0 159.5 -67.5t78.5 -150.5t20 -143q0 -78 -121 -178.5t-277 -182.5t-225 -101q-28 -9 -42.5 -14.5t-34.5 -10.5q34 31 74 98t40 99q0 36 -65 45h-45q-130 -15 -320 -109t-382.5 -222.5t-366.5 -266.5q-261 -207 -431 -425t-246.5 -394t-76.5 -271
q0 -79 39.5 -101t148.5 -22q478 0 1303 869q77 77 204 218t211.5 218.5t183.5 125.5t220 52z" />
    <glyph glyph-name="Ocircumflex" unicode="&#x424;" horiz-adv-x="4084" 
d="M2736 1749l-512 -872q358 337 698 623.5t606 458t400 171.5q74 0 158.5 -95t143.5 -227t59 -223q0 -139 -83 -317t-214.5 -360.5t-279 -343.5t-280.5 -277q-142 -127 -322 -250t-280 -123q-51 0 -73 18t-82 80q-56 60 -77.5 97.5t-21.5 115.5q0 162 137 337t315 296
t265 121q37 0 37 -29q0 -20 -11 -32.5t-66 -61.5t-103 -98q-81 -88 -182 -286.5t-101 -291.5q0 -61 12 -61q49 0 248.5 217.5t268.5 306.5l346.5 448.5t171 286.5t80.5 314q0 72 -19 91t-92 19q-115 0 -426 -242t-695 -600.5l-721 -701t-460 -491.5l-553 -984
q-37 -65 -82 -65q-59 0 -99 167t-40 316q0 115 72 261.5t266 369.5t538 533l312 606q-196 -206 -419.5 -388t-434 -315t-390.5 -208.5t-288 -75.5q-54 0 -143.5 85t-159.5 193.5t-70 171.5q0 134 69.5 332t203.5 419t326.5 439.5t428.5 394.5q169 125 382 242t445 215
t425 152.5t317 54.5q101 0 159.5 -67.5t78.5 -150.5t20 -143q0 -78 -121 -178.5t-277 -182.5t-225 -101q-28 -9 -42.5 -14.5t-34.5 -10.5q34 31 74 98t40 99q0 36 -65 45h-45q-130 -15 -320 -109t-382.5 -222.5t-366.5 -266.5q-261 -207 -431 -425t-246.5 -394t-76.5 -271
q0 -79 39.5 -101t148.5 -22q478 0 1303 869q77 77 204 218t211.5 218.5t183.5 125.5t220 52z" />
    <glyph glyph-name="Otilde" unicode="&#xd5;" horiz-adv-x="3011" 
d="M2281 1774l832 852q73 73 90 73q70 0 70 -98q0 -155 -176 -344l-140 -41l-684 -721l-65 -844v-254q0 -74 37.5 -114.5t81.5 -40.5q81 0 253 118q155 107 173 107q40 0 40 -37q0 -70 -159.5 -214.5t-353 -264t-273.5 -119.5q-78 0 -143.5 71t-65.5 249l74 1024
l-1233 -1156q-79 -77 -147 -77q-39 0 -50.5 23t-11.5 71q0 126 131 301t275 293l266 98l778 721l45 782v144q0 86 -82 86q-84 0 -256 -58.5t-367 -153t-352 -202.5q-61 -43 -61 -66q0 -8 82 -28q77 -12 127 -29q-43 -30 -248.5 -107t-296.5 -77q-60 0 -77 10t-17 47
q0 156 53 342.5t164 276.5q131 102 403 229.5t573.5 217t526.5 89.5q242 0 242 -188z" />
    <glyph glyph-name="Otilde" unicode="&#x425;" horiz-adv-x="3011" 
d="M2281 1774l832 852q73 73 90 73q70 0 70 -98q0 -155 -176 -344l-140 -41l-684 -721l-65 -844v-254q0 -74 37.5 -114.5t81.5 -40.5q81 0 253 118q155 107 173 107q40 0 40 -37q0 -70 -159.5 -214.5t-353 -264t-273.5 -119.5q-78 0 -143.5 71t-65.5 249l74 1024
l-1233 -1156q-79 -77 -147 -77q-39 0 -50.5 23t-11.5 71q0 126 131 301t275 293l266 98l778 721l45 782v144q0 86 -82 86q-84 0 -256 -58.5t-367 -153t-352 -202.5q-61 -43 -61 -66q0 -8 82 -28q77 -12 127 -29q-43 -30 -248.5 -107t-296.5 -77q-60 0 -77 10t-17 47
q0 156 53 342.5t164 276.5q131 102 403 229.5t573.5 217t526.5 89.5q242 0 242 -188z" />
    <glyph glyph-name="Odieresis" unicode="&#xd6;" horiz-adv-x="3535" 
d="M2728 1466q-215 -181 -468.5 -417l-529 -488.5t-449.5 -371.5t-286 -119q-78 0 -152.5 73t-122.5 173t-48 155q0 131 99.5 300.5t251.5 344.5t312.5 331l315.5 294l222 206.5t158.5 177.5t77.5 165q0 77 -213 77q-169 0 -349.5 -42t-330.5 -107.5t-242.5 -136
t-92.5 -119.5q0 -48 278 -107q-21 -4 -151.5 -32.5t-227 -43t-178.5 -14.5q-95 0 -160 29.5t-65 138.5q0 249 177.5 408t477.5 280q313 129 512 177.5t488 48.5q298 0 394.5 -23t96.5 -96q0 -184 -61.5 -332t-153.5 -262.5t-280 -314.5l-450 -493t-182.5 -250.5
t-97.5 -268.5q-8 -32 -8 -66q0 -110 99 -110q82 0 200 139q64 67 121.5 117t111.5 90l124 92q110 84 325 268l420 368.5l348 322.5l320 315q156 157 212 207.5t87 50.5q43 0 91 -84t48 -145q0 -45 -45.5 -107t-184 -223t-258.5 -316t-262 -378q-438 -694 -438 -967
q0 -71 30.5 -121.5t63.5 -50.5q79 0 256.5 79t239.5 118q74 45 109 60.5t43 16.5q0 -17 -78 -164q-129 -245 -268.5 -475.5t-339 -474.5t-438 -402.5t-494.5 -158.5q-119 0 -191 55t-72 117q0 71 101.5 225.5t223.5 302.5t130 148q25 0 25 -21q0 -11 -29 -49
q-61 -78 -61 -118q0 -123 127 -123q125 0 272.5 69t313 235.5t327.5 436.5q-74 -65 -156.5 -107t-146.5 -59.5t-94 -17.5q-63 0 -134.5 63t-120 168t-48.5 223q0 92 97.5 303.5t201 398z" />
    <glyph glyph-name="Odieresis" unicode="&#x426;" horiz-adv-x="3535" 
d="M2728 1466q-215 -181 -468.5 -417l-529 -488.5t-449.5 -371.5t-286 -119q-78 0 -152.5 73t-122.5 173t-48 155q0 131 99.5 300.5t251.5 344.5t312.5 331l315.5 294l222 206.5t158.5 177.5t77.5 165q0 77 -213 77q-169 0 -349.5 -42t-330.5 -107.5t-242.5 -136
t-92.5 -119.5q0 -48 278 -107q-21 -4 -151.5 -32.5t-227 -43t-178.5 -14.5q-95 0 -160 29.5t-65 138.5q0 249 177.5 408t477.5 280q313 129 512 177.5t488 48.5q298 0 394.5 -23t96.5 -96q0 -184 -61.5 -332t-153.5 -262.5t-280 -314.5l-450 -493t-182.5 -250.5
t-97.5 -268.5q-8 -32 -8 -66q0 -110 99 -110q82 0 200 139q64 67 121.5 117t111.5 90l124 92q110 84 325 268l420 368.5l348 322.5l320 315q156 157 212 207.5t87 50.5q43 0 91 -84t48 -145q0 -45 -45.5 -107t-184 -223t-258.5 -316t-262 -378q-438 -694 -438 -967
q0 -71 30.5 -121.5t63.5 -50.5q79 0 256.5 79t239.5 118q74 45 109 60.5t43 16.5q0 -17 -78 -164q-129 -245 -268.5 -475.5t-339 -474.5t-438 -402.5t-494.5 -158.5q-119 0 -191 55t-72 117q0 71 101.5 225.5t223.5 302.5t130 148q25 0 25 -21q0 -11 -29 -49
q-61 -78 -61 -118q0 -123 127 -123q125 0 272.5 69t313 235.5t327.5 436.5q-74 -65 -156.5 -107t-146.5 -59.5t-94 -17.5q-63 0 -134.5 63t-120 168t-48.5 223q0 92 97.5 303.5t201 398z" />
    <glyph glyph-name="multiply" unicode="&#xd7;" horiz-adv-x="3420" 
d="M2802 1630q-90 -63 -312 -241l-336.5 -263.5t-244.5 -153t-238 -67.5q-85 0 -153 96.5t-68 169.5q0 131 109.5 307t222.5 308q197 239 250 310t53 124q0 39 -56.5 73t-140.5 34q-191 0 -395 -56t-371.5 -154.5t-257.5 -224.5q160 -44 242 -110l-606 -90q-123 0 -123 102
q0 133 109.5 301.5t327 323t541 252.5t730.5 98q234 0 313.5 -52.5t79.5 -164.5q0 -91 -60.5 -195.5t-201.5 -304.5q-96 -136 -181 -317t-85 -293q0 -90 41 -90q49 0 213.5 71.5t224.5 128.5q275 181 474 357t334 333.5l198.5 231.5t99.5 74q41 0 94 -68t53 -121
q0 -44 -38.5 -94t-178.5 -213q-266 -310 -466.5 -605.5t-315.5 -554.5t-115 -437q0 -114 41.5 -190.5t85.5 -76.5q70 0 243 103.5t240 159.5q114 90 136 90q53 0 53 -25q0 -27 -32 -69t-71 -80.5l-69 -67.5q-118 -118 -352.5 -292.5t-376.5 -174.5q-75 0 -147.5 50
t-118.5 128t-46 154q0 152 65.5 336t162 369.5t229 415t191.5 345.5z" />
    <glyph glyph-name="multiply" unicode="&#x427;" horiz-adv-x="3420" 
d="M2802 1630q-90 -63 -312 -241l-336.5 -263.5t-244.5 -153t-238 -67.5q-85 0 -153 96.5t-68 169.5q0 131 109.5 307t222.5 308q197 239 250 310t53 124q0 39 -56.5 73t-140.5 34q-191 0 -395 -56t-371.5 -154.5t-257.5 -224.5q160 -44 242 -110l-606 -90q-123 0 -123 102
q0 133 109.5 301.5t327 323t541 252.5t730.5 98q234 0 313.5 -52.5t79.5 -164.5q0 -91 -60.5 -195.5t-201.5 -304.5q-96 -136 -181 -317t-85 -293q0 -90 41 -90q49 0 213.5 71.5t224.5 128.5q275 181 474 357t334 333.5l198.5 231.5t99.5 74q41 0 94 -68t53 -121
q0 -44 -38.5 -94t-178.5 -213q-266 -310 -466.5 -605.5t-315.5 -554.5t-115 -437q0 -114 41.5 -190.5t85.5 -76.5q70 0 243 103.5t240 159.5q114 90 136 90q53 0 53 -25q0 -27 -32 -69t-71 -80.5l-69 -67.5q-118 -118 -352.5 -292.5t-376.5 -174.5q-75 0 -147.5 50
t-118.5 128t-46 154q0 152 65.5 336t162 369.5t229 415t191.5 345.5z" />
    <glyph glyph-name="Oslash" unicode="&#xd8;" horiz-adv-x="4424" 
d="M3703 1327l-66 -70l-367.5 -388.5l-405.5 -412t-371.5 -328t-260.5 -136.5q-53 0 -116.5 86.5t-63.5 171.5q0 137 194.5 557.5t333.5 671.5l-482 -475.5l-738 -696t-406 -307.5q-73 0 -124.5 112t-51.5 179q0 19 14.5 42t60 76l85.5 99q304 355 517.5 638.5t337 488.5
t179.5 355t56 259q0 112 -15 138t-80 26q-156 0 -339 -40t-346.5 -104t-265 -134.5t-101.5 -127.5q0 -17 14 -23.5t92 -33.5q76 -30 172 -45l-184 -44t-164 -30.5t-160 -11.5q-179 0 -226.5 44t-47.5 119q0 183 92.5 309t284.5 249q228 148 606 252t668 104q206 0 308.5 -9
t142.5 -33.5t40 -76.5q0 -90 -28.5 -230t-113 -345t-257.5 -481t-453 -607q-33 -41 -33 -61q0 -16 14.5 -26.5t30.5 -10.5q33 0 181.5 108.5t329.5 257.5t288 252q252 242 426 451.5t327 428t190.5 265.5t84.5 47q56 0 82 -94q41 -176 41 -238q0 -77 -13.5 -112t-88.5 -133
q-393 -508 -594.5 -837t-264.5 -497.5t-63 -246.5t12 -78q34 0 129 63.5t238.5 196.5t316 337t353.5 468l741 1028q47 78 86 78q78 0 123 -74q8 -15 35.5 -55t39 -66.5t11.5 -62.5q0 -30 -12 -74l-69 -95l-52.5 -73.5t-67.5 -89.5q-391 -529 -582.5 -996.5t-191.5 -748.5
q0 -147 139 -147q94 0 192.5 42.5t237.5 137.5q126 86 152 86q41 0 41 -41q0 -76 -178 -225t-400 -267t-340 -118q-76 0 -185 87t-109 171q0 139 84.5 392.5t353.5 782.5z" />
    <glyph glyph-name="Oslash" unicode="&#x428;" horiz-adv-x="4424" 
d="M3703 1327l-66 -70l-367.5 -388.5l-405.5 -412t-371.5 -328t-260.5 -136.5q-53 0 -116.5 86.5t-63.5 171.5q0 137 194.5 557.5t333.5 671.5l-482 -475.5l-738 -696t-406 -307.5q-73 0 -124.5 112t-51.5 179q0 19 14.5 42t60 76l85.5 99q304 355 517.5 638.5t337 488.5
t179.5 355t56 259q0 112 -15 138t-80 26q-156 0 -339 -40t-346.5 -104t-265 -134.5t-101.5 -127.5q0 -17 14 -23.5t92 -33.5q76 -30 172 -45l-184 -44t-164 -30.5t-160 -11.5q-179 0 -226.5 44t-47.5 119q0 183 92.5 309t284.5 249q228 148 606 252t668 104q206 0 308.5 -9
t142.5 -33.5t40 -76.5q0 -90 -28.5 -230t-113 -345t-257.5 -481t-453 -607q-33 -41 -33 -61q0 -16 14.5 -26.5t30.5 -10.5q33 0 181.5 108.5t329.5 257.5t288 252q252 242 426 451.5t327 428t190.5 265.5t84.5 47q56 0 82 -94q41 -176 41 -238q0 -77 -13.5 -112t-88.5 -133
q-393 -508 -594.5 -837t-264.5 -497.5t-63 -246.5t12 -78q34 0 129 63.5t238.5 196.5t316 337t353.5 468l741 1028q47 78 86 78q78 0 123 -74q8 -15 35.5 -55t39 -66.5t11.5 -62.5q0 -30 -12 -74l-69 -95l-52.5 -73.5t-67.5 -89.5q-391 -529 -582.5 -996.5t-191.5 -748.5
q0 -147 139 -147q94 0 192.5 42.5t237.5 137.5q126 86 152 86q41 0 41 -41q0 -76 -178 -225t-400 -267t-340 -118q-76 0 -185 87t-109 171q0 139 84.5 392.5t353.5 782.5z" />
    <glyph glyph-name="Ugrave" unicode="&#xd9;" horiz-adv-x="4424" 
d="M3699 1327l-62 -70q-313 -353 -563 -608t-417 -396.5t-269.5 -201t-155.5 -59.5t-116.5 86.5t-63.5 171.5q0 95 101.5 341.5t231.5 512t191 375.5q-270 -282 -898 -880.5t-724 -598.5q-73 0 -124.5 112t-51.5 179q0 25 21.5 52.5t138.5 164.5q423 490 668.5 868
t337.5 611.5t92 347.5q0 50 -25 64t-78 14q-259 0 -502 -73.5t-396.5 -172.5t-153.5 -160q0 -17 14 -23.5t92 -33.5q76 -30 172 -45l-189.5 -44t-165.5 -30.5t-157 -11.5q-177 0 -223.5 43t-46.5 120q0 251 165 411.5t474 285.5q187 78 467.5 147.5t539.5 69.5
q317 0 404.5 -25.5t87.5 -93.5q0 -109 -41 -273t-137 -376.5t-261 -468.5t-409 -545q-33 -41 -33 -61q0 -16 14.5 -26.5t30.5 -10.5q37 0 210.5 132.5l361.5 290.5t227 195q260 248 430.5 454t319 419.5t190 266t88.5 52.5q59 0 91 -106.5t32 -225.5q0 -77 -17 -117.5
t-85 -127.5q-390 -503 -593 -833.5t-266 -500t-63 -247.5t12 -78q47 0 168 84t338.5 317.5t530.5 663.5l741 1028q13 22 41 50t45 28q76 0 123 -74q82 -122 82 -184q0 -45 -8 -74l-176 -242q-187 -249 -368 -575.5t-298 -645.5t-117 -540q0 -147 131 -147q91 0 229 57.5
t210 105.5q55 41 86 41q0 -26 -215 -400t-289 -476q-277 -386 -535 -592.5t-575 -206.5q-123 0 -192.5 55t-69.5 117q0 33 103.5 201t215.5 321.5t135 153.5q13 0 21 -8v-13q-5 -22 -17 -36q-2 -2 -17.5 -16.5t-25 -27.5t-18 -35t-8.5 -52q0 -123 123 -123q128 0 273.5 69
t309.5 233.5t334 438.5q-68 -62 -185 -121t-184 -59q-77 0 -185.5 81.5t-108.5 164.5q0 118 70.5 317.5t171 425.5z" />
    <glyph glyph-name="Ugrave" unicode="&#x429;" horiz-adv-x="4424" 
d="M3699 1327l-62 -70q-313 -353 -563 -608t-417 -396.5t-269.5 -201t-155.5 -59.5t-116.5 86.5t-63.5 171.5q0 95 101.5 341.5t231.5 512t191 375.5q-270 -282 -898 -880.5t-724 -598.5q-73 0 -124.5 112t-51.5 179q0 25 21.5 52.5t138.5 164.5q423 490 668.5 868
t337.5 611.5t92 347.5q0 50 -25 64t-78 14q-259 0 -502 -73.5t-396.5 -172.5t-153.5 -160q0 -17 14 -23.5t92 -33.5q76 -30 172 -45l-189.5 -44t-165.5 -30.5t-157 -11.5q-177 0 -223.5 43t-46.5 120q0 251 165 411.5t474 285.5q187 78 467.5 147.5t539.5 69.5
q317 0 404.5 -25.5t87.5 -93.5q0 -109 -41 -273t-137 -376.5t-261 -468.5t-409 -545q-33 -41 -33 -61q0 -16 14.5 -26.5t30.5 -10.5q37 0 210.5 132.5l361.5 290.5t227 195q260 248 430.5 454t319 419.5t190 266t88.5 52.5q59 0 91 -106.5t32 -225.5q0 -77 -17 -117.5
t-85 -127.5q-390 -503 -593 -833.5t-266 -500t-63 -247.5t12 -78q47 0 168 84t338.5 317.5t530.5 663.5l741 1028q13 22 41 50t45 28q76 0 123 -74q82 -122 82 -184q0 -45 -8 -74l-176 -242q-187 -249 -368 -575.5t-298 -645.5t-117 -540q0 -147 131 -147q91 0 229 57.5
t210 105.5q55 41 86 41q0 -26 -215 -400t-289 -476q-277 -386 -535 -592.5t-575 -206.5q-123 0 -192.5 55t-69.5 117q0 33 103.5 201t215.5 321.5t135 153.5q13 0 21 -8v-13q-5 -22 -17 -36q-2 -2 -17.5 -16.5t-25 -27.5t-18 -35t-8.5 -52q0 -123 123 -123q128 0 273.5 69
t309.5 233.5t334 438.5q-68 -62 -185 -121t-184 -59q-77 0 -185.5 81.5t-108.5 164.5q0 118 70.5 317.5t171 425.5z" />
    <glyph glyph-name="Uacute" unicode="&#xda;" horiz-adv-x="2388" 
d="M1819 1520q46 91 183.5 212.5t292 208.5t249.5 87q68 0 87 -64t19 -199q0 -131 -38.5 -242t-121.5 -294q-87 -190 -237 -402q-126 -176 -272.5 -328t-296.5 -264.5t-284.5 -173.5t-232.5 -61q-57 0 -137.5 39.5t-141.5 130t-61 231.5q0 184 62 395.5t234.5 537
t486.5 804.5q106 168 106 225q0 33 -102 33q-169 0 -451 -151q-135 -76 -231 -151t-190.5 -163.5t-143.5 -122.5t-102 -34q-119 0 -119 184q0 163 136.5 337.5t332.5 313.5t362 201q-32 -33 -32 -119q0 -8 16 -8q60 0 307 110q186 87 317.5 130t292.5 43q180 0 239.5 -83
t59.5 -167q0 -57 -38 -115t-204 -248.5l-265 -308.5q-220 -262 -371 -513.5t-228 -487.5t-77 -453q0 -258 147 -258q101 0 236 145.5t260 341.5q131 205 200.5 340.5t69.5 257.5q0 114 -15 155.5t-71 41.5q-95 0 -233 -94z" />
    <glyph glyph-name="Uacute" unicode="&#x42a;" horiz-adv-x="2388" 
d="M1819 1520q46 91 183.5 212.5t292 208.5t249.5 87q68 0 87 -64t19 -199q0 -131 -38.5 -242t-121.5 -294q-87 -190 -237 -402q-126 -176 -272.5 -328t-296.5 -264.5t-284.5 -173.5t-232.5 -61q-57 0 -137.5 39.5t-141.5 130t-61 231.5q0 184 62 395.5t234.5 537
t486.5 804.5q106 168 106 225q0 33 -102 33q-169 0 -451 -151q-135 -76 -231 -151t-190.5 -163.5t-143.5 -122.5t-102 -34q-119 0 -119 184q0 163 136.5 337.5t332.5 313.5t362 201q-32 -33 -32 -119q0 -8 16 -8q60 0 307 110q186 87 317.5 130t292.5 43q180 0 239.5 -83
t59.5 -167q0 -57 -38 -115t-204 -248.5l-265 -308.5q-220 -262 -371 -513.5t-228 -487.5t-77 -453q0 -258 147 -258q101 0 236 145.5t260 341.5q131 205 200.5 340.5t69.5 257.5q0 114 -15 155.5t-71 41.5q-95 0 -233 -94z" />
    <glyph glyph-name="Ucircumflex" unicode="&#xdb;" horiz-adv-x="3318" 
d="M2925 1937q-11 0 -129 -93.5t-279.5 -204.5t-374.5 -226q-102 -255 -286.5 -511.5t-395 -460t-403.5 -322.5t-312 -119q-84 0 -170.5 70.5t-142 193.5t-55.5 273q0 196 199 558t454.5 724t407.5 548l-256 -182t-181.5 -116.5t-173.5 -76.5t-180 -26q-28 0 -102 8
q320 225 538.5 402t341 289.5l195.5 177.5t104 65q49 0 102.5 -56t88.5 -134.5t35 -132.5q0 -46 -39.5 -93t-190.5 -202q-216 -226 -436.5 -526t-371 -619.5t-150.5 -575.5q0 -95 27 -166t63 -71q99 0 259.5 149t311 371t219.5 418q-56 -21 -114 -21q-96 0 -124 67t-28 179
q0 90 141.5 210.5t316 211t239.5 90.5q58 0 106.5 -88.5t48.5 -198.5q374 248 581.5 414.5t393.5 380.5q141 164 152 164q75 0 150 -91t75 -180q0 -12 -8 -28.5t-37.5 -57.5t-36.5 -53q-73 -103 -227.5 -350.5t-317 -539.5t-272 -543t-109.5 -385q0 -87 43.5 -140t91.5 -53
q97 0 248 134.5t260 254.5l46.5 54t34 33.5t26.5 10.5q49 0 49 -32q0 -140 -216 -374t-479.5 -423.5t-361.5 -189.5q-89 0 -177.5 88.5t-88.5 210.5q0 208 126 549.5t492 936.5q5 5 132 212t127 214z" />
    <glyph glyph-name="Ucircumflex" unicode="&#x42b;" horiz-adv-x="3318" 
d="M2925 1937q-11 0 -129 -93.5t-279.5 -204.5t-374.5 -226q-102 -255 -286.5 -511.5t-395 -460t-403.5 -322.5t-312 -119q-84 0 -170.5 70.5t-142 193.5t-55.5 273q0 196 199 558t454.5 724t407.5 548l-256 -182t-181.5 -116.5t-173.5 -76.5t-180 -26q-28 0 -102 8
q320 225 538.5 402t341 289.5l195.5 177.5t104 65q49 0 102.5 -56t88.5 -134.5t35 -132.5q0 -46 -39.5 -93t-190.5 -202q-216 -226 -436.5 -526t-371 -619.5t-150.5 -575.5q0 -95 27 -166t63 -71q99 0 259.5 149t311 371t219.5 418q-56 -21 -114 -21q-96 0 -124 67t-28 179
q0 90 141.5 210.5t316 211t239.5 90.5q58 0 106.5 -88.5t48.5 -198.5q374 248 581.5 414.5t393.5 380.5q141 164 152 164q75 0 150 -91t75 -180q0 -12 -8 -28.5t-37.5 -57.5t-36.5 -53q-73 -103 -227.5 -350.5t-317 -539.5t-272 -543t-109.5 -385q0 -87 43.5 -140t91.5 -53
q97 0 248 134.5t260 254.5l46.5 54t34 33.5t26.5 10.5q49 0 49 -32q0 -140 -216 -374t-479.5 -423.5t-361.5 -189.5q-89 0 -177.5 88.5t-88.5 210.5q0 208 126 549.5t492 936.5q5 5 132 212t127 214z" />
    <glyph glyph-name="Udieresis" unicode="&#xdc;" horiz-adv-x="1962" 
d="M1380 2396q-281 -241 -448 -335.5t-346 -94.5q-33 0 -99 8q415 295 622.5 470.5l364 319.5t193.5 144q60 0 132.5 -80.5t72.5 -132.5q0 -96 -80.5 -216.5t-300.5 -373.5q-210 -242 -382.5 -487t-292.5 -521.5t-120 -527.5q0 -95 27 -166t63 -71q109 0 315 208
t365.5 484.5t159.5 470.5q0 98 -33 98q-61 0 -160 -53t-106 -53q-8 0 -8 8q0 62 144 183.5t320.5 225t231.5 103.5q52 0 102 -72t50 -149q0 -180 -155 -478t-398 -602.5t-496 -505t-430 -200.5q-132 0 -250.5 157.5t-118.5 379.5q0 171 111.5 407t261 462.5t383 551
t305.5 438.5z" />
    <glyph glyph-name="Udieresis" unicode="&#x42c;" horiz-adv-x="1962" 
d="M1380 2396q-281 -241 -448 -335.5t-346 -94.5q-33 0 -99 8q415 295 622.5 470.5l364 319.5t193.5 144q60 0 132.5 -80.5t72.5 -132.5q0 -96 -80.5 -216.5t-300.5 -373.5q-210 -242 -382.5 -487t-292.5 -521.5t-120 -527.5q0 -95 27 -166t63 -71q109 0 315 208
t365.5 484.5t159.5 470.5q0 98 -33 98q-61 0 -160 -53t-106 -53q-8 0 -8 8q0 62 144 183.5t320.5 225t231.5 103.5q52 0 102 -72t50 -149q0 -180 -155 -478t-398 -602.5t-496 -505t-430 -200.5q-132 0 -250.5 157.5t-118.5 379.5q0 171 111.5 407t261 462.5t383 551
t305.5 438.5z" />
    <glyph glyph-name="Yacute" unicode="&#xdd;" horiz-adv-x="3256" 
d="M3461 1364q-139 95 -283 115q-184 -554 -583 -889.5t-826.5 -468.5t-744.5 -133q-277 0 -400.5 73t-123.5 250q0 86 32 230q213 -45 480 -45q311 0 622.5 70.5t580.5 206.5t469.5 331.5t293.5 435.5q-146 21 -344 21q-273 0 -518.5 -58t-423.5 -180q126 -104 159 -160
q-246 29 -387 53t-272 86t-131 164q0 103 200 194t498.5 145.5t554.5 54.5q215 0 306.5 -6.5t373.5 -47.5q-5 566 -1151 566q-548 0 -905 -258q115 -52 246 -70q-173 -127 -330 -174t-256 -47q-140 0 -180.5 34.5t-40.5 149.5q0 244 153.5 420t399 281t526 152.5t547.5 47.5
q496 0 774.5 -148t376.5 -359.5t98 -442.5q0 -99 -16 -213q157 -51 278 -160q0 -139 -53 -221z" />
    <glyph glyph-name="Yacute" unicode="&#x42d;" horiz-adv-x="3256" 
d="M3461 1364q-139 95 -283 115q-184 -554 -583 -889.5t-826.5 -468.5t-744.5 -133q-277 0 -400.5 73t-123.5 250q0 86 32 230q213 -45 480 -45q311 0 622.5 70.5t580.5 206.5t469.5 331.5t293.5 435.5q-146 21 -344 21q-273 0 -518.5 -58t-423.5 -180q126 -104 159 -160
q-246 29 -387 53t-272 86t-131 164q0 103 200 194t498.5 145.5t554.5 54.5q215 0 306.5 -6.5t373.5 -47.5q-5 566 -1151 566q-548 0 -905 -258q115 -52 246 -70q-173 -127 -330 -174t-256 -47q-140 0 -180.5 34.5t-40.5 149.5q0 244 153.5 420t399 281t526 152.5t547.5 47.5
q496 0 774.5 -148t376.5 -359.5t98 -442.5q0 -99 -16 -213q157 -51 278 -160q0 -139 -53 -221z" />
    <glyph glyph-name="Thorn" unicode="&#xde;" horiz-adv-x="5071" 
d="M2191 1413q451 64 779 70q144 288 371 529.5t484 418.5t494.5 283.5t403.5 132.5h98q92 -22 181.5 -150.5t129.5 -251.5q-215 -24 -377 -123q216 0 339.5 -114t123.5 -336q0 -251 -144 -572t-395 -617.5t-572.5 -483.5t-657.5 -187q-181 0 -311 90q-349 292 -349 709
q0 89 13 160q-136 -1 -246.5 -9t-301 -27l-546.5 -54q-131 -125 -336 -357q-179 -210 -241 -300t-62 -150q0 -41 16 -74q-103 6 -180.5 75t-77.5 130q0 82 117 230t387 442q-37 -5 -127 -5q-286 10 -286 91q0 71 71 238t117 233q0 -54 28 -79.5t107 -34.5t254 -9
q171 0 315 57l689 733q64 69 146.5 191t82.5 186q0 87 -59.5 113t-186.5 26q-294 0 -691.5 -112t-631.5 -285q-20 -42 -20 -70q0 -23 12 -49l-700 -344q-46 38 -60 85t-14 149q0 99 49.5 226t118.5 208q111 133 385 233.5t598 160t601 89t472 37.5h197q149 -10 213.5 -83
t64.5 -294q0 -165 -147 -332zM3633 1421l-98 41q-150 -156 -265.5 -428t-115.5 -485q0 -159 78.5 -235t158.5 -76q151 0 407.5 158.5t515.5 413t430 544.5t171 538q0 125 -44.5 187.5t-160.5 62.5q-197 0 -430 -153.5t-416 -330.5t-231 -237z" />
    <glyph glyph-name="Thorn" unicode="&#x42e;" horiz-adv-x="5071" 
d="M2191 1413q451 64 779 70q144 288 371 529.5t484 418.5t494.5 283.5t403.5 132.5h98q92 -22 181.5 -150.5t129.5 -251.5q-215 -24 -377 -123q216 0 339.5 -114t123.5 -336q0 -251 -144 -572t-395 -617.5t-572.5 -483.5t-657.5 -187q-181 0 -311 90q-349 292 -349 709
q0 89 13 160q-136 -1 -246.5 -9t-301 -27l-546.5 -54q-131 -125 -336 -357q-179 -210 -241 -300t-62 -150q0 -41 16 -74q-103 6 -180.5 75t-77.5 130q0 82 117 230t387 442q-37 -5 -127 -5q-286 10 -286 91q0 71 71 238t117 233q0 -54 28 -79.5t107 -34.5t254 -9
q171 0 315 57l689 733q64 69 146.5 191t82.5 186q0 87 -59.5 113t-186.5 26q-294 0 -691.5 -112t-631.5 -285q-20 -42 -20 -70q0 -23 12 -49l-700 -344q-46 38 -60 85t-14 149q0 99 49.5 226t118.5 208q111 133 385 233.5t598 160t601 89t472 37.5h197q149 -10 213.5 -83
t64.5 -294q0 -165 -147 -332zM3633 1421l-98 41q-150 -156 -265.5 -428t-115.5 -485q0 -159 78.5 -235t158.5 -76q151 0 407.5 158.5t515.5 413t430 544.5t171 538q0 125 -44.5 187.5t-160.5 62.5q-197 0 -430 -153.5t-416 -330.5t-231 -237z" />
    <glyph glyph-name="germandbls" unicode="&#xdf;" horiz-adv-x="2646" 
d="M1888 1438l49 90q-72 -6 -125 -14t-93.5 -16l-121.5 -23q-340 -66 -593 -66h-111q-385 0 -385 418q0 178 146 401t391.5 425.5t537.5 329t567 126.5q219 0 350 -124.5t183.5 -292t52.5 -304.5q0 -46 -32 -111t-98 -170.5l-198 -316.5q58 8 115 8q23 2 47.5 4.5t55.5 7.5
h36q17 -10 17 -41q0 -48 -32 -73.5t-95 -61.5q-207 -106 -373 -225q-19 -37 -40 -83.5l-47 -107l-48 -112.5q-143 -334 -143 -483q0 -148 155 -148q233 0 309 56t76 157q0 17 -2 50t-2 48q0 76 46.5 116t191.5 40q57 0 57 -41q0 -55 -234 -284.5t-500 -423t-392 -193.5
q-61 0 -133 48t-72 165q0 220 102 467q72 172 115 263t127 224l-1663 -1142q-155 -107 -193 -107q-52 0 -69 32t-17 107q14 135 26 181t71.5 108.5t218.5 177.5l262 197q36 -49 119 -49q37 0 188 86zM2032 1724l299 570q53 108 53 192q0 87 -56.5 125.5t-136.5 38.5
q-204 0 -496 -132t-523 -322.5t-279 -352.5q-12 -30 -12 -65q0 -28 12 -54q47 -94 221 -94q75 0 131 4t109 10.5l116 14.5z" />
    <glyph glyph-name="germandbls" unicode="&#x42f;" horiz-adv-x="2646" 
d="M1888 1438l49 90q-72 -6 -125 -14t-93.5 -16l-121.5 -23q-340 -66 -593 -66h-111q-385 0 -385 418q0 178 146 401t391.5 425.5t537.5 329t567 126.5q219 0 350 -124.5t183.5 -292t52.5 -304.5q0 -46 -32 -111t-98 -170.5l-198 -316.5q58 8 115 8q23 2 47.5 4.5t55.5 7.5
h36q17 -10 17 -41q0 -48 -32 -73.5t-95 -61.5q-207 -106 -373 -225q-19 -37 -40 -83.5l-47 -107l-48 -112.5q-143 -334 -143 -483q0 -148 155 -148q233 0 309 56t76 157q0 17 -2 50t-2 48q0 76 46.5 116t191.5 40q57 0 57 -41q0 -55 -234 -284.5t-500 -423t-392 -193.5
q-61 0 -133 48t-72 165q0 220 102 467q72 172 115 263t127 224l-1663 -1142q-155 -107 -193 -107q-52 0 -69 32t-17 107q14 135 26 181t71.5 108.5t218.5 177.5l262 197q36 -49 119 -49q37 0 188 86zM2032 1724l299 570q53 108 53 192q0 87 -56.5 125.5t-136.5 38.5
q-204 0 -496 -132t-523 -322.5t-279 -352.5q-12 -30 -12 -65q0 -28 12 -54q47 -94 221 -94q75 0 131 4t109 10.5l116 14.5z" />
    <glyph glyph-name="agrave" unicode="&#xe0;" horiz-adv-x="1892" 
d="M1503 1327l39.5 -75.5t35 -78t11.5 -63.5q0 -34 -151 -279q-97 -150 -132.5 -217t-35.5 -139q0 -83 46 -121.5t101 -38.5q45 0 91.5 19.5t99.5 52.5l116 72q36 23 75 52t48.5 35.5t24.5 6.5q20 0 20 -25q0 -35 -254 -282q-152 -147 -271.5 -235.5t-244.5 -88.5
q-84 0 -152.5 57.5t-68.5 159.5q0 171 94 365q32 52 74 155q-644 -659 -831 -659q-106 0 -172 170t-66 326q0 224 186 425.5t379 331.5q183 126 440.5 245.5t411.5 119.5q81 0 141 -47.5t60 -100.5q0 -43 -70 -102q-29 -21 -45 -41zM233 463q10 -92 54 -115h57
q174 45 447 266q118 99 267.5 255.5t149.5 232.5q0 53 -86 53q-184 0 -394.5 -109.5t-352.5 -272.5t-142 -310z" />
    <glyph glyph-name="agrave" unicode="&#x430;" horiz-adv-x="1892" 
d="M1503 1327l39.5 -75.5t35 -78t11.5 -63.5q0 -34 -151 -279q-97 -150 -132.5 -217t-35.5 -139q0 -83 46 -121.5t101 -38.5q45 0 91.5 19.5t99.5 52.5l116 72q36 23 75 52t48.5 35.5t24.5 6.5q20 0 20 -25q0 -35 -254 -282q-152 -147 -271.5 -235.5t-244.5 -88.5
q-84 0 -152.5 57.5t-68.5 159.5q0 171 94 365q32 52 74 155q-644 -659 -831 -659q-106 0 -172 170t-66 326q0 224 186 425.5t379 331.5q183 126 440.5 245.5t411.5 119.5q81 0 141 -47.5t60 -100.5q0 -43 -70 -102q-29 -21 -45 -41zM233 463q10 -92 54 -115h57
q174 45 447 266q118 99 267.5 255.5t149.5 232.5q0 53 -86 53q-184 0 -394.5 -109.5t-352.5 -272.5t-142 -310z" />
    <glyph glyph-name="aacute" unicode="&#xe1;" horiz-adv-x="1327" 
d="M328 1122q120 107 275.5 199t305 145.5t262.5 53.5q133 0 177.5 -100t44.5 -285q0 -136 -65 -264.5t-296 -370.5q-76 -80 -209 -199.5t-268.5 -210t-218.5 -90.5q-80 0 -157.5 84t-128 204.5t-50.5 207.5q0 181 106.5 497.5t317 613.5t506.5 433q87 41 182.5 65.5
l196.5 51t149 51.5q39 20 87 67t69 47q45 0 57 -127v-118q0 -97 -53 -155.5t-262 -94.5q-292 -50 -500.5 -132t-343.5 -221.5t-184 -351.5zM389 348q25 0 115 45q151 74 321.5 224.5t283 297t112.5 207.5q0 66 -86 66q-111 0 -266.5 -73.5t-266.5 -160.5
q-103 -78 -195 -196.5t-92 -253.5q0 -156 74 -156z" />
    <glyph glyph-name="aacute" unicode="&#x431;" horiz-adv-x="1327" 
d="M328 1122q120 107 275.5 199t305 145.5t262.5 53.5q133 0 177.5 -100t44.5 -285q0 -136 -65 -264.5t-296 -370.5q-76 -80 -209 -199.5t-268.5 -210t-218.5 -90.5q-80 0 -157.5 84t-128 204.5t-50.5 207.5q0 181 106.5 497.5t317 613.5t506.5 433q87 41 182.5 65.5
l196.5 51t149 51.5q39 20 87 67t69 47q45 0 57 -127v-118q0 -97 -53 -155.5t-262 -94.5q-292 -50 -500.5 -132t-343.5 -221.5t-184 -351.5zM389 348q25 0 115 45q151 74 321.5 224.5t283 297t112.5 207.5q0 66 -86 66q-111 0 -266.5 -73.5t-266.5 -160.5
q-103 -78 -195 -196.5t-92 -253.5q0 -156 74 -156z" />
    <glyph glyph-name="acircumflex" unicode="&#xe2;" horiz-adv-x="1544" 
d="M1626 623v-172q-165 -111 -315 -111q-108 0 -217 61l-234 -258.5t-220.5 -181.5t-254.5 -88q-133 0 -230.5 123t-97.5 410q0 789 734 1597q202 222 535.5 516.5t455.5 294.5q42 0 74 -48t32 -104q0 -92 -102 -282t-274 -430t-387.5 -498t-440.5 -489q-156 -161 -266 -230
q-17 -122 -17 -348q0 -63 34 -123.5t114 -60.5q83 0 173 84t130 194q-53 64 -53 160q0 120 104 265t244 249t225 104q70 0 70 -188q0 -49 -16.5 -92.5t-49 -101.5t-49.5 -93q-72 -143 -127 -213q76 -37 160 -37q106 0 266 91zM479 1004q339 315 738 835q352 482 352 574
q0 15 -13 30t-28 15q-47 0 -112.5 -57.5t-162.5 -159.5q-222 -229 -448 -539.5t-326 -697.5z" />
    <glyph glyph-name="acircumflex" unicode="&#x432;" horiz-adv-x="1544" 
d="M1626 623v-172q-165 -111 -315 -111q-108 0 -217 61l-234 -258.5t-220.5 -181.5t-254.5 -88q-133 0 -230.5 123t-97.5 410q0 789 734 1597q202 222 535.5 516.5t455.5 294.5q42 0 74 -48t32 -104q0 -92 -102 -282t-274 -430t-387.5 -498t-440.5 -489q-156 -161 -266 -230
q-17 -122 -17 -348q0 -63 34 -123.5t114 -60.5q83 0 173 84t130 194q-53 64 -53 160q0 120 104 265t244 249t225 104q70 0 70 -188q0 -49 -16.5 -92.5t-49 -101.5t-49.5 -93q-72 -143 -127 -213q76 -37 160 -37q106 0 266 91zM479 1004q339 315 738 835q352 482 352 574
q0 15 -13 30t-28 15q-47 0 -112.5 -57.5t-162.5 -159.5q-222 -229 -448 -539.5t-326 -697.5z" />
    <glyph glyph-name="atilde" unicode="&#xe3;" horiz-adv-x="1253" 
d="M1053 1405l61 -115q12 -24 12 -53q0 -94 -196 -307q-254 -281 -254 -467q0 -76 44 -99.5t120 -23.5q87 0 315 180q59 49 82 49q16 0 16 -20q0 -42 -121 -177t-214 -216q-135 -117 -264 -200t-269 -83q-100 0 -152.5 69.5t-52.5 180.5q0 131 115.5 307t380.5 447
q127 127 127 192q0 41 -62 41q-157 0 -393 -156q-72 -47 -116 -84t-85 -76.5t-60 -52t-46 -12.5q-41 0 -41 33q0 63 161.5 228.5t301.5 254.5q334 209 491 209q74 0 99 -49z" />
    <glyph glyph-name="atilde" unicode="&#x433;" horiz-adv-x="1253" 
d="M1053 1405l61 -115q12 -24 12 -53q0 -94 -196 -307q-254 -281 -254 -467q0 -76 44 -99.5t120 -23.5q87 0 315 180q59 49 82 49q16 0 16 -20q0 -42 -121 -177t-214 -216q-135 -117 -264 -200t-269 -83q-100 0 -152.5 69.5t-52.5 180.5q0 131 115.5 307t380.5 447
q127 127 127 192q0 41 -62 41q-157 0 -393 -156q-72 -47 -116 -84t-85 -76.5t-60 -52t-46 -12.5q-41 0 -41 33q0 63 161.5 228.5t301.5 254.5q334 209 491 209q74 0 99 -49z" />
    <glyph glyph-name="adieresis" unicode="&#xe4;" horiz-adv-x="1876" 
d="M954 -217l-94 -172l-274.5 -488t-185.5 -255.5t-191 -108.5q-88 0 -118 111.5t-30 228.5q0 263 79 418t188.5 224t265.5 124q93 35 184 74q151 282 328 577l-362 -303.5t-200.5 -139t-178.5 -61.5q-67 0 -153.5 95t-149 225.5t-62.5 228.5q0 178 257.5 409t614.5 396.5
t623 165.5q97 0 165.5 -93t68.5 -317q0 -73 -41 -147l-615 -967l701 324q24 12 57 12q45 0 45 -33q0 -44 -41 -65zM332 360q16 -16 49 -16q72 0 342 171.5t498.5 366.5t228.5 285q0 11 -12 24t-37 13q-93 0 -348 -112.5t-385 -198.5q-178 -120 -267.5 -220t-89.5 -251
q0 -46 21 -62zM680 -287q-236 -74 -359.5 -250t-123.5 -405q57 7 102 38t80 80t67 106.5l123 225.5z" />
    <glyph glyph-name="adieresis" unicode="&#x434;" horiz-adv-x="1876" 
d="M954 -217l-94 -172l-274.5 -488t-185.5 -255.5t-191 -108.5q-88 0 -118 111.5t-30 228.5q0 263 79 418t188.5 224t265.5 124q93 35 184 74q151 282 328 577l-362 -303.5t-200.5 -139t-178.5 -61.5q-67 0 -153.5 95t-149 225.5t-62.5 228.5q0 178 257.5 409t614.5 396.5
t623 165.5q97 0 165.5 -93t68.5 -317q0 -73 -41 -147l-615 -967l701 324q24 12 57 12q45 0 45 -33q0 -44 -41 -65zM332 360q16 -16 49 -16q72 0 342 171.5t498.5 366.5t228.5 285q0 11 -12 24t-37 13q-93 0 -348 -112.5t-385 -198.5q-178 -120 -267.5 -220t-89.5 -251
q0 -46 21 -62zM680 -287q-236 -74 -359.5 -250t-123.5 -405q57 7 102 38t80 80t67 106.5l123 225.5z" />
    <glyph glyph-name="aring" unicode="&#xe5;" horiz-adv-x="1307" 
d="M365 565q0 -323 241 -323q149 0 414 172q113 73 178.5 124.5t83.5 51.5q25 0 25 -62q0 -27 -140 -176q-163 -169 -371.5 -324t-402.5 -155q-165 0 -279 124.5t-114 346.5q0 177 95 388t251.5 395t344.5 298.5t366 114.5q133 0 187 -62.5t54 -138.5q0 -130 -143.5 -299.5
t-362.5 -304t-427 -170.5zM365 717q107 29 250 119t243 196.5t100 184.5q0 106 -86 106q-139 0 -295 -202.5t-212 -403.5z" />
    <glyph glyph-name="aring" unicode="&#x435;" horiz-adv-x="1307" 
d="M365 565q0 -323 241 -323q149 0 414 172q113 73 178.5 124.5t83.5 51.5q25 0 25 -62q0 -27 -140 -176q-163 -169 -371.5 -324t-402.5 -155q-165 0 -279 124.5t-114 346.5q0 177 95 388t251.5 395t344.5 298.5t366 114.5q133 0 187 -62.5t54 -138.5q0 -130 -143.5 -299.5
t-362.5 -304t-427 -170.5zM365 717q107 29 250 119t243 196.5t100 184.5q0 106 -86 106q-139 0 -295 -202.5t-212 -403.5z" />
    <glyph glyph-name="ae" unicode="&#xe6;" horiz-adv-x="2953" 
d="M1638 1090q-150 -91 -303 -164q-147 -191 -365.5 -406t-452 -367.5t-415.5 -152.5q-65 0 -83.5 28t-18.5 95q0 66 23 159t58 159.5t71 66.5q8 0 52 -24.5t107 -24.5q150 0 352.5 120t366 288.5t207.5 295.5q12 25 12 49q0 25 -12 37q-16 17 -45 17q-64 0 -199 -52
t-297 -145t-311 -209q-82 99 -82 238q0 74 21 147q123 102 415.5 202.5t468.5 100.5q74 0 145.5 -43.5t71.5 -181.5q0 -64 -16 -135q159 58 272.5 141.5t208.5 195.5t260 330q45 20 176.5 61.5t184.5 41.5q20 0 20 -8q0 -38 -222 -313t-314 -400q-195 -264 -488 -762
q193 142 422 336q247 210 426.5 343t285 192t158 73.5t93.5 14.5q23 0 42 -25.5t19 -69.5q0 -81 -55 -190.5t-151.5 -188.5t-211.5 -79q-78 0 -143 32q-141 -92 -287.5 -251.5t-146.5 -268.5q0 -63 26.5 -78.5t88.5 -15.5q174 0 458 184q3 2 98 56.5t99 54.5q25 0 25 -25
q0 -60 -152.5 -230.5t-335 -307.5t-291.5 -137q-102 0 -180 104t-78 260q0 80 25 164q-367 -245 -537 -496q-88 -130 -196 -318.5t-144.5 -246t-68.5 -57.5q-45 0 -45 217q0 118 6 152.5t39 93.5z" />
    <glyph glyph-name="ae" unicode="&#x436;" horiz-adv-x="2953" 
d="M1638 1090q-150 -91 -303 -164q-147 -191 -365.5 -406t-452 -367.5t-415.5 -152.5q-65 0 -83.5 28t-18.5 95q0 66 23 159t58 159.5t71 66.5q8 0 52 -24.5t107 -24.5q150 0 352.5 120t366 288.5t207.5 295.5q12 25 12 49q0 25 -12 37q-16 17 -45 17q-64 0 -199 -52
t-297 -145t-311 -209q-82 99 -82 238q0 74 21 147q123 102 415.5 202.5t468.5 100.5q74 0 145.5 -43.5t71.5 -181.5q0 -64 -16 -135q159 58 272.5 141.5t208.5 195.5t260 330q45 20 176.5 61.5t184.5 41.5q20 0 20 -8q0 -38 -222 -313t-314 -400q-195 -264 -488 -762
q193 142 422 336q247 210 426.5 343t285 192t158 73.5t93.5 14.5q23 0 42 -25.5t19 -69.5q0 -81 -55 -190.5t-151.5 -188.5t-211.5 -79q-78 0 -143 32q-141 -92 -287.5 -251.5t-146.5 -268.5q0 -63 26.5 -78.5t88.5 -15.5q174 0 458 184q3 2 98 56.5t99 54.5q25 0 25 -25
q0 -60 -152.5 -230.5t-335 -307.5t-291.5 -137q-102 0 -180 104t-78 260q0 80 25 164q-367 -245 -537 -496q-88 -130 -196 -318.5t-144.5 -246t-68.5 -57.5q-45 0 -45 217q0 118 6 152.5t39 93.5z" />
    <glyph glyph-name="ccedilla" unicode="&#xe7;" horiz-adv-x="1434" 
d="M238 336l73 274q250 95 530.5 268t280.5 298q0 53 -82 53q-85 0 -200 -33q-198 -58 -331 -122t-188.5 -104t-123 -93.5t-95.5 -53.5q-36 0 -36 205q0 97 70.5 173t277.5 163q400 168 647 168q148 0 215 -140.5t67 -277.5q0 -125 -212 -319.5t-492 -343.5
q164 -130 164 -373q349 188 467 274q84 54 127 54q37 0 37 -62q0 -38 -117 -116.5t-518 -325.5q-61 -233 -255 -517.5t-416 -479.5t-361 -195q-53 0 -82 56.5t-29 139.5q0 196 130.5 385t504.5 459q80 57 209 160q8 48 8 70q0 129 -72 231t-198 125zM455 -283
q-229 -179 -325 -260t-182.5 -196.5t-86.5 -223.5q0 -57 20 -57q57 0 176.5 117t234.5 291t163 329z" />
    <glyph glyph-name="ccedilla" unicode="&#x437;" horiz-adv-x="1434" 
d="M238 336l73 274q250 95 530.5 268t280.5 298q0 53 -82 53q-85 0 -200 -33q-198 -58 -331 -122t-188.5 -104t-123 -93.5t-95.5 -53.5q-36 0 -36 205q0 97 70.5 173t277.5 163q400 168 647 168q148 0 215 -140.5t67 -277.5q0 -125 -212 -319.5t-492 -343.5
q164 -130 164 -373q349 188 467 274q84 54 127 54q37 0 37 -62q0 -38 -117 -116.5t-518 -325.5q-61 -233 -255 -517.5t-416 -479.5t-361 -195q-53 0 -82 56.5t-29 139.5q0 196 130.5 385t504.5 459q80 57 209 160q8 48 8 70q0 129 -72 231t-198 125zM455 -283
q-229 -179 -325 -260t-182.5 -196.5t-86.5 -223.5q0 -57 20 -57q57 0 176.5 117t234.5 291t163 329z" />
    <glyph glyph-name="egrave" unicode="&#xe8;" horiz-adv-x="1769" 
d="M897 532q-104 -132 -213 -248.5t-229 -206t-205 -89.5q-105 0 -177.5 170t-72.5 395q0 139 120 360t286 387t290 166q67 0 119.5 -28t52.5 -62q0 -55 -77.5 -160.5t-189.5 -209t-208 -154.5q-73 -41 -98 -57q-21 -59 -21 -136q5 -89 37 -146.5t86 -57.5q51 0 172 77
q119 74 250 205l729 721q45 45 70 45q98 0 102 -225v-37q0 -28 -16 -49l-365 -397q-135 -148 -135 -308q0 -168 107 -168q51 0 143.5 43t163.5 93q13 6 52 31l67 42q32 0 32 -32q0 -30 -153 -181t-332 -278t-280 -127q-70 0 -119 57t-49 172q0 153 61 393z" />
    <glyph glyph-name="egrave" unicode="&#x438;" horiz-adv-x="1769" 
d="M897 532q-104 -132 -213 -248.5t-229 -206t-205 -89.5q-105 0 -177.5 170t-72.5 395q0 139 120 360t286 387t290 166q67 0 119.5 -28t52.5 -62q0 -55 -77.5 -160.5t-189.5 -209t-208 -154.5q-73 -41 -98 -57q-21 -59 -21 -136q5 -89 37 -146.5t86 -57.5q51 0 172 77
q119 74 250 205l729 721q45 45 70 45q98 0 102 -225v-37q0 -28 -16 -49l-365 -397q-135 -148 -135 -308q0 -168 107 -168q51 0 143.5 43t163.5 93q13 6 52 31l67 42q32 0 32 -32q0 -30 -153 -181t-332 -278t-280 -127q-70 0 -119 57t-49 172q0 153 61 393z" />
    <glyph glyph-name="eacute" unicode="&#xe9;" horiz-adv-x="1843" 
d="M893 532q-141 -187 -326.5 -365.5t-304.5 -178.5q-87 0 -174.5 126t-87.5 427q0 105 22.5 183.5t57 135t117.5 172.5q152 222 256.5 328t238.5 106q67 0 119.5 -28t52.5 -62q0 -55 -77.5 -160.5t-189.5 -209t-208 -154.5q-73 -41 -98 -57q-21 -56 -21 -136
q7 -204 119 -204q80 0 211 99t215 183l729 721q45 45 70 45q98 0 102 -225v-37q0 -28 -16 -49l-365 -397q-135 -148 -135 -308q0 -168 111 -168q56 0 145 43t158 93q8 4 61.5 38.5t57.5 34.5q32 0 32 -32q0 -15 -10.5 -32t-42 -50.5l-45.5 -48.5q-75 -87 -319 -271
t-349 -184q-69 0 -118.5 56.5t-49.5 172.5q0 149 62 393zM1835 2028q8 -9 8 -37q0 -42 -123.5 -145.5t-272 -190t-210.5 -86.5q-80 0 -156.5 69.5t-76.5 253.5q0 86 106.5 168t171.5 82q49 0 49 -45q0 -20 -10 -62t-10 -65q0 -98 123 -98q52 0 196 82q41 22 90 58t74 36
q28 0 41 -20z" />
    <glyph glyph-name="eacute" unicode="&#x439;" horiz-adv-x="1843" 
d="M893 532q-141 -187 -326.5 -365.5t-304.5 -178.5q-87 0 -174.5 126t-87.5 427q0 105 22.5 183.5t57 135t117.5 172.5q152 222 256.5 328t238.5 106q67 0 119.5 -28t52.5 -62q0 -55 -77.5 -160.5t-189.5 -209t-208 -154.5q-73 -41 -98 -57q-21 -56 -21 -136
q7 -204 119 -204q80 0 211 99t215 183l729 721q45 45 70 45q98 0 102 -225v-37q0 -28 -16 -49l-365 -397q-135 -148 -135 -308q0 -168 111 -168q56 0 145 43t158 93q8 4 61.5 38.5t57.5 34.5q32 0 32 -32q0 -15 -10.5 -32t-42 -50.5l-45.5 -48.5q-75 -87 -319 -271
t-349 -184q-69 0 -118.5 56.5t-49.5 172.5q0 149 62 393zM1835 2028q8 -9 8 -37q0 -42 -123.5 -145.5t-272 -190t-210.5 -86.5q-80 0 -156.5 69.5t-76.5 253.5q0 86 106.5 168t171.5 82q49 0 49 -45q0 -20 -10 -62t-10 -65q0 -98 123 -98q52 0 196 82q41 22 90 58t74 36
q28 0 41 -20z" />
    <glyph glyph-name="ecircumflex" unicode="&#xea;" horiz-adv-x="1798" 
d="M459 426l-328 -401q-20 -25 -33 -25q-31 0 -64.5 111t-33.5 315q0 102 8 152q20 153 148 396.5t274.5 433t204.5 189.5q38 0 70 -94t32 -192q0 -61 -21.5 -97.5t-97.5 -107.5q-132 -128 -240 -287t-108 -295q0 -21 9 -57q221 285 483 521t479 369.5t315 133.5
q48 0 94 -53t46 -156q0 -368 -185 -516q-81 0 -167.5 37.5t-86.5 89.5q0 10 7 20.5t14.5 16.5l19.5 16q47 23 62 78v45q-14 37 -66 37q-102 0 -288.5 -158t-300.5 -297q95 -32 159.5 -89t139.5 -152q80 -105 124.5 -147t96.5 -42q112 0 422 238q105 78 118 78t23 -14t10 -27
q0 -45 -131 -189t-209 -209q-277 -204 -446 -204q-140 0 -225 91t-152 232q-57 111 -87 149t-89 60z" />
    <glyph glyph-name="ecircumflex" unicode="&#x43a;" horiz-adv-x="1798" 
d="M459 426l-328 -401q-20 -25 -33 -25q-31 0 -64.5 111t-33.5 315q0 102 8 152q20 153 148 396.5t274.5 433t204.5 189.5q38 0 70 -94t32 -192q0 -61 -21.5 -97.5t-97.5 -107.5q-132 -128 -240 -287t-108 -295q0 -21 9 -57q221 285 483 521t479 369.5t315 133.5
q48 0 94 -53t46 -156q0 -368 -185 -516q-81 0 -167.5 37.5t-86.5 89.5q0 10 7 20.5t14.5 16.5l19.5 16q47 23 62 78v45q-14 37 -66 37q-102 0 -288.5 -158t-300.5 -297q95 -32 159.5 -89t139.5 -152q80 -105 124.5 -147t96.5 -42q112 0 422 238q105 78 118 78t23 -14t10 -27
q0 -45 -131 -189t-209 -209q-277 -204 -446 -204q-140 0 -225 91t-152 232q-57 111 -87 149t-89 60z" />
    <glyph glyph-name="edieresis" unicode="&#xeb;" horiz-adv-x="1790" 
d="M1143 831q-123 -48 -272 -171.5t-445 -438.5q-109 -118 -166 -169.5t-108 -51.5q-56 0 -104 75t-48 167q0 96 51.5 229t124.5 230.5t131 97.5q45 0 45 -25q0 -2 -20 -57q-45 -119 -45 -295q0 -103 28 -103q20 0 61.5 43t149 165l197 217t195.5 190q132 120 333.5 264.5
t268.5 144.5q39 0 74.5 -81t35.5 -140q0 -30 -30.5 -71t-88 -105t-69.5 -82q-125 -176 -173 -253t-48 -165q0 -102 127 -102q123 0 340 217q43 45 69 45q33 0 33 -45q0 -19 -17 -43.5t-62 -75l-105 -118.5q-91 -106 -277.5 -258t-288.5 -152q-88 0 -152.5 80.5t-64.5 234.5
q0 52 14.5 104t35 92t49.5 84l53 81q106 163 168 241z" />
    <glyph glyph-name="edieresis" unicode="&#x43b;" horiz-adv-x="1790" 
d="M1143 831q-123 -48 -272 -171.5t-445 -438.5q-109 -118 -166 -169.5t-108 -51.5q-56 0 -104 75t-48 167q0 96 51.5 229t124.5 230.5t131 97.5q45 0 45 -25q0 -2 -20 -57q-45 -119 -45 -295q0 -103 28 -103q20 0 61.5 43t149 165l197 217t195.5 190q132 120 333.5 264.5
t268.5 144.5q39 0 74.5 -81t35.5 -140q0 -30 -30.5 -71t-88 -105t-69.5 -82q-125 -176 -173 -253t-48 -165q0 -102 127 -102q123 0 340 217q43 45 69 45q33 0 33 -45q0 -19 -17 -43.5t-62 -75l-105 -118.5q-91 -106 -277.5 -258t-288.5 -152q-88 0 -152.5 80.5t-64.5 234.5
q0 52 14.5 104t35 92t49.5 84l53 81q106 163 168 241z" />
    <glyph glyph-name="igrave" unicode="&#xec;" horiz-adv-x="2613" 
d="M1323 516l152 148q52 52 247 220t377.5 305.5t235.5 137.5q48 0 91.5 -80.5t43.5 -144.5q0 -58 -30.5 -95t-96.5 -98q-108 -104 -201.5 -238.5t-93.5 -240.5q0 -143 127 -143q71 0 133 45.5t141 122.5q23 22 55 57.5t42.5 44t25.5 8.5q41 0 41 -37q0 -43 -38 -92
t-121 -141q-134 -144 -308.5 -275t-314.5 -131q-217 0 -217 217q0 105 54.5 214.5t178.5 285.5q90 124 127 221q-294 -186 -420.5 -306t-346 -347t-289.5 -227q-78 0 -78 250q0 90 176 348q180 263 180 360q0 8 -12 8q-32 0 -135 -77t-244.5 -215t-284.5 -314
q-140 -170 -215.5 -238.5t-140.5 -68.5q-64 0 -114 76.5t-50 210.5q0 87 60 214.5t140 222.5t132 95q37 0 37 -24q0 -19 -20.5 -69.5t-35 -116.5t-14.5 -175q0 -110 25 -110q19 0 52.5 38.5l142 170l207 242t192.5 196.5q58 55 196.5 173t266.5 210t171 92q127 0 127 -229
q0 -74 -102 -201q-106 -133 -180 -248t-74 -211v-41z" />
    <glyph glyph-name="igrave" unicode="&#x43c;" horiz-adv-x="2613" 
d="M1323 516l152 148q52 52 247 220t377.5 305.5t235.5 137.5q48 0 91.5 -80.5t43.5 -144.5q0 -58 -30.5 -95t-96.5 -98q-108 -104 -201.5 -238.5t-93.5 -240.5q0 -143 127 -143q71 0 133 45.5t141 122.5q23 22 55 57.5t42.5 44t25.5 8.5q41 0 41 -37q0 -43 -38 -92
t-121 -141q-134 -144 -308.5 -275t-314.5 -131q-217 0 -217 217q0 105 54.5 214.5t178.5 285.5q90 124 127 221q-294 -186 -420.5 -306t-346 -347t-289.5 -227q-78 0 -78 250q0 90 176 348q180 263 180 360q0 8 -12 8q-32 0 -135 -77t-244.5 -215t-284.5 -314
q-140 -170 -215.5 -238.5t-140.5 -68.5q-64 0 -114 76.5t-50 210.5q0 87 60 214.5t140 222.5t132 95q37 0 37 -24q0 -19 -20.5 -69.5t-35 -116.5t-14.5 -175q0 -110 25 -110q19 0 52.5 38.5l142 170l207 242t192.5 196.5q58 55 196.5 173t266.5 210t171 92q127 0 127 -229
q0 -74 -102 -201q-106 -133 -180 -248t-74 -211v-41z" />
    <glyph glyph-name="iacute" unicode="&#xed;" horiz-adv-x="1946" 
d="M541 840l299 561q-79 -69 -234 -176q-87 -58 -224.5 -141.5t-172.5 -92.5h-25q-12 12 -12 17q0 22 106.5 102.5l201 158t294.5 275.5l125.5 127.5l87.5 89.5q88 104 99.5 113.5t72.5 9.5q152 0 152 -90q0 -42 -28.5 -84.5l-80.5 -115.5t-136 -225.5t-198 -401.5
q102 20 213 20q98 0 160 -12q333 561 467 561q82 0 82 -225q0 -76 -14 -102t-72 -74q-113 -97 -231.5 -265t-137.5 -276v-66q22 -98 123 -98q151 0 303 131q35 30 88.5 68.5t67.5 38.5q29 0 29 -45q-6 -51 -165.5 -209.5t-345 -286t-296.5 -127.5q-105 0 -155 58t-50 126
q0 202 242 643q-282 0 -451 -114l-75 -134.5l-64 -115.5q-176 -328 -293.5 -494t-206.5 -166q-86 0 -86 136q0 152 84 330.5t211 333t246 237.5z" />
    <glyph glyph-name="iacute" unicode="&#x43d;" horiz-adv-x="1946" 
d="M541 840l299 561q-79 -69 -234 -176q-87 -58 -224.5 -141.5t-172.5 -92.5h-25q-12 12 -12 17q0 22 106.5 102.5l201 158t294.5 275.5l125.5 127.5l87.5 89.5q88 104 99.5 113.5t72.5 9.5q152 0 152 -90q0 -42 -28.5 -84.5l-80.5 -115.5t-136 -225.5t-198 -401.5
q102 20 213 20q98 0 160 -12q333 561 467 561q82 0 82 -225q0 -76 -14 -102t-72 -74q-113 -97 -231.5 -265t-137.5 -276v-66q22 -98 123 -98q151 0 303 131q35 30 88.5 68.5t67.5 38.5q29 0 29 -45q-6 -51 -165.5 -209.5t-345 -286t-296.5 -127.5q-105 0 -155 58t-50 126
q0 202 242 643q-282 0 -451 -114l-75 -134.5l-64 -115.5q-176 -328 -293.5 -494t-206.5 -166q-86 0 -86 136q0 152 84 330.5t211 333t246 237.5z" />
    <glyph glyph-name="icircumflex" unicode="&#xee;" horiz-adv-x="1479" 
d="M1217 1278q131 -40 131 -225q0 -65 -21 -144q-43 -182 -151 -360q-13 -17 -13 -33q0 -30 29 -50t65 -20q48 0 107 37t70 37q45 0 45 -28q0 -34 -68.5 -92.5t-183.5 -104t-244 -45.5q-245 -299 -537 -299q-144 0 -245.5 92.5t-151 230.5t-49.5 267q0 217 181.5 440
t427 370.5t403.5 147.5q80 0 152.5 -42t72.5 -77q0 -29 -8 -61q-5 -8 -12 -41zM844 373q-45 89 -45 184q0 104 45 213q48 130 87.5 213.5t39.5 97.5q0 16 -20.5 28.5t-41.5 12.5q-55 0 -177.5 -86.5t-199.5 -163.5q-127 -131 -188 -239t-61 -256q0 -176 204 -176
q160 0 357 172z" />
    <glyph glyph-name="icircumflex" unicode="&#x43e;" horiz-adv-x="1479" 
d="M1217 1278q131 -40 131 -225q0 -65 -21 -144q-43 -182 -151 -360q-13 -17 -13 -33q0 -30 29 -50t65 -20q48 0 107 37t70 37q45 0 45 -28q0 -34 -68.5 -92.5t-183.5 -104t-244 -45.5q-245 -299 -537 -299q-144 0 -245.5 92.5t-151 230.5t-49.5 267q0 217 181.5 440
t427 370.5t403.5 147.5q80 0 152.5 -42t72.5 -77q0 -29 -8 -61q-5 -8 -12 -41zM844 373q-45 89 -45 184q0 104 45 213q48 130 87.5 213.5t39.5 97.5q0 16 -20.5 28.5t-41.5 12.5q-55 0 -177.5 -86.5t-199.5 -163.5q-127 -131 -188 -239t-61 -256q0 -176 204 -176
q160 0 357 172z" />
    <glyph glyph-name="idieresis" unicode="&#xef;" horiz-adv-x="1815" 
d="M319 446q85 94 309 298t347 300q251 199 378.5 274t207.5 75q102 0 102 -156q0 -87 -44 -169t-106.5 -155.5l-128.5 -150.5q-155 -199 -155 -328q0 -123 127 -123t311 168q92 74 115 74q33 0 33 -53q0 -33 -74 -107q-96 -99 -223.5 -210t-271.5 -202.5t-242 -91.5
q-74 0 -135.5 51.5t-61.5 174.5q0 149 102 307l14 19t117 149q90 115 90 151q0 23 -19 44.5t-67 21.5q-91 0 -203.5 -87t-283.5 -269q-84 -88 -182.5 -228.5t-132 -181.5t-78.5 -41q-142 0 -164 385v111q11 121 62.5 211.5t179.5 263.5q148 199 215 259t174 60
q147 0 147 -82q0 -48 -78 -114q-409 -454 -409 -508q0 -82 28 -140z" />
    <glyph glyph-name="idieresis" unicode="&#x43f;" horiz-adv-x="1815" 
d="M319 446q85 94 309 298t347 300q251 199 378.5 274t207.5 75q102 0 102 -156q0 -87 -44 -169t-106.5 -155.5l-128.5 -150.5q-155 -199 -155 -328q0 -123 127 -123t311 168q92 74 115 74q33 0 33 -53q0 -33 -74 -107q-96 -99 -223.5 -210t-271.5 -202.5t-242 -91.5
q-74 0 -135.5 51.5t-61.5 174.5q0 149 102 307l14 19t117 149q90 115 90 151q0 23 -19 44.5t-67 21.5q-91 0 -203.5 -87t-283.5 -269q-84 -88 -182.5 -228.5t-132 -181.5t-78.5 -41q-142 0 -164 385v111q11 121 62.5 211.5t179.5 263.5q148 199 215 259t174 60
q147 0 147 -82q0 -48 -78 -114q-409 -454 -409 -508q0 -82 28 -140z" />
    <glyph glyph-name="eth" unicode="&#xf0;" horiz-adv-x="1909" 
d="M700 1126l-634 -557q-62 -57 -86 -57q-28 0 -33 16v33q7 21 110.5 127.5l487.5 482.5q227 221 406.5 466t222 291t161.5 46q39 0 85 -20.5t46 -44.5q0 -8 -8 -13q-390 -512 -569 -815l-123 -204q83 85 238.5 206t310 211t237.5 90t142 -54t59 -171q0 -147 -112 -314.5
t-267.5 -312.5t-304.5 -249q111 -50 262 -50q171 0 298.5 83.5t189.5 162.5q38 41 53 41q37 0 37 -24q0 -62 -172 -230q-127 -120 -299.5 -207.5t-349 -130.5t-318.5 -43q-220 0 -442 160q-130 -281 -212 -473.5l-137 -318.5t-87 -162.5t-80 -36.5q-47 0 -73 54t-26 126
q0 56 123 533q144 263 385 475zM500 356q92 41 176 41q86 0 213 -61q157 114 286 275t152 249v62q-24 65 -102 65q-117 0 -327 -192t-398 -439z" />
    <glyph glyph-name="eth" unicode="&#x440;" horiz-adv-x="1909" 
d="M700 1126l-634 -557q-62 -57 -86 -57q-28 0 -33 16v33q7 21 110.5 127.5l487.5 482.5q227 221 406.5 466t222 291t161.5 46q39 0 85 -20.5t46 -44.5q0 -8 -8 -13q-390 -512 -569 -815l-123 -204q83 85 238.5 206t310 211t237.5 90t142 -54t59 -171q0 -147 -112 -314.5
t-267.5 -312.5t-304.5 -249q111 -50 262 -50q171 0 298.5 83.5t189.5 162.5q38 41 53 41q37 0 37 -24q0 -62 -172 -230q-127 -120 -299.5 -207.5t-349 -130.5t-318.5 -43q-220 0 -442 160q-130 -281 -212 -473.5l-137 -318.5t-87 -162.5t-80 -36.5q-47 0 -73 54t-26 126
q0 56 123 533q144 263 385 475zM500 356q92 41 176 41q86 0 213 -61q157 114 286 275t152 249v62q-24 65 -102 65q-117 0 -327 -192t-398 -439z" />
    <glyph glyph-name="ntilde" unicode="&#xf1;" horiz-adv-x="1389" 
d="M0 508q0 137 103 316.5t270 344.5t366 270t379 105q164 0 164 -123q0 -76 -78.5 -214.5t-176.5 -250.5t-142 -112q-27 0 -58 69q-14 60 -53 74h-53q-73 -17 -187 -110t-199 -211t-85 -211q0 -98 86 -172t258 -74q129 0 230 43.5t220 116.5q127 80 205.5 142t102.5 62
q37 0 37 -41q0 -75 -357 -380q-157 -132 -291.5 -211.5t-273.5 -79.5q-166 0 -271 117t-150.5 268.5t-45.5 261.5z" />
    <glyph glyph-name="ntilde" unicode="&#x441;" horiz-adv-x="1389" 
d="M0 508q0 137 103 316.5t270 344.5t366 270t379 105q164 0 164 -123q0 -76 -78.5 -214.5t-176.5 -250.5t-142 -112q-27 0 -58 69q-14 60 -53 74h-53q-73 -17 -187 -110t-199 -211t-85 -211q0 -98 86 -172t258 -74q129 0 230 43.5t220 116.5q127 80 205.5 142t102.5 62
q37 0 37 -41q0 -75 -357 -380q-157 -132 -291.5 -211.5t-273.5 -79.5q-166 0 -271 117t-150.5 268.5t-45.5 261.5z" />
    <glyph glyph-name="ograve" unicode="&#xf2;" horiz-adv-x="2662" 
d="M319 451q208 215 603 548q475 394 610 394q80 0 103.5 -40.5t23.5 -115.5q0 -66 -57 -168q-51 -94 -97 -161.5t-97 -132t-66 -88t-15 -48.5q0 -33 25 -33q17 0 31 11t70.5 63.5l134 119.5t218.5 179q106 84 199.5 144.5t164.5 100.5l111 62q60 29 95 29q46 0 90.5 -90.5
t44.5 -147.5q0 -41 -66 -98q-193 -176 -278.5 -317.5t-85.5 -227.5q0 -123 123 -123q137 0 360 205q49 37 70 37q20 0 28 -16v-37q-21 -80 -189 -227.5t-357 -265.5t-261 -118t-132 44.5t-60 123.5q0 168 98 365q50 100 99 176q53 85 53 123q0 24 -37 24q-38 0 -196 -128
t-230 -195l-245.5 -239t-157.5 -136.5t-121 -46.5q-33 0 -66 37.5t-33 101.5q0 100 119 291q46 74 97.5 148.5t69 106.5t17.5 56q0 66 -90 66q-88 0 -198.5 -86t-284.5 -270q-84 -88 -182.5 -228.5t-132 -181.5t-78.5 -41q-62 0 -113 84t-51 301q0 139 21.5 222.5t66.5 154
t158 217.5q135 176 218 245.5t216 69.5q46 0 72 -24.5t26 -52.5q0 -39 -82 -132q-87 -87 -246 -275t-159 -241q0 -48 28 -118zM1139 1450q-41 41 -41 168q0 113 141 218t346.5 184.5t405 125t307.5 45.5q128 0 187 -44t59 -95q0 -13 -9 -29l-118 -196q-108 49 -340 49
q-132 0 -318 -51t-356.5 -147.5t-263.5 -227.5z" />
    <glyph glyph-name="ograve" unicode="&#x442;" horiz-adv-x="2662" 
d="M319 451q208 215 603 548q475 394 610 394q80 0 103.5 -40.5t23.5 -115.5q0 -66 -57 -168q-51 -94 -97 -161.5t-97 -132t-66 -88t-15 -48.5q0 -33 25 -33q17 0 31 11t70.5 63.5l134 119.5t218.5 179q106 84 199.5 144.5t164.5 100.5l111 62q60 29 95 29q46 0 90.5 -90.5
t44.5 -147.5q0 -41 -66 -98q-193 -176 -278.5 -317.5t-85.5 -227.5q0 -123 123 -123q137 0 360 205q49 37 70 37q20 0 28 -16v-37q-21 -80 -189 -227.5t-357 -265.5t-261 -118t-132 44.5t-60 123.5q0 168 98 365q50 100 99 176q53 85 53 123q0 24 -37 24q-38 0 -196 -128
t-230 -195l-245.5 -239t-157.5 -136.5t-121 -46.5q-33 0 -66 37.5t-33 101.5q0 100 119 291q46 74 97.5 148.5t69 106.5t17.5 56q0 66 -90 66q-88 0 -198.5 -86t-284.5 -270q-84 -88 -182.5 -228.5t-132 -181.5t-78.5 -41q-62 0 -113 84t-51 301q0 139 21.5 222.5t66.5 154
t158 217.5q135 176 218 245.5t216 69.5q46 0 72 -24.5t26 -52.5q0 -39 -82 -132q-87 -87 -246 -275t-159 -241q0 -48 28 -118zM1139 1450q-41 41 -41 168q0 113 141 218t346.5 184.5t405 125t307.5 45.5q128 0 187 -44t59 -95q0 -13 -9 -29l-118 -196q-108 49 -340 49
q-132 0 -318 -51t-356.5 -147.5t-263.5 -227.5z" />
    <glyph glyph-name="oacute" unicode="&#xf3;" horiz-adv-x="1765" 
d="M377 754q-55 -96 -72.5 -139t-17.5 -99q0 -47 21 -76.5t44 -29.5q21 0 146 81t170 115q170 125 329.5 265.5t299.5 280.5l268 269q30 37 61 37q37 0 61.5 -50.5t24.5 -104.5q0 -88 -78 -213l-594 -943q-66 -104 -69 -118v-29q12 -12 16 -12q33 0 82 45l561 483
q57 50 78 57h37q20 -7 20 -28q0 -23 -32 -58l-721 -753q-119 -125 -308 -350t-258 -300t-110 -75q-57 0 -57 274q0 29 13 56.5t56.5 99l81.5 139.5l385 701q21 42 21 65q0 25 -17 25q-12 0 -28 -17q-92 -80 -290 -216t-263 -136q-67 0 -152.5 190.5t-85.5 276.5
q0 292 233 598q43 58 156 173.5t231.5 206.5t182.5 91q60 0 112 -48t52 -91q0 -57 -102 -199t-240 -273t-248 -171z" />
    <glyph glyph-name="oacute" unicode="&#x443;" horiz-adv-x="1765" 
d="M377 754q-55 -96 -72.5 -139t-17.5 -99q0 -47 21 -76.5t44 -29.5q21 0 146 81t170 115q170 125 329.5 265.5t299.5 280.5l268 269q30 37 61 37q37 0 61.5 -50.5t24.5 -104.5q0 -88 -78 -213l-594 -943q-66 -104 -69 -118v-29q12 -12 16 -12q33 0 82 45l561 483
q57 50 78 57h37q20 -7 20 -28q0 -23 -32 -58l-721 -753q-119 -125 -308 -350t-258 -300t-110 -75q-57 0 -57 274q0 29 13 56.5t56.5 99l81.5 139.5l385 701q21 42 21 65q0 25 -17 25q-12 0 -28 -17q-92 -80 -290 -216t-263 -136q-67 0 -152.5 190.5t-85.5 276.5
q0 292 233 598q43 58 156 173.5t231.5 206.5t182.5 91q60 0 112 -48t52 -91q0 -57 -102 -199t-240 -273t-248 -171z" />
    <glyph glyph-name="ocircumflex" unicode="&#xf4;" horiz-adv-x="2630" 
d="M1540 971q74 67 213 161.5t282 165t218 70.5q62 0 119 -72t57 -219q0 -229 -156 -491q150 11 303 82q103 49 115 49q53 0 53 -62q0 -37 -24.5 -59t-93.5 -64q-204 -112 -492 -139q-466 -499 -750 -499q-68 0 -93 30.5t-25 104.5q0 110 101 224.5t271 195t369 96.5
q115 229 115 352q0 77 -70 102h-86q-205 -42 -380.5 -201t-233.5 -270l-746 -1499q-34 -78 -69 -78q-37 0 -68 33t-31 82q0 17 8 49q35 283 72.5 447t98.5 277.5t199 273.5l265 305l86 200q-715 -618 -946 -618q-221 0 -221 467q0 190 79 353.5t322 355.5q92 73 246.5 163
t315.5 156t266 66q100 0 141 -81.5t60 -222.5l286 623q25 66 70 66q104 0 151 -197q0 -33 -4 -57zM369 340q63 0 234.5 93t309.5 210q227 193 308.5 296.5t81.5 178.5q0 123 -140 123q-103 0 -261.5 -94t-299.5 -229q-173 -165 -223.5 -284.5t-50.5 -223.5q0 -70 41 -70z
" />
    <glyph glyph-name="ocircumflex" unicode="&#x444;" horiz-adv-x="2630" 
d="M1540 971q74 67 213 161.5t282 165t218 70.5q62 0 119 -72t57 -219q0 -229 -156 -491q150 11 303 82q103 49 115 49q53 0 53 -62q0 -37 -24.5 -59t-93.5 -64q-204 -112 -492 -139q-466 -499 -750 -499q-68 0 -93 30.5t-25 104.5q0 110 101 224.5t271 195t369 96.5
q115 229 115 352q0 77 -70 102h-86q-205 -42 -380.5 -201t-233.5 -270l-746 -1499q-34 -78 -69 -78q-37 0 -68 33t-31 82q0 17 8 49q35 283 72.5 447t98.5 277.5t199 273.5l265 305l86 200q-715 -618 -946 -618q-221 0 -221 467q0 190 79 353.5t322 355.5q92 73 246.5 163
t315.5 156t266 66q100 0 141 -81.5t60 -222.5l286 623q25 66 70 66q104 0 151 -197q0 -33 -4 -57zM369 340q63 0 234.5 93t309.5 210q227 193 308.5 296.5t81.5 178.5q0 123 -140 123q-103 0 -261.5 -94t-299.5 -229q-173 -165 -223.5 -284.5t-50.5 -223.5q0 -70 41 -70z
" />
    <glyph glyph-name="otilde" unicode="&#xf5;" horiz-adv-x="1606" 
d="M1036 1085l422 312q83 53 115 53q33 0 33 -33q0 -70 -103 -155l-475 -431l-33 -421q0 -140 78 -140q73 0 221 127q67 58 111 58q41 0 41 -45q0 -15 -15.5 -34t-61.5 -60.5l-103 -94.5q-435 -397 -553 -397q-32 0 -63.5 34t-31.5 101q0 53 21.5 197t36.5 327
q-98 -133 -180.5 -205t-187 -129.5t-124.5 -70.5q-24 -16 -84 -47t-71 -31q-29 0 -29 53q0 30 20 86q26 83 92 168.5t126 102.5l159 24l279 275q9 60 16 196q0 271 -110 271q-49 0 -144 -70l-245 -180q-26 -21 -50 -21q-13 0 -37 21v41q5 16 20 36t54 58.5l103 101.5
q397 398 540 398q85 0 151 -77t66 -284q0 -74 -4 -115z" />
    <glyph glyph-name="otilde" unicode="&#x445;" horiz-adv-x="1606" 
d="M1036 1085l422 312q83 53 115 53q33 0 33 -33q0 -70 -103 -155l-475 -431l-33 -421q0 -140 78 -140q73 0 221 127q67 58 111 58q41 0 41 -45q0 -15 -15.5 -34t-61.5 -60.5l-103 -94.5q-435 -397 -553 -397q-32 0 -63.5 34t-31.5 101q0 53 21.5 197t36.5 327
q-98 -133 -180.5 -205t-187 -129.5t-124.5 -70.5q-24 -16 -84 -47t-71 -31q-29 0 -29 53q0 30 20 86q26 83 92 168.5t126 102.5l159 24l279 275q9 60 16 196q0 271 -110 271q-49 0 -144 -70l-245 -180q-26 -21 -50 -21q-13 0 -37 21v41q5 16 20 36t54 58.5l103 101.5
q397 398 540 398q85 0 151 -77t66 -284q0 -74 -4 -115z" />
    <glyph glyph-name="odieresis" unicode="&#xf6;" horiz-adv-x="1827" 
d="M991 -651q146 124 242 321.5t131 419.5q-63 -54 -182 -117t-183 -63q-97 0 -132.5 74t-35.5 155q0 180 74 393q-457 -544 -659 -544q-88 0 -167 125t-79 354q0 176 113.5 415t277.5 411.5t301 172.5q73 0 122.5 -24.5t49.5 -65.5q0 -87 -163 -268.5t-320 -263.5
q-23 -11 -52 -27.5l-38 -21.5q-25 -79 -25 -148q0 -82 28 -135t66 -53q77 0 242 111t221 167l721 721q45 45 74 45q81 0 102 -225v-37q0 -33 -16 -49l-369 -397q-139 -152 -139 -308q0 -168 127 -168q113 0 279 123q2 1 64 43.5t67 42.5q36 0 36 -57q0 -165 -87.5 -416
t-260.5 -507t-413 -437q-84 -65 -177 -65q-65 0 -122 28q-86 150 -86 373q18 108 130.5 168.5t286.5 60.5q-65 -88 -65 -208q0 -64 16 -119z" />
    <glyph glyph-name="odieresis" unicode="&#x446;" horiz-adv-x="1827" 
d="M991 -651q146 124 242 321.5t131 419.5q-63 -54 -182 -117t-183 -63q-97 0 -132.5 74t-35.5 155q0 180 74 393q-457 -544 -659 -544q-88 0 -167 125t-79 354q0 176 113.5 415t277.5 411.5t301 172.5q73 0 122.5 -24.5t49.5 -65.5q0 -87 -163 -268.5t-320 -263.5
q-23 -11 -52 -27.5l-38 -21.5q-25 -79 -25 -148q0 -82 28 -135t66 -53q77 0 242 111t221 167l721 721q45 45 74 45q81 0 102 -225v-37q0 -33 -16 -49l-369 -397q-139 -152 -139 -308q0 -168 127 -168q113 0 279 123q2 1 64 43.5t67 42.5q36 0 36 -57q0 -165 -87.5 -416
t-260.5 -507t-413 -437q-84 -65 -177 -65q-65 0 -122 28q-86 150 -86 373q18 108 130.5 168.5t286.5 60.5q-65 -88 -65 -208q0 -64 16 -119z" />
    <glyph glyph-name="divide" unicode="&#xf7;" horiz-adv-x="1393" 
d="M57 696q0 43 49 131q95 164 95 238q0 13 -29 40t-29 58q0 77 79.5 192t187 201t180.5 86q41 0 41 -45q0 -16 -6.5 -31t-6.5 -30q0 -74 91 -74q46 0 168 21q296 45 286 45q51 0 78 -45q45 -67 45 -135q0 -92 -123 -213q-133 -124 -261 -318t-128 -305q0 -75 45 -115.5
t115 -40.5q115 0 348 197q43 33 70 33q41 0 41 -41q0 -58 -353 -357q-262 -196 -499 -196q-93 0 -151 71t-58 191q0 125 72.5 243t218.5 294l122.5 137.5t81 99.5t29.5 70q0 65 -151 65q-164 0 -232 -17t-89.5 -47.5t-59.5 -123.5q-60 -140 -136.5 -213.5t-117.5 -73.5
q-13 0 -13 8z" />
    <glyph glyph-name="divide" unicode="&#x447;" horiz-adv-x="1393" 
d="M57 696q0 43 49 131q95 164 95 238q0 13 -29 40t-29 58q0 77 79.5 192t187 201t180.5 86q41 0 41 -45q0 -16 -6.5 -31t-6.5 -30q0 -74 91 -74q46 0 168 21q296 45 286 45q51 0 78 -45q45 -67 45 -135q0 -92 -123 -213q-133 -124 -261 -318t-128 -305q0 -75 45 -115.5
t115 -40.5q115 0 348 197q43 33 70 33q41 0 41 -41q0 -58 -353 -357q-262 -196 -499 -196q-93 0 -151 71t-58 191q0 125 72.5 243t218.5 294l122.5 137.5t81 99.5t29.5 70q0 65 -151 65q-164 0 -232 -17t-89.5 -47.5t-59.5 -123.5q-60 -140 -136.5 -213.5t-117.5 -73.5
q-13 0 -13 8z" />
    <glyph glyph-name="oslash" unicode="&#xf8;" horiz-adv-x="2523" 
d="M782 426q-336 -426 -512 -426q-59 0 -123.5 71.5t-105.5 184.5t-41 231q0 198 118 415t276 376.5t253 183.5h107q118 -8 118 -86q0 -85 -104 -208.5t-244 -225.5t-225 -119q-33 -132 -33 -217q0 -44 26 -85.5t56 -41.5q58 0 252 163t400 360t249 247q73 80 99 103.5
t69 72.5l40.5 45.5t54 50.5t49.5 19q40 0 81 -49.5t41 -97.5q0 -80 -35.5 -129t-123.5 -129q-459 -423 -459 -582q0 -34 20 -64t41 -30q100 0 471 307q334 273 631 664q47 45 82 45q62 0 100.5 -59t38.5 -118q0 -49 -94 -143l-130.5 -131t-157.5 -173t-125 -181t-50 -166
q0 -103 54.5 -146t117.5 -43q101 0 312 177q75 65 86 65q61 0 61 -29q0 -63 -138 -215.5t-313 -275.5t-282 -123q-250 0 -250 279q0 129 53 290q-105 -153 -280 -318t-297 -165q-93 0 -163.5 116.5t-70.5 309.5z" />
    <glyph glyph-name="oslash" unicode="&#x448;" horiz-adv-x="2523" 
d="M782 426q-336 -426 -512 -426q-59 0 -123.5 71.5t-105.5 184.5t-41 231q0 198 118 415t276 376.5t253 183.5h107q118 -8 118 -86q0 -85 -104 -208.5t-244 -225.5t-225 -119q-33 -132 -33 -217q0 -44 26 -85.5t56 -41.5q58 0 252 163t400 360t249 247q73 80 99 103.5
t69 72.5l40.5 45.5t54 50.5t49.5 19q40 0 81 -49.5t41 -97.5q0 -80 -35.5 -129t-123.5 -129q-459 -423 -459 -582q0 -34 20 -64t41 -30q100 0 471 307q334 273 631 664q47 45 82 45q62 0 100.5 -59t38.5 -118q0 -49 -94 -143l-130.5 -131t-157.5 -173t-125 -181t-50 -166
q0 -103 54.5 -146t117.5 -43q101 0 312 177q75 65 86 65q61 0 61 -29q0 -63 -138 -215.5t-313 -275.5t-282 -123q-250 0 -250 279q0 129 53 290q-105 -153 -280 -318t-297 -165q-93 0 -163.5 116.5t-70.5 309.5z" />
    <glyph glyph-name="ugrave" unicode="&#xf9;" horiz-adv-x="2564" 
d="M299 823q-33 -115 -33 -217q0 -131 90 -131q54 0 213 123q168 127 250 197.5t116 106t121 136t193 211.5l127.5 133t135 135t49.5 23q40 0 81 -49.5t41 -97.5q0 -79 -34 -127t-121 -131q-145 -132 -302 -322.5t-157 -288.5q0 -23 20 -44t41 -21q66 0 280.5 165t350.5 285
q109 99 189.5 190t163 194.5t122.5 142.5t74 39q62 0 100.5 -59t38.5 -118q0 -49 -94 -143q-463 -473 -463 -668q0 -168 176 -168q75 0 130.5 29.5t136.5 89.5l135 90q37 0 37 -57q0 -179 -95 -435t-270 -507t-397 -418q-82 -65 -176 -65q-66 0 -123 28q-86 150 -86 373
q15 107 127.5 168t290.5 61q-70 -95 -70 -208q0 -53 21 -119q143 120 239.5 325.5t132.5 415.5q-75 -61 -184.5 -120.5t-179.5 -59.5q-80 0 -138.5 84.5t-58.5 214.5q0 91 53 274q-105 -153 -280 -318t-297 -165q-93 0 -163.5 116.5t-70.5 309.5q-336 -426 -512 -426
q-59 0 -123.5 71.5t-105.5 184.5t-41 231q0 198 118 415t276 376.5t253 183.5h107q118 -8 118 -86q0 -85 -104 -208.5t-244 -225.5t-225 -119z" />
    <glyph glyph-name="ugrave" unicode="&#x449;" horiz-adv-x="2564" 
d="M299 823q-33 -115 -33 -217q0 -131 90 -131q54 0 213 123q168 127 250 197.5t116 106t121 136t193 211.5l127.5 133t135 135t49.5 23q40 0 81 -49.5t41 -97.5q0 -79 -34 -127t-121 -131q-145 -132 -302 -322.5t-157 -288.5q0 -23 20 -44t41 -21q66 0 280.5 165t350.5 285
q109 99 189.5 190t163 194.5t122.5 142.5t74 39q62 0 100.5 -59t38.5 -118q0 -49 -94 -143q-463 -473 -463 -668q0 -168 176 -168q75 0 130.5 29.5t136.5 89.5l135 90q37 0 37 -57q0 -179 -95 -435t-270 -507t-397 -418q-82 -65 -176 -65q-66 0 -123 28q-86 150 -86 373
q15 107 127.5 168t290.5 61q-70 -95 -70 -208q0 -53 21 -119q143 120 239.5 325.5t132.5 415.5q-75 -61 -184.5 -120.5t-179.5 -59.5q-80 0 -138.5 84.5t-58.5 214.5q0 91 53 274q-105 -153 -280 -318t-297 -165q-93 0 -163.5 116.5t-70.5 309.5q-336 -426 -512 -426
q-59 0 -123.5 71.5t-105.5 184.5t-41 231q0 198 118 415t276 376.5t253 183.5h107q118 -8 118 -86q0 -85 -104 -208.5t-244 -225.5t-225 -119z" />
    <glyph glyph-name="uacute" unicode="&#xfa;" horiz-adv-x="1618" 
d="M1094 184q-224 -188 -361 -188q-120 0 -207.5 135.5t-87.5 294.5q0 305 213 582q87 110 189 199t102 104q0 20 -90 20q-173 0 -312 -51.5t-139 -140.5q0 -20 13 -54q-25 -4 -95 -4q-305 0 -319 193v33q7 64 70 131t185.5 113t301.5 46q90 0 176 -12q40 -6 126.5 -22.5
t147 -23.5t132.5 -7q77 0 115 12t44 12q33 0 66 -76t33 -153q0 -51 -17.5 -70.5t-109.5 -64.5q-174 -86 -321.5 -243t-232.5 -317.5t-85 -254.5q0 -139 86 -139q52 0 113.5 35t99.5 83q-17 52 -17 119q0 109 46.5 219.5t126.5 181t171 70.5q82 0 121 -54t39 -130
q0 -83 -46.5 -198.5t-104.5 -194.5q44 -29 94 -29q92 0 164 86q31 41 65 41q20 0 29 -21v-57q-29 -104 -113 -185t-178 -81q-152 0 -233 61z" />
    <glyph glyph-name="uacute" unicode="&#x44a;" horiz-adv-x="1618" 
d="M1094 184q-224 -188 -361 -188q-120 0 -207.5 135.5t-87.5 294.5q0 305 213 582q87 110 189 199t102 104q0 20 -90 20q-173 0 -312 -51.5t-139 -140.5q0 -20 13 -54q-25 -4 -95 -4q-305 0 -319 193v33q7 64 70 131t185.5 113t301.5 46q90 0 176 -12q40 -6 126.5 -22.5
t147 -23.5t132.5 -7q77 0 115 12t44 12q33 0 66 -76t33 -153q0 -51 -17.5 -70.5t-109.5 -64.5q-174 -86 -321.5 -243t-232.5 -317.5t-85 -254.5q0 -139 86 -139q52 0 113.5 35t99.5 83q-17 52 -17 119q0 109 46.5 219.5t126.5 181t171 70.5q82 0 121 -54t39 -130
q0 -83 -46.5 -198.5t-104.5 -194.5q44 -29 94 -29q92 0 164 86q31 41 65 41q20 0 29 -21v-57q-29 -104 -113 -185t-178 -81q-152 0 -233 61z" />
    <glyph glyph-name="ucircumflex" unicode="&#xfb;" horiz-adv-x="2089" 
d="M352 918q-157 -41 -299 -41q-53 0 -53 65q0 21 20 33t80.5 33t105.5 40t118 66q226 147 397 279q59 42 155.5 129.5t131.5 87.5q57 0 110.5 -58.5t81.5 -191.5q-209 -128 -305.5 -197.5t-143 -122.5t-120.5 -163q-76 -110 -120 -205t-44 -230q0 -200 90 -200q56 0 115 82
q0 211 70 350t168.5 203.5t183.5 64.5q37 0 75.5 -42.5t38.5 -137.5q0 -38 -12 -94q215 115 594 684q61 90 106 90q38 0 76.5 -78.5t38.5 -138.5q0 -51 -30.5 -91t-120.5 -130q-141 -146 -228.5 -266.5t-87.5 -258.5q0 -172 111 -172q152 0 315 156q47 45 70 45q49 0 49 -29
q0 -65 -205 -258q-184 -168 -287.5 -245.5t-212.5 -77.5q-95 0 -151.5 60.5t-56.5 160.5q0 231 98 413q-47 -47 -115 -69q-26 -11 -33.5 -14.5t-15.5 -6.5q-66 -102 -179 -206t-224.5 -170t-178.5 -66q-93 0 -189.5 163t-96.5 365q0 169 110 390z" />
    <glyph glyph-name="ucircumflex" unicode="&#x44b;" horiz-adv-x="2089" 
d="M352 918q-157 -41 -299 -41q-53 0 -53 65q0 21 20 33t80.5 33t105.5 40t118 66q226 147 397 279q59 42 155.5 129.5t131.5 87.5q57 0 110.5 -58.5t81.5 -191.5q-209 -128 -305.5 -197.5t-143 -122.5t-120.5 -163q-76 -110 -120 -205t-44 -230q0 -200 90 -200q56 0 115 82
q0 211 70 350t168.5 203.5t183.5 64.5q37 0 75.5 -42.5t38.5 -137.5q0 -38 -12 -94q215 115 594 684q61 90 106 90q38 0 76.5 -78.5t38.5 -138.5q0 -51 -30.5 -91t-120.5 -130q-141 -146 -228.5 -266.5t-87.5 -258.5q0 -172 111 -172q152 0 315 156q47 45 70 45q49 0 49 -29
q0 -65 -205 -258q-184 -168 -287.5 -245.5t-212.5 -77.5q-95 0 -151.5 60.5t-56.5 160.5q0 231 98 413q-47 -47 -115 -69q-26 -11 -33.5 -14.5t-15.5 -6.5q-66 -102 -179 -206t-224.5 -170t-178.5 -66q-93 0 -189.5 163t-96.5 365q0 169 110 390z" />
    <glyph glyph-name="udieresis" unicode="&#xfc;" horiz-adv-x="1413" 
d="M348 918q-53 -14 -149.5 -27.5t-145.5 -13.5q-53 0 -53 65q0 24 18.5 36t76 30.5t110.5 39.5t127 62q168 94 389 279q52 40 152 130.5t135 90.5q57 0 110.5 -58.5t81.5 -191.5q-214 -130 -300 -189t-191 -180q-242 -276 -242 -549q0 -200 90 -200q34 0 80.5 37.5
t71.5 76.5q-13 53 -13 111q0 117 55 228.5t141 181t173 69.5q52 0 95.5 -42t43.5 -142q0 -96 -39.5 -204.5t-107.5 -188.5q51 -29 98 -29q92 0 164 86q31 41 65 41q20 0 29 -21v-57q-25 -88 -108.5 -177t-186.5 -89q-149 0 -233 61q-222 -184 -332 -184q-68 0 -139 69
t-117.5 189t-46.5 258q0 222 98 402z" />
    <glyph glyph-name="udieresis" unicode="&#x44c;" horiz-adv-x="1413" 
d="M348 918q-53 -14 -149.5 -27.5t-145.5 -13.5q-53 0 -53 65q0 24 18.5 36t76 30.5t110.5 39.5t127 62q168 94 389 279q52 40 152 130.5t135 90.5q57 0 110.5 -58.5t81.5 -191.5q-214 -130 -300 -189t-191 -180q-242 -276 -242 -549q0 -200 90 -200q34 0 80.5 37.5
t71.5 76.5q-13 53 -13 111q0 117 55 228.5t141 181t173 69.5q52 0 95.5 -42t43.5 -142q0 -96 -39.5 -204.5t-107.5 -188.5q51 -29 98 -29q92 0 164 86q31 41 65 41q20 0 29 -21v-57q-25 -88 -108.5 -177t-186.5 -89q-149 0 -233 61q-222 -184 -332 -184q-68 0 -139 69
t-117.5 189t-46.5 258q0 222 98 402z" />
    <glyph glyph-name="yacute" unicode="&#xfd;" horiz-adv-x="1610" 
d="M967 664q128 103 256.5 246.5t128.5 240.5q0 57 -43.5 81.5t-100.5 24.5q-103 0 -327 -86q-131 -54 -191.5 -90t-141 -89.5t-106.5 -53.5q-30 0 -115 118.5t-85 143.5q0 30 163 123t234 123q305 147 553 147q139 0 219.5 -79.5t110.5 -187t30 -208.5q0 -96 -63.5 -210.5
t-218.5 -321.5q94 -33 188 -33h33q8 -8 8 -16t-18 -30.5t-43 -64.5q-32 -58 -58.5 -76t-64.5 -18q-68 0 -205 49q-164 -177 -366.5 -297t-362.5 -120q-95 0 -238 80t-143 141q0 11 7.5 23t24 32.5l42.5 54.5q144 181 180 181q20 0 53.5 -35t69 -57.5t98.5 -22.5
q109 0 279 110q-57 0 -132 30.5t-90 76.5v74q13 42 44.5 113t50.5 71q9 0 39.5 -34t70.5 -60q106 -66 230 -94z" />
    <glyph glyph-name="yacute" unicode="&#x44d;" horiz-adv-x="1610" 
d="M967 664q128 103 256.5 246.5t128.5 240.5q0 57 -43.5 81.5t-100.5 24.5q-103 0 -327 -86q-131 -54 -191.5 -90t-141 -89.5t-106.5 -53.5q-30 0 -115 118.5t-85 143.5q0 30 163 123t234 123q305 147 553 147q139 0 219.5 -79.5t110.5 -187t30 -208.5q0 -96 -63.5 -210.5
t-218.5 -321.5q94 -33 188 -33h33q8 -8 8 -16t-18 -30.5t-43 -64.5q-32 -58 -58.5 -76t-64.5 -18q-68 0 -205 49q-164 -177 -366.5 -297t-362.5 -120q-95 0 -238 80t-143 141q0 11 7.5 23t24 32.5l42.5 54.5q144 181 180 181q20 0 53.5 -35t69 -57.5t98.5 -22.5
q109 0 279 110q-57 0 -132 30.5t-90 76.5v74q13 42 44.5 113t50.5 71q9 0 39.5 -34t70.5 -60q106 -66 230 -94z" />
    <glyph glyph-name="thorn" unicode="&#xfe;" horiz-adv-x="2191" 
d="M737 618q-32 -32 -112 -103.5t-133 -133.5q-51 -59 -127.5 -172.5t-117 -161t-83.5 -47.5q-64 0 -114 84.5t-50 300.5q0 109 17 189t50 143.5t90.5 143l84.5 118.5q202 299 389 311h49q98 -5 98 -78q-1 -102 -53.5 -144.5t-179.5 -104.5t-190.5 -140t-63.5 -237
q0 -82 28 -140q229 246 549 512q157 194 415.5 371.5t440.5 177.5q86 0 156 -46t70 -81q0 -29 -8 -61q-7 -9 -13 -41q131 -39 131 -225q0 -69 -20 -144q-44 -185 -152 -360q-12 -12 -12 -33q0 -27 24.5 -48.5t65.5 -21.5q57 0 104 37t76 37q45 0 45 -28q0 -33 -69 -92
t-183.5 -104.5t-242.5 -45.5q-245 -299 -537 -299q-254 0 -338 197.5t-84 392.5v77zM1556 373q-45 92 -45 172q0 105 70 282q32 84 67 159.5t35 94.5q0 41 -53 41q-76 0 -211 -103t-219 -196q-87 -90 -146 -173.5t-59 -174.5q0 -178 57.5 -226t147.5 -48q164 0 356 172z" />
    <glyph glyph-name="thorn" unicode="&#x44e;" horiz-adv-x="2191" 
d="M737 618q-32 -32 -112 -103.5t-133 -133.5q-51 -59 -127.5 -172.5t-117 -161t-83.5 -47.5q-64 0 -114 84.5t-50 300.5q0 109 17 189t50 143.5t90.5 143l84.5 118.5q202 299 389 311h49q98 -5 98 -78q-1 -102 -53.5 -144.5t-179.5 -104.5t-190.5 -140t-63.5 -237
q0 -82 28 -140q229 246 549 512q157 194 415.5 371.5t440.5 177.5q86 0 156 -46t70 -81q0 -29 -8 -61q-7 -9 -13 -41q131 -39 131 -225q0 -69 -20 -144q-44 -185 -152 -360q-12 -12 -12 -33q0 -27 24.5 -48.5t65.5 -21.5q57 0 104 37t76 37q45 0 45 -28q0 -33 -69 -92
t-183.5 -104.5t-242.5 -45.5q-245 -299 -537 -299q-254 0 -338 197.5t-84 392.5v77zM1556 373q-45 92 -45 172q0 105 70 282q32 84 67 159.5t35 94.5q0 41 -53 41q-76 0 -211 -103t-219 -196q-87 -90 -146 -173.5t-59 -174.5q0 -178 57.5 -226t147.5 -48q164 0 356 172z" />
    <glyph glyph-name="ydieresis" unicode="&#xff;" horiz-adv-x="1737" 
d="M1126 831q157 43 239.5 88.5t143.5 93.5t80 48q13 0 13 -49v-70q-3 -106 -17.5 -133.5t-89.5 -75.5q-258 -154 -258 -340q0 -86 90 -86q64 0 250 123q88 57 115 57q31 0 38 -11.5t7 -41.5q0 -49 -142.5 -151.5t-313.5 -192.5t-216 -90q-160 0 -188 131v111
q34 198 188 385q-96 -63 -176 -90q-335 -507 -575.5 -710.5t-428.5 -203.5q-64 0 -118 18t-54 44q0 69 86 209q86 131 168 208q51 -61 135 -61q103 0 222.5 112.5t298.5 313.5q-177 -86 -332 -86q-88 0 -125.5 17t-56.5 93.5t-19 253.5q0 209 389 549q207 180 422.5 289
t327.5 109q119 0 149.5 -106t30.5 -300q0 -101 -58.5 -199t-224.5 -256zM864 770q295 323 295 447q0 53 -94 53q-139 0 -308.5 -84t-291 -195t-121.5 -172q0 -94 152 -94q237 0 368 45z" />
    <glyph glyph-name="ydieresis" unicode="&#x44f;" horiz-adv-x="1737" 
d="M1126 831q157 43 239.5 88.5t143.5 93.5t80 48q13 0 13 -49v-70q-3 -106 -17.5 -133.5t-89.5 -75.5q-258 -154 -258 -340q0 -86 90 -86q64 0 250 123q88 57 115 57q31 0 38 -11.5t7 -41.5q0 -49 -142.5 -151.5t-313.5 -192.5t-216 -90q-160 0 -188 131v111
q34 198 188 385q-96 -63 -176 -90q-335 -507 -575.5 -710.5t-428.5 -203.5q-64 0 -118 18t-54 44q0 69 86 209q86 131 168 208q51 -61 135 -61q103 0 222.5 112.5t298.5 313.5q-177 -86 -332 -86q-88 0 -125.5 17t-56.5 93.5t-19 253.5q0 209 389 549q207 180 422.5 289
t327.5 109q119 0 149.5 -106t30.5 -300q0 -101 -58.5 -199t-224.5 -256zM864 770q295 323 295 447q0 53 -94 53q-139 0 -308.5 -84t-291 -195t-121.5 -172q0 -94 152 -94q237 0 368 45z" />
    <glyph glyph-name="quotedblbase" horiz-adv-x="1499" 
d="M258 115q0 74 52.5 171t130 165.5t141.5 68.5q102 0 102 -131q0 -186 -262 -561q-79 -105 -110 -140.5t-62 -35.5q-29 0 -29 24q0 16 25 45q90 131 90 197q0 56 -39 109t-39 88zM786 115q0 81 62 188q65 105 120.5 161t141.5 56q102 0 102 -139q0 -123 -82 -268
t-180 -285q-79 -105 -110 -140.5t-62 -35.5q-28 0 -28 24q0 15 24 45q3 5 31 49t43.5 80.5t15.5 71.5q0 53 -39 105t-39 88z" />
    <glyph glyph-name="ellipsis" horiz-adv-x="3445" 
d="M287 74q0 87 58.5 193t140 183.5t137.5 77.5q102 0 102 -151q0 -84 -54.5 -186t-134 -173t-147.5 -71q-102 0 -102 127zM1413 74q0 71 57.5 182t139 191.5t143.5 80.5q102 0 102 -151q0 -84 -55 -187t-133.5 -173t-146.5 -70q-39 0 -73 34t-34 93zM2544 74
q0 74 57.5 183.5t138 190t144.5 80.5q102 0 102 -151q0 -84 -54.5 -186t-134 -173t-147.5 -71q-39 0 -72.5 33.5t-33.5 93.5z" />
    <glyph glyph-name="trademark" horiz-adv-x="4231" 
d="M856 2925h1249l37 -418h-69q-44 168 -113 229.5t-195 61.5h-114v-955q0 -116 37.5 -170.5t171.5 -54.5v-70h-758v70q45 0 78 8q78 19 104.5 54t26.5 163v955h-115q-94 0 -151.5 -29.5t-92 -91.5t-63.5 -170h-70zM2286 2925h557l430 -885l438 885h520v-70q-45 0 -78 -8
q-76 -17 -103.5 -53t-27.5 -164v-787q0 -128 26.5 -163t104.5 -54q33 -8 78 -8v-70h-717v70q12 0 62 8q54 13 82 48t28 169v725l-503 -1028h-45l-500 1020v-717q0 -129 32.5 -177t139.5 -48v-70h-524v70q45 0 77 8q78 19 104.5 54.5t26.5 162.5v787q0 127 -27.5 163.5
t-103.5 53.5q-32 8 -77 8v70z" />
    <glyph glyph-name="guilsinglleft" horiz-adv-x="1298" 
d="M676 905l-86 -610q-19 -131 -111 -131q-38 0 -57 86l-143 737l749 569q35 25 90 25q33 0 49.5 -20.5t16.5 -40.5q0 -53 -25 -82z" />
    <glyph glyph-name="guilsinglright" horiz-adv-x="1413" 
d="M737 840l86 614q19 127 111 127q15 0 33 -24.5t24 -57.5l144 -737l-754 -569q-36 -29 -86 -29q-26 0 -46 21t-20 40q0 65 21 86z" />
    <glyph glyph-name="quotesinglbase" horiz-adv-x="967" 
d="M258 115q0 76 52.5 173t129.5 164.5t142 67.5q61 0 79.5 -40.5t18.5 -139.5q0 -145 -254 -512q-123 -176 -172 -176q-29 0 -29 24q0 19 25 54q90 108 90 188q0 51 -41 101t-41 96z" />
    <glyph glyph-name="dagger" horiz-adv-x="3011" 
d="M938 -451l-549 -225q-41 105 -41 238q0 229 105 518.5t266 576t339.5 541.5t325.5 428q-354 -12 -692 -65q20 326 242 577q296 74 618 74q152 0 230 -8q101 147 172 240.5l130 166l148 182.5q123 160 201 160q57 0 57 -155q0 -213 -376 -635q363 -74 667 -254l-172 -312
q-38 -68 -81.5 -101.5t-139.5 -33.5q-73 0 -127.5 13.5t-139 43t-170 51.5t-222.5 40q-447 -604 -621 -1080t-174 -854q0 -86 4 -127z" />
    <glyph glyph-name="daggerdbl" 
d="M287 1290q0 189 133 324t325 135q190 0 324.5 -133t134.5 -326t-134.5 -326t-324.5 -133q-189 0 -323.5 133t-134.5 326z" />
    <glyph glyph-name="circumflex" horiz-adv-x="1704" 
d="M1397 2384l-463 -361l-131 111l487 483q78 66 164 66q123 0 201 -86l393 -574l-311 -184z" />
    <glyph glyph-name="tilde" horiz-adv-x="1720" 
d="M1831 2195l119 -20q-91 -143 -220.5 -239.5t-226.5 -96.5q-107 0 -299 164q-125 98 -221 98q-64 0 -172 -119l-123 25q236 324 385 324q167 0 303 -103q111 -87 157.5 -117t104.5 -30q104 0 193 114z" />
    <glyph glyph-name="breve" horiz-adv-x="1634" 
d="M831 2499h177q-4 -29 -4 -82q0 -291 294 -291q333 0 504 373h176q-64 -223 -193.5 -365.5t-277 -204t-278.5 -61.5q-151 0 -288.5 79.5t-137.5 276.5q0 198 28 275z" />
    <glyph glyph-name="dotaccent" horiz-adv-x="913" 
d="M1135 1860q-25 -9 -82 -9q-48 0 -91.5 42t-43.5 130q0 122 91.5 225t223.5 103q139 0 139 -172q0 -106 -70 -199t-167 -120z" />
    <glyph glyph-name="ring" horiz-adv-x="1376" 
d="M803 2294q17 114 89 219.5t185.5 172.5t249.5 67q180 0 286.5 -129t106.5 -330q0 -124 -77.5 -230t-199 -167.5t-247.5 -61.5q-177 0 -285 123.5t-108 335.5zM995 2294q0 -103 55.5 -182.5t174.5 -79.5q125 0 212 84.5t87 177.5q0 106 -53 184t-173 78q-85 0 -155 -40.5
t-109 -103t-39 -118.5z" />
    <glyph glyph-name="hungarumlaut" 
d="M287 1290q0 189 133 324t325 135q190 0 324.5 -133t134.5 -326t-134.5 -326t-324.5 -133q-189 0 -323.5 133t-134.5 326z" />
    <glyph glyph-name="ogonek" 
d="M287 1290q0 189 133 324t325 135q190 0 324.5 -133t134.5 -326t-134.5 -326t-324.5 -133q-189 0 -323.5 133t-134.5 326z" />
    <glyph glyph-name="caron" horiz-adv-x="1692" 
d="M1311 2159l471 438l254 -262l-533 -451q-61 -45 -147 -45q-126 0 -209 119l-344 594l151 74z" />
    <glyph glyph-name="dotlessi" horiz-adv-x="995" 
d="M336 676q-21 -58 -21 -168q0 -266 246 -266q156 0 426 192q51 29 66 29q41 0 41 -37q0 -52 -234 -262q-138 -127 -259 -198.5t-261 -71.5q-163 0 -251.5 148.5t-88.5 367.5q0 132 39 253t159 277.5t355 366.5q108 94 238 94q94 0 94 -144q0 -147 -146.5 -305t-402.5 -276
z" />
    <glyph glyph-name="fraction" 
d="M287 1290q0 189 133 324t325 135q190 0 324.5 -133t134.5 -326t-134.5 -326t-324.5 -133q-189 0 -323.5 133t-134.5 326z" />
    <glyph glyph-name="florin" 
d="M287 1290q0 189 133 324t325 135q190 0 324.5 -133t134.5 -326t-134.5 -326t-324.5 -133q-189 0 -323.5 133t-134.5 326z" />
    <glyph glyph-name="fi" 
d="M287 1290q0 189 133 324t325 135q190 0 324.5 -133t134.5 -326t-134.5 -326t-324.5 -133q-189 0 -323.5 133t-134.5 326z" />
    <glyph glyph-name="fl" 
d="M287 1290q0 189 133 324t325 135q190 0 324.5 -133t134.5 -326t-134.5 -326t-324.5 -133q-189 0 -323.5 133t-134.5 326z" />
    <glyph glyph-name="perthousand" horiz-adv-x="5218" 
d="M1622 2789q84 -41 107 -123v-114q-19 -104 -33 -144q-46 -148 -189 -340q-16 -24 -16 -36q0 -31 28 -54.5t66 -23.5q55 0 107 30.5t77 30.5q46 0 46 -33q0 -39 -69.5 -87t-190 -80.5t-257.5 -32.5q-105 -109 -254 -177.5t-307 -68.5q-206 0 -299.5 197.5t-93.5 425.5
q0 186 185 390.5t445 341t460 136.5q85 0 151 -49t66 -90q0 -30 -17 -58q-4 -9 -12 -41zM1200 1913q-33 68 -33 147q0 150 127 377q86 158 86 197q0 28 -41 28q-60 0 -181 -61t-248 -163.5t-213.5 -226.5t-86.5 -241q0 -192 189 -192q144 0 401 135zM3060 496
q110 -44 110 -238q0 -101 -37.5 -178t-117.5 -203q-26 -45 -70 -102q-12 -25 -12 -41q0 -33 27.5 -53.5t66.5 -20.5q168 0 377 152q-8 48 -8 69q0 145 111 305.5t279 296t340 219.5t281 84q87 0 158.5 -38.5t71.5 -79.5q0 -29 -21 -82q-4 -8 -4 -21q131 -28 131 -221
q0 -65 -20 -147q-50 -207 -152 -357q-12 -18 -12 -33q0 -33 29 -53t65 -20q45 0 71 14t57 39t48 25q45 0 45 -33q0 -54 -75 -110.5t-191 -94t-229 -37.5q-246 -299 -537 -299q-189 0 -285 131.5t-129 294.5q-340 -209 -487 -209q-135 0 -205 33q-250 -250 -561 -250
q-204 0 -298.5 202t-94.5 425q0 159 119 316.5t299 282t366.5 197t308.5 72.5q84 0 148.5 -48.5t64.5 -90.5q0 -33 -16 -57q-3 -12 -6.5 -22.5t-5.5 -18.5zM2638 -381q-33 70 -33 148q0 94 70 249q22 51 34.5 75.5l29.5 56l30 57.5q49 86 49 135q0 29 -41 29
q-94 0 -273 -109t-315.5 -269.5t-136.5 -314.5q0 -192 184 -192q154 0 402 135zM4239 -340q-45 86 -45 180q0 80 45 217q38 107 74 172q45 94 45 164q0 17 -53 17q-85 0 -239.5 -122.5t-271 -296.5t-116.5 -323q0 -111 58.5 -143.5t146.5 -32.5q166 0 356 168zM3158 2744
l-2408 -3317q-25 -37 -41 -37q-30 0 -41 32l-62 181q0 44 37 94l2400 3318q4 5 10.5 16t15.5 17.5t23 7.5h13q9 -2 20 -25l74 -197q0 -34 -41 -90z" />
    <glyph glyph-name="Lslash" 
d="M287 1290q0 189 133 324t325 135q190 0 324.5 -133t134.5 -326t-134.5 -326t-324.5 -133q-189 0 -323.5 133t-134.5 326z" />
    <glyph glyph-name="OE" horiz-adv-x="4899" 
d="M3850 1364v33q-149 16 -348 28q-254 12 -407.5 45t-234 93.5t-120.5 165.5q-48 -265 -208 -567t-402.5 -565.5t-539 -424t-611.5 -160.5q-203 0 -352.5 123t-228.5 316t-79 389q0 410 229 771.5t561.5 626t656.5 425t491 184.5h94q94 -21 184.5 -150t130.5 -252
q-214 -24 -376 -123q172 0 289 -73t153 -197q99 233 299.5 404.5t458 279t528.5 156.5t529 49q267 0 395 -34.5t219 -117.5v-319q-22 -43 -73 -72t-263 -121q-159 -68 -262.5 -132.5t-175.5 -104.5q31 147 217 282q-133 58 -307 58q-242 0 -459 -51.5t-376.5 -135t-248 -183
t-88.5 -191.5q0 -230 836 -230q40 0 287 13h208q144 -16 144 -103q0 -123 -49.5 -184.5t-128 -83.5t-246 -40.5t-252.5 -35.5q-435 -83 -727.5 -239.5t-431.5 -318.5t-139 -257q0 -68 111 -132.5t298 -64.5q206 0 421.5 42t431 120t432 189.5t415.5 242.5
q-17 -194 -63.5 -328t-141.5 -237.5t-246 -187.5q-550 -317 -1200 -349h-180q-251 13 -409 69.5t-237 191.5t-79 378q0 126 95.5 268.5t272.5 280.5t420.5 252.5t534.5 186.5q257 65 348 102zM1167 1421l-98 41q-94 -97 -183 -258.5t-145.5 -340t-56.5 -314.5
q0 -143 76.5 -227t161.5 -84q135 0 327 104t384 265.5t317 318.5q134 165 241 319t182.5 326t75.5 321q0 250 -204 250q-238 0 -551.5 -230t-526.5 -491z" />
    <glyph glyph-name="lslash" 
d="M287 1290q0 189 133 324t325 135q190 0 324.5 -133t134.5 -326t-134.5 -326t-324.5 -133q-189 0 -323.5 133t-134.5 326z" />
    <glyph glyph-name="oe" horiz-adv-x="2441" 
d="M1217 1278q135 -42 135 -209q0 -38 -21 -135q157 242 391 424t469 182q242 0 242 -201q0 -129 -142.5 -298t-362.5 -303.5t-425 -172.5q0 -157 65 -240t173 -83q128 0 302 103.5t296 199.5q56 45 78 45q18 0 24 -12v-50q-15 -44 -150.5 -184t-213.5 -209
q-303 -262 -549 -262q-150 0 -262 107.5t-127 281.5q-49 -12 -156 -12q-245 -299 -537 -299q-142 0 -243 92t-152 229.5t-51 268.5q0 162 107 332.5t275.5 313.5t339.5 227.5t290 84.5q80 0 152.5 -42t72.5 -77q0 -29 -8 -61q-5 -8 -12 -41zM844 373q-45 89 -45 184
q0 104 45 213q38 103 82.5 196t44.5 115q0 41 -62 41q-103 0 -254.5 -126t-261.5 -303t-110 -316q0 -176 204 -176q169 0 357 172zM1503 717q167 50 378.5 211t211.5 289q0 106 -82 106q-97 0 -202.5 -99t-188 -241t-117.5 -266z" />
    <glyph glyph-name="Scaron" 
d="M287 1290q0 189 133 324t325 135q190 0 324.5 -133t134.5 -326t-134.5 -326t-324.5 -133q-189 0 -323.5 133t-134.5 326z" />
    <glyph glyph-name="Ydieresis" 
d="M287 1290q0 189 133 324t325 135q190 0 324.5 -133t134.5 -326t-134.5 -326t-324.5 -133q-189 0 -323.5 133t-134.5 326z" />
    <glyph glyph-name="Zcaron" 
d="M287 1290q0 189 133 324t325 135q190 0 324.5 -133t134.5 -326t-134.5 -326t-324.5 -133q-189 0 -323.5 133t-134.5 326z" />
    <glyph glyph-name="scaron" 
d="M287 1290q0 189 133 324t325 135q190 0 324.5 -133t134.5 -326t-134.5 -326t-324.5 -133q-189 0 -323.5 133t-134.5 326z" />
    <glyph glyph-name="zcaron" 
d="M287 1290q0 189 133 324t325 135q190 0 324.5 -133t134.5 -326t-134.5 -326t-324.5 -133q-189 0 -323.5 133t-134.5 326z" />
  </font>
</defs>
</svg>
